<mxfile host="Electron" agent="Mozilla/5.0 (Windows NT 10.0; Win64; x64) AppleWebKit/537.36 (KHTML, like Gecko) draw.io/26.0.9 Chrome/128.0.6613.186 Electron/32.2.5 Safari/537.36" version="26.0.9" pages="3">
  <diagram id="KZ6tZk6F8C0Kufk5Jh2I" name="General">
    <mxGraphModel dx="2899" dy="94" grid="1" gridSize="10" guides="1" tooltips="1" connect="1" arrows="1" fold="1" page="1" pageScale="1" pageWidth="850" pageHeight="1100" math="0" shadow="0">
      <root>
        <mxCell id="0" />
        <mxCell id="1" parent="0" />
        <mxCell id="ZAJag4RQHsvtBGx-v4qM-1" value="Reportings" style="shadow=0;dashed=0;html=1;strokeColor=none;fillColor=#4495D1;labelPosition=center;verticalLabelPosition=bottom;verticalAlign=top;align=center;outlineConnect=0;shape=mxgraph.veeam.2d.report;" vertex="1" parent="1">
          <mxGeometry x="102" y="1460" width="36.8" height="50.8" as="geometry" />
        </mxCell>
        <mxCell id="XzQWWoObRKEOvLeWn4XC-7" value="download file from" style="edgeStyle=orthogonalEdgeStyle;rounded=0;orthogonalLoop=1;jettySize=auto;html=1;entryX=0;entryY=0.5;entryDx=0;entryDy=0;fillColor=#f8cecc;strokeColor=#b85450;" edge="1" parent="1" source="0ZSIA57OzXMckEC5qKQl-1" target="XzQWWoObRKEOvLeWn4XC-1">
          <mxGeometry x="-0.0286" y="14" relative="1" as="geometry">
            <mxPoint as="offset" />
          </mxGeometry>
        </mxCell>
        <mxCell id="0ZSIA57OzXMckEC5qKQl-1" value="Backend Program" style="aspect=fixed;sketch=0;html=1;dashed=0;whitespace=wrap;verticalLabelPosition=bottom;verticalAlign=top;fillColor=#2875E2;strokeColor=#ffffff;points=[[0.005,0.63,0],[0.1,0.2,0],[0.9,0.2,0],[0.5,0,0],[0.995,0.63,0],[0.72,0.99,0],[0.5,1,0],[0.28,0.99,0]];shape=mxgraph.kubernetes.icon2;prIcon=api" vertex="1" parent="1">
          <mxGeometry x="575" y="1480" width="50" height="48" as="geometry" />
        </mxCell>
        <mxCell id="YFyqN8CRcwEbhxxAuViW-4" value="consist of" style="edgeStyle=orthogonalEdgeStyle;rounded=0;orthogonalLoop=1;jettySize=auto;html=1;" edge="1" parent="1" source="YFyqN8CRcwEbhxxAuViW-1" target="ZAJag4RQHsvtBGx-v4qM-1">
          <mxGeometry relative="1" as="geometry" />
        </mxCell>
        <mxCell id="YFyqN8CRcwEbhxxAuViW-1" value="&lt;h2&gt;&lt;br&gt;&lt;/h2&gt;" style="strokeWidth=1;shadow=0;dashed=0;align=center;html=1;shape=mxgraph.mockup.containers.browserWindow;rSize=0;strokeColor=#666666;strokeColor2=#008cff;strokeColor3=#c4c4c4;mainText=,;recursiveResize=0;" vertex="1" parent="1">
          <mxGeometry x="200" y="1160" width="320" height="160" as="geometry" />
        </mxCell>
        <mxCell id="YFyqN8CRcwEbhxxAuViW-2" value="MedicalAI" style="strokeWidth=1;shadow=0;dashed=0;align=center;html=1;shape=mxgraph.mockup.containers.anchor;fontSize=17;fontColor=#666666;align=left;whiteSpace=wrap;" vertex="1" parent="YFyqN8CRcwEbhxxAuViW-1">
          <mxGeometry x="60" y="12" width="110" height="26" as="geometry" />
        </mxCell>
        <mxCell id="YFyqN8CRcwEbhxxAuViW-3" value="https://localhost:xxxx" style="strokeWidth=1;shadow=0;dashed=0;align=center;html=1;shape=mxgraph.mockup.containers.anchor;rSize=0;fontSize=17;fontColor=#666666;align=left;" vertex="1" parent="YFyqN8CRcwEbhxxAuViW-1">
          <mxGeometry x="130" y="60" width="250" height="26" as="geometry" />
        </mxCell>
        <mxCell id="YFyqN8CRcwEbhxxAuViW-5" style="edgeStyle=orthogonalEdgeStyle;rounded=0;orthogonalLoop=1;jettySize=auto;html=1;entryX=0.5;entryY=0;entryDx=0;entryDy=0;entryPerimeter=0;" edge="1" parent="1" source="YFyqN8CRcwEbhxxAuViW-1" target="0ZSIA57OzXMckEC5qKQl-1">
          <mxGeometry relative="1" as="geometry" />
        </mxCell>
        <mxCell id="n_bDC4-drA7iSF3iBHV1-11" value="consist of" style="edgeLabel;html=1;align=center;verticalAlign=middle;resizable=0;points=[];" vertex="1" connectable="0" parent="YFyqN8CRcwEbhxxAuViW-5">
          <mxGeometry x="0.1854" relative="1" as="geometry">
            <mxPoint as="offset" />
          </mxGeometry>
        </mxCell>
        <mxCell id="cL4u6Sjq3oYUA9FWX9du-1" value="AutoCount DB" style="shape=cylinder3;whiteSpace=wrap;html=1;boundedLbl=1;backgroundOutline=1;size=15;" vertex="1" parent="1">
          <mxGeometry x="-166" y="1833.26" width="60" height="80" as="geometry" />
        </mxCell>
        <mxCell id="cL4u6Sjq3oYUA9FWX9du-2" value="" style="shape=image;verticalLabelPosition=bottom;labelBackgroundColor=default;verticalAlign=top;aspect=fixed;imageAspect=0;image=data:image/png,iVBORw0KGgoAAAANSUhEUgAAAO8AAAC2CAIAAAC+k03RAAAgAElEQVR4Aey9B1AcWZ8nqJiNu91v4+72dnZuZu5iZm837nYvbl3szsVexFzMCitkkW2ZVner3adudbfaSlCJBwkQUICQRUgIeYe8kIQkjEAOIYQw9cp7n2WyKivNyzZf9Hf9sqAok1UUqAqQPogM6VVWVuZ7//fL//u/v13wx4i/X3/99Zdffvnpp59+/PFH7q3+gxwHIcdCzk2zDh+rw+nnGu/ZPkd5m2X7OcPmo9pVtaplFfK0MllKEfAf6WWyZRXyVXWq945qf7hkPNBhuz3kHjHRVoJ1USzDQhZy8K0m2qwM7scff/zpp59++eWXX3/9NQKwEycWTDT/+Mdff/31559/npXuzuRDIeRoFnooBN8XWu+Vly5xm+WrFt1KsSK1WJqCgZQcCTpEYOzIAynBh/987vhleSCrVLbhoObb88bGTlv7CDFqoqxuhqQhM4/rJMzrzz//HA3TE2j+wx/+kIRHz8ItGeijWBfJ4iRj97FOBpKBTiA2TLIqG9UtJZq67DvOG9fVKVNLZCm5koV++GKhwA0GcbQ2xoM+V7Jw52hKHliyW/7xIU3ldXNrv3NA6zW7aJKG86gOTEGiGn/4wx+CGbG/PYbmX375JVGPmcX7UKwb90kUrrMv7HueWPOeWLB+e7nM2YL7hr2Mw04w/WryRC++46xhQ60yw8+GMYCYcTSkTuO8CKTkStLywYoK+aeHNbuvmq+/dMksPsLHzoM6sdj45ZdfwgCN0PwWcGUG+uy+gUG89pZmxRnpP2uWLDg2Onaclv6T66rMbkPl0WcdW45IsspkCLsJB3Ek7v2PyAfLKuXfnNCdfoi/UHudXnaeTycQ02EcesGvv/6awLvPyq1o6NESt+7qsppHf9c4vODIyIKm0KNxeMG+wd/t7Ph/VzfVpJX0J5gZR+I4+My4HJJRKP30oPpIBz6g9Tq87KwQ6q18aLAMveBN3/axkDJ4Om9r046NCuA4AOsjIwsOvFpQ1Pt/rGmqWZg/MDmg/ZzVj0WRBAnWuejfFBG/O5wGa+dvtahE9mWTtuUhPmwgPdQ8m07A+/Xzzz8H5I0FCbjf7N0CcizuG+0yftIi+V0AuNEafkDv7PivS+vOLMRGBACNIZEXoVYkSSmQLiqVLa9SrhIr36lXbdmn3rJP/cE+9bp61SqxcnmVIrNUlpIvHb8+buGbfw1WViq+OaW/+MxhdDKzR7y358kB9vxmo5liXYP4vlPSv4iG4LDzR0YWNAz+7pPWL9JKHo+h2Y/gHMR3M8pkm/ard57Ri29aWh7il/ud7SPuDinRLfM8UXr61N7HSk+3zPMAEG2v3OefOho77BVXzV8e160VK9MLpQtzeMXIpGybvyCtQPpOjbL8qrlf66Xn5Y7Xe7MC28E3GM08Yx5p02QfGQ4XlMNAHPzxyMiCokf/afne0wtzh1Pykap4/X516RXTuUeOHikxYvRpcMrmZtw+lqQhzXIMHDvY8QbDchQDPRR0eFmzi1FYqVc68t4QcfC+/asT+lX1KqS0nnSjyStSFhdLPzmoOfnEYXHPM+npI/qnn34a09BN/x6z/UsW0ir39RPgfwgGazxt8cB//8GFwk0HRoqvmFr7XVKrz0YwHgqZ8ab9R7Ock2QNDrpP7T3ag39/1rCuVpVaKEX2lxgaQAyk5oHVVQpxm0Vq8c1bW6ZH/x9//PGNRzMDySH8UDzwDb9mdMGp4W/6tAbcw/qYBGuBGch5KKh30g+lRP1d67v71Sn5vHklOqZTMbCoWJp7Tv9SR85LHdMD9BuPZhp6ntv2HJ6KmBGA9QPDJy5aPz3CxfkrCDm3jx00+Gru2bKrFWhnGR3QKRhIzQfbjuueqEhqXuiIk8RBl70FaCaeWkunh+YOwyfuJKM5QGofAwcNZN5V87IyWVpMQKdgYNNBTScgfPRrCD2BB/8pNd54NDOQfIUfbpw6bz42uqDX/I2HMc/kdNMQdkmJ787ol5bKYjHpXMnKasXNQRc5D+ipTM8bj2YW0mr3jRPgf4w0/gUkCsHGKel/9woXU6xrKuRKzLUmF3P4Ib5hryqjkNd7BFsNx9sLcyQrqxQ3X7nmzSvxE/2NR3NAQzcl9nxkZEGr8v/We+5CbnbkU5KBvTJix1nDkjJ5NCa9MEeyqk51e8jlnbcXxofoNx7NHMf5WEe/rfy45Hfxs+cjIwu6jV8QtCE+KiXrKqnFV3Xbml0hRyq8ca4c0sDAhwfUnRJiXm8Xzxy8DWhmIW3y9t7RZh4djcuAchQx5n+ndl9j4eww5sDEQI6zuJhjD+0bxUpkIRcCdCoGtjVpexUeal4RHSBclMbbgGaO4xjoVbmvXFf/l9heR00jyEG0VflvRhxHfKwzCk1m+rTDy17qd3x8WJNRJARoDGTkg29P64eNEwEHM93FN+R5bwmaOY6jWJfSfalNm9o8+k8FPUKPICj/42vqvxtxHPQytrkzQZDjcC97a9C1rUkrvC/EwOISacV1s2HePynmtL09aOY4joaEwdv5xCK6rPovzZJ/3Di84PD4cXRkwXn5X/SYvtUQN0kWj0mTWfgScpyDZG8OurbsVwtsCvORYXxNhexCh4m0eeG8ZSXKFL1VaOY4joWUh7GYvY+G8SOPLXldxu2dxi8fmXNf4fv0njsEY2KgLwopZvk05JDVsPW5Y32NcmJTmA9Sd4xsfe+eOOvSqX842b38lOHTVlv+XdfZAVqFI0+o+b8gCrxtaPYPDXIsDT0ki3sZm5exkixOs57ZUsYFUXvyJuFjT/TiKysVaEeYK/l6/e0b/7nx+d+Ih/9qD/hfKuR/WaH860rV31Zp/m2t7r8edux/whhdKH/C/B9PgbcTzW/05NoJtv6+bW3+y7rM86/+ukr+L8qV/3y34KH6myrrjlv46BzaA8wu5efRPLv0F366FuD3PrwC/nqPIIhDTv55uenjS6zdK3yjP7GzbwaaVXbq5BN8f6ft/HPHoJ50v9Vx/KzL52h8rPm3tSGojcKe/dfY8m7Oy9Acx70BaEaiZDeOEl/kg5RCsKJSvuuqacjom3XzGOTjUGgWUgwkaeijIcMmIGEX+VynT21W/nlUAUMQ5d5Hmj8xRiww3LmOZgi5YSP55TEtipT2ByaJwMIcyaYD6m4pQb9OoIgANSY/xUCOpKGLRNFTwOLr13gfAqJt0NX63Hn1hfOZyqvBKRfJTluHBikWr+hS/2uxIGRjnDRtu8z4Ztm0OTn5knzFXEezh2IvPsOX7g51zeHj+D87ptM66CTTZ+z2LK8+MznpQT3ZNuhq7sYrrpq3Hde9s1e1vEKeXiJLKQSpRdLV9aqCC8YTvXi31KN3oGxdU+0erXOa1l+YKmNW/vPdqr8/4AL2qT7uLbt+TqMZQk5ppXLO6pFBIczDXQTeqVXKrFSy54OBnNnN9GvJc8/wyuvmr47p1tUoM4t572SUpYDvmL976B1DoSWLSmTv71OVXjXdGHDK+Wxd8XfSN2QyLDsRgwdH+0r9t9WebkX8Dwq7kmah2cUobZTU4pNafEobpcVpo5O2E6z39WIlwx6U1I9zGs0kDdteudYGWxP8fjk8siuum92+JIbtMyynx+n2IXf1TcvWI9rsSvlYvGruJBF+6MUTSdIKwdoapeis4VKfQ4NTTHw99XYp9AuPRINsjPOqv6lyXx+ZHlZ8DHyq8orbLKJzhh/O6H84oxedMxS1mnZfNdfftZ16jN8acg/oSYubYWZctJvSiOY0mq1upuqGJb2Azz8b7F8mAuvEyscKz5SGOqWLPRTs13gb7ts+b9Zt2qtaW61Ys0expkqxbLd8cZkcuQfl8z6cAa4c3L3AK4eBtALp2mpF4QXj3SG3lWAnBcPMo5mF3JCB3HnWkFkS4fOUD9KLpEt2y1fXKLcd0ZZdMjX34L0Kj9XNzM2Mp3MXzSzknmu8Hx7UTJh5AyjJB7uvmZzJzONGUCiM7/aQ++4rV8eoux013DcGXGcf401ddnGbFTtv+PKY9r0G9co9CqRviZE6AwPp+eDdvaq992yDejK2Ksb3arqSxr8We7qmI2m4KdjSg68sl08MIfCKBhooUxkSorLKZB/uU++6bL495DI46NhjmRL7SMjFcxfNFAPPP8UXlUQwZgws3yNvH3ZPyudeh0AQchQLKRblEh/LCMNyJAMJH+tPB6O2UcMGsltKXOpz1t+15p41bKhXpRehXEfhIv44216+W55z1tAhIWLsDr0Gl37DxWnsAtX/30FaNx0fV5OLKb5kyowe04VQHjh4fGcUSTeJlSWtxrZXTpNrhjbi8czm3EWz3cNiF4yIJQRI6W/kSraf1BtmSpsRg4iQQ+mOCB+0E2j/1CMjTvTi354xLK9UIEz7VYqhnV9UJP3ooOZyv4OO4jDEUiwu7lH/n1PW0Fl23uLilM1Dh6S209+c0KWG9jOc5kLfLiqSbqxV7r5mHtDNFUvk3EXzsNG3WhzkTeYnKM8bTvbicy1Uzl93gvCxeifdpyKr2yyrqhUI0LnhrDotX5pdIW95jPuiLC689eTYlNiz6i+ryL5pJgbROejvTunjgW/kNakYyCqSfXpIc2NuROPOXTRfeuESYBgiycpa1YjRN2VFbihDSt4niLxSUaIjNU41duPvHVAjTUhuqIYRA1nF0sZOm5MU0nQwrPvqiObf742hwQj7Ct//ZNqWbSfJ7mu3LoudEUGIN4+BGwOpIrCqSrG/Eze5Ztl8M3fR/MMlo7+GSDBLWJgjyb9knFOyWowXg2Y5qZk6cN+2Ya8S6UBCVeZpxaCx0+YRsrBAlw+v71X9bXUYagU/2kQ3WHu86h2ShS4ftHtYs5sxuxncy1Is91JPfnZEm5YXodOIAeKwrzCwrFwuvmOdXQlwNtEMOSTp+Rjo8rEGJz2gI9slxPVB1/mnjuO9+Ioq3sc3mGoYSC0EF57ib1aKCQ8FHym8ogvGZWWy1OD0iiKweJfs7BNc0D6PfI8O9Gj+Tb3yL6I4bPxFhfpfiW2iW8jFOcofAzkfDW0E26/1Xh90NffYq26aiy+bvj9r+PaMYccF47FHuBanSQZ2APfWo9olJbLFZfxRLF2UDzLyQBoGUv2ajeCJEGxjYHGZfM8tqxYXekGj9DCxp2cHzTQLnSSrsdMdEk9jtz2v1bStWbexXpVdpViyW55aigzFwSw5sKitrlE+lnuiCJyJpUwi78ZATovTjT34pjpVenBsNgbWiJUPJG7B/Rvr8rnbJMZ3zmr+Xb36X9Wo/rc9qr+uVP2ve1T/slrzf9WZ3jnrvjbMWIhIb30IOS8F9Q66W+Y50GHffkK3TqxcskuOqIqBdJEke5fsixbdmT6H1Ep5eezREI6aqbZXrvZhd/uw+86Q68xTXHzP9t154/sN6uxdsswCqYDgFwZrDGQWy+rv2ozORKepjG82ZhTNLOQcXlZhpe4Nu8W3bVsataiajt8MESjLF2iEUSoPWeC2H9eNmueu0Byb5l4aPhh1f9WszSrmawjxA0zLQwkGhoxktFeUdZDex2p8b69tR5vl8yvWb27gVV3EbcAYXIJKDJqFSit17gn+5QldVgWP4PG6FpmF0nUVctFZw+1XLhvBRFGrjA0CokQl0O2DWpy+M+zefc28pV61vFQ2CaZFYHGZrLEDt85GLuoZQjPFQhvBDGjJxg77x0e0qX69rH+/HypNCrDkAKzzQfUNi2W2txqxITvpt8DsK241Z5fzflT8Ip5VLC27bjY5E6C4JWn4QuPFzhnT81Eg1pjhCQMZhdJ1YmX+BePtV87pyWkUyw3qycMPbJ82apb4t4zRJk6E6sqdf+aY3oMmJWCMC5KOZhZyNoJ5rPDsv2/bekSbmo/8OWNBNoDdsAYGMktlx7pxYT1AjCHOva80ON3QbltVqRhzWsoDG2qVV184kX8Px9FspOwQ1xi8NHwkJ344qUdpDAJQw8Cy3fLvzxha+52611bSExR8pvZU3bJkVyrCFTXB8yUC7x9QP5J7YrP/uEY1lYuSi2aShgNa8tAD2+dN2kVlssDkTQ/Nq6sV1144/XLeVMY4F681uejGTvuaKh7QeSCjSLrzjH7ESFIsVOO0ycUIStIxRsKwsEdOfN2im4AyD+j1YmXDfduQ0RfDABnjtoJfmV1M8yPHxjoVmsfAaxOMZgyk5IPvT+lnzGXX389koRlynNlFX+l3ftOiX14uT43QT8UCtH8THfavCHy4T/1QSlDRBExBws/hk2YXc/whvqxiDNBrqhRnHuNOH9uvI1ue4KOmqTlB9GvJz5s0wVDOKJRuO6pr7Xda3Infk7lIeO2l69ND6hiAziiU1t6zzyR7TgqaKQa+MpA1tyzra5RpBXFoMYOBmw9SCpDne+BIKRxzWNverHupj7pbmsO4jdo1i5tpuG/LKkGrVlo++LpF98pAGp10+U2L6LzhmcoTZ3KBUbPv86PaCWBhYMVueXGr8YnSS1Bx3iNqJ6N94aFgJ3Cj50ZjVRhYXi5/rIpXFx7tQfGfTzyavTTskBA7ThvG9grBC1Bkm9dgZBRJl1fIN+1VbT+uwy4ay6+bxG3W2nY7Ou7aam5Zdl01FbYaTzzCjc5Z02XGT9P4r4SQ09ip0ssmBAgRqjV//qmDoODNAddaseKjw5oe6eRo/E2/m3vZPAFlEciuUNTdtkrNVLITMXpoeGfYvXmfOtzPcXyiU0Vgx1mDjZghG2GC0UwxyL/+vQb1okl9skRIM7+6WvHdKf2+e9bWfkev3APMPr2DtrgYu5uxe1h0EKzNzVhcKA4C9zCChob40TMHr2Qg90pPfnVchwRQDBRdNGpwSmmjvj+lTy8AGxvU90bdMdirg2T33behPYkfQBjIrpDvvWfT4NH8mhJJA5RwzMuefeZYhpL2Cm/usyvk1144ZsYfOpFoJhl48blj014Vsh6Nv50CDR7H6+tVNbetXcCjtFO4l/WisnyvVd0skbM0s/fyUvDGS+d6sTIlR7K2VvVQ7vHQ8FCHfXEJitfa3KBqHxEGNAXhvVH3qpoxyTtFBJbvktffsxmcM/fWQ44zOOjK65aUyKAKHgPpBdKd5wwaPAH6x0mnJWFo9rHw5FN8cYV8UiivEisPd9uVNoZMUMj+pIOc+xcYnHT1TUtmoTS1ALQ8tLt97AOpJ7sauRCm5oF36lU9UiJyFL8xgm3HdAH/isVF0uo2q9E509tkCLlBrferY1r/8hLOv0RgbZWi7ZVrBthzYtDsY+HFfkdKER8wJ8iV+Sjr7Crlvi67ZaakqMjpnwtnPDTEPaw3dKuPAm3Unm1HNCkYyEGcjNI56E8Pa8ZYQ65k0z71c02IG7GXgRW3rZkFYzqy9HxpYavJ4hZyykv+sH00vNLvXFutEFTYZeSDnPNoUMnuSALQzLDc9RfOrPKo5Q5QXcdS6Y5zhh65d6b5RrLpN8X7O7xs80P7+03aI932MNOCxc3U3bEtLpFt3qvqU3m9DCxsNaaNs4b0PPDNCb3MOlEBpVfp3VSrGtt+5Ug+PKSRJz+CPcZwVXaqqNWUWRRkuBnvfIoIvFur7AJEsv14XxfNDMs9Ung31KoEQy1S8kBaHlhbrdx/z6ayvzWa4hhzOslXQ0YfMojmStbXKVX2EF7FQq5TSry/V7V8t+xSHzILH+yypwe8NPmE5OK7VjuBuC8F4Z7b1jHoiMDSXbJuRQjnnqQfSfjaR8PrAy6EhACIAw0MLCmViduj+HMnrjOvhWYWcsBMfX/KkB5l25eKgQ/2qi71OWxhjChxA3iz7mR00uI2y5Y6VekNMx4RpWtwMkUXjWkl0oZ7NoeXvfLSmRHqcLexXnVj0OVjIMVydbeti/m0Hhn5YO8Dewy9x4yRSGWncs8b0oPt6gFA54EvjupGjMlNnv1aaDa5mKo2C9IrB3U60E4vlH50QHNzwEUkM+vFjE1Voh5kJ5hXBhL3CAi4LOTOPMazK+TYeYPBQffryMzikIU7o1C684xh2ICCsJ6pvR/Uq1IxyfYTOmMiPJZef4A0y1167lhTKSQ9Y2B1pby135FUYWP6aPZQKBH8OrFQ1/NAZqF06xHt7WH3XAvge/05S+od+lTeT/aqPm3UjBh9Oge9tJx3bgkwCwysqlS09OC4lyVpWHXDsrFBdW/EndQuTenmchv95RGtoNdoeoG06prZlUzWNk00sxwKv/n2BO+uFaD1eCO9QPrJQc2tl66kdn1KVJ5TF+sd9IDWC0y+SJ9Jk4v54YR+417VM6XH7mEj43zTCqTfntAP8hb+R3Ki5RE+Y5a2eGhIMbDqljXYgTuwVqeIJF8f1Y6akihsTBPNuJc93GFf7nfSHQdxoN9rxMpzzxyOCLkwHnK89dfILb6qG5Yvjmq/P224M+QOc23zMrD8hmVVrer+iNtFsevqxrUWASJjYEWl4gLvPez2sSbnnEum1TbsRsJGoMOBhkiysVZ5X5LElWSaaH4o87y/XyPQ4zywpFi6957Nxm+933poTnWAHgoefmBfsQvtNFILpFuPaOS2ECMZ5Lhjj/B19arrAy4vDTcJukBgADtvUIeqRKbak+Rdr8XprYeFhA0MLN0lb+lJYvaI6aDZRjDim5b0AgHzdVoe2H5Sn5AwiuSRexbvbPewovPGDL8RWASW75Y/14bXtLz5yrWhXtna7yIo+N5BIYceEVhTreyRztH4SGTWabNk+gPkAoyZ94ROK5DuvmIyJG3POmU0sxz3SOl5f59aQMGMgdVVig4wcx6As4jL6T3ay8CmLvvSMpk/GdKnx3UaPNy/7KGMeLdBde6ZA/ey79RHSBo8PtLywMlu3D0nIyQhx10ZcC6Poun6+oRuJGlFaaeMZruHPdRhzxJKJpKKgbo7FjcloHua3ty/fb+CHKfD6cYO2+fHtEWtpsdKT2SMyTOl54OD6kvPnRY3LzcHs7fx9sJcSeEl4xxRzEVO0wsdn6cq0gqBgS0HNb3KZK0qU0az1Ozb3qITkJhzJBsaVIOG8HUzcqh/4mcg5NwUq8Fpu0c4AW6fyrvlkKa132VwMouRp6WARJcikqzfp06qfuB1pkmH01uPagX8zzCwXqy8NegK2/u+zrOCfzs1NJPIeunM3iOsY27usUfLrRb8yPl2bAr0Kb3bjuluD7kGDWRmqVQYzRhYWi7vBrNQ+SV25/3f2j1s/iVjWuR7yEejND+0J0nfNTU0W11M9Q2LQOSMCGzapx5JpioxHiK+KdcwLHT4WBwV+xEIc+qVEZ8d1XYDolPmCbFsj4sZaGHkw0iPPcSTWl1g2vS0e9iCVmNapP8+BrJKZfvv2ZOk8poCmlnIjZp825v5KIlgyuahAN2aNus8Y45n+r0UCq4+9ABFiF154YqUfe+NuL9s0T1Tkief4iGJkSJovuu6GfeEbyLj6UOyr7F72PIblrTInL8Yik6vumGJHHVCujQFNFMM1yHxrIvMQisCi3bLHwABd/KEdPFtugnNwrsj7vf3q5FMyS+7dbctYTkVLvQ7dl4wDBnImjvWgCe+wEYFA9+dMczNBJO4NyqaUwqlpZdNuuSEokwBzR4KnujFw/xgEJVzJR8e1sx6ttM3AvS/UQnpm/PHfYkw8E61YkA/sXWGHHegw156zTxkIL8/rRfYSAU4NAY+O6pV4RMez0mlAMOi1OsCgpHQUx1etuyaWVBuTskHRa1GbXI896eAZpubKb9qigxmXLhzVHzHOrXsD0Ik+FM4J7NSXx3XTcgPGFi1S3Y/aFkjKHbPdXN9u/Wx0vOBn4UH4BvWwMCWA2qUyjqpbmmofgCnslG3XrouPnX0q71hK4ngrP0mFosuCMvNKfkg/2KyDJnxohlynBqnvziuCzeaoBVTcndIOMul4FD/lE/aPEz1TXNWMa+pEKFksh8e1ADLhNu+BqewC8bTj/GrA85VUXRHY1IHBtbXoSiVpIbz+BjYryXLrpizKxWZJbKvWnQvdJOnNDE6me0tOpTeN+INTCmYA7wZ8lvA9Q0Rpim+TtFcTnY/p14eFnL9Gq/orH6lWLmiQr61SXux3xmsfH2k8Hx3xnDrpWtvexRPtAA+MLCqWtENiOS5HbGQU1ip8mvmxaVjWdcyi2THe3FisqQmKjv14QF+bxDorb+BMnBLd18zJylpeby8mYVcn8qL0iaEGXhEYO1elT45Qv2cAmKiOuNj4JCBvD7ovtrveqL0hiWJPNfn+P6C8f6o+9tT+gmBJAwT48hYVaW4P+pOXrYBJ8mef+oIiV3NBZU3zLhggYsgAr3QedcG8iIEdx5DBQhr2izm5CR6jRfNDMvdGXKnRcYw5ko+a9HNSrLeIOq9YU1/6XmSTyES3HW3j61ts5bftN4YdL3rz1kYDIWwNoaqjSQPzQzL9am9H6MKEkECQ66k7IoxNpppCC/3O5CfRhjj49XkWaWyhnabNTlx+/GimWLghT7HWObwoOEtzJEUtprmptYzGChzoU1QUGal+nWkGqcFZc9hI7nznOH0I/xwp31FIH1RELVDxNAko/k3lbDoIp8HOrgDIlB90+yIyZtJBu65Y10kmH+QT797ohd3xbzDtCdrCmg+8dgRvgXMQ8mYxW2WJHVu2qOagz/UO5imLvsH+9WrKhUfHNBc6neE1e9hINc+4t5xyXjlpROl7Zo09Vky0Uz42COdNhQTHryTw1DCy6ZOe7CgH0lquwd+1axLi/QI5XnzOrHy+kCy0hZPAc3NXfbIIlEpuZKD7TZ3cl61SEq9oWdIGh5/hKNQHT6LZGquJLtSEWZvsnuYhnZb+U3rxX7ne7VKgWU6mEfyyFglVqKM34n2WUQJUgbd2VURfeB3/NcHJpHUn2rIjWKhPAR8nzfvVXcBIjQ3TsJmdWpojuTN82iOZyrUOI2dNoQkoxeBPbcsRJDpA5h8eZeMx7vx3besi/gMdCFyRRiU/choUPdrEuxPADk+GvxARHlz3kz2XoN6Up1gYw++NLKe9Hj/v/SQLu4AACAASURBVGpGWX3jIdo0rpkCmo9345FoXpgjOXDXOs+bY5NebqN3nNCHGJ4wUHDZFBBAvTS8+sL5wwXDqWeOr5qEPGHG0TABcQx8fFgDTIm0nvAJUugtR7UhAkbg0fkAu2DUxSygZiOY7ceFHIb51y81D+RfNKmTpgGbAprPPxVGc+V1c5Ic/GJD5A36Fvcw4luWRf7kGHxKvsVlsrNPcX9KF8hxegdddctSfs28v9O+WjAfRQBSgQYGvmrRvX4pkwAZWcgpbdQ3p/QC8iSPxfRS2dEuewzOxULuzrBrQ5RsdCkYWFwqa+xEOSMDD01sI1400yy88sKJGEOo2mVhjiT3nAFPjsIlsUOd3bu90Hhzz+lXV8qXl0jX7lGUXzMrx8NUKQb2yDzfnTMc6LIXXTKhag8ByMZoYAC7aLQlqJCZ39Zb3Gryu0MJdAADG+pVj+WeGOpti5upvG5GiXoFuy0Ca2qU11+5kme8jBfNDMt1Stzpoal3UKdzJB8d1SZJGT67+Evs030MHDGSF/ochzpsrc8d+qDyUHaCOXjf9u0pfdND+8cHhSPhBfFRd9eakFWR5TgtTlXdHl89BLGIvIVMMTw5aZbrBsSH+9Vh/G6i5yLJl43a5AnNHMfFi2ZkklV7l1cK2AKza5RJcolKLJ7mwt1IGpVhJoO29CzkXmrJz5u1JVfMte22SXwzAjjDQHqh9OIzRzw+QJMOXIfTdXetAobeoMdlVymuD8SKgDI4UArqpYJGE/4+afnS3a2m36LWJ+3PtC+IF82Q42QW6v0DEaHafGXFfrU32Z5c0x7h7P6QZjkbwarstMFBe4XycbtI9uAD+6a9qn0dth1nDelF8YkZIrBsj6JHRry+es7kYg7ct6HouAB2hRp5F4zq6G6cHgreeuncvFcVlTFjILtcfvYJnkQsx8+b/TuVHWf0kWqNlBzJqcfCpc9nF0mz/nSShs/UpPiuLee0oeSSqfW5w+AIETtZvujJ+wfUXx7X7e+wv7c3ipo2El65ko8aNcD8ulmwbARzohdfW6OMBWW+PM2NAWc0p180CgO543Ro1c2IPv/+sKY/InlIYucoXt7M8fVaGtqtaNihG8GUHImo1RTbPpTYTr8Rd2MhJzH7dl4wIgc0DKTnS9fXKi89dwTv6L0o9ZFtZaV8T5ul4roZlVoLo20EJvywW5gj2X3F9JrbFRfJtvY7Nu9VhXhiRDwxo0ha0mqKkVrJ7GL23rUuLYveeQxklcgqblmSKmZMQW7mOI6kYWu/Y/EuAdF5U4NKaZtw0n0j0JbsTvqzc2ftGq9gixRzku9P6RW2iVTLg3pyy371pjpVUw++rYmvGxIBJgGuiSzM0vNP8NcRmn0M1wWIzxo1qCJ3jIdiYMs+9b0Rd7CsH0w6t4+90OdYWSUcxj92ZwxsrFXeG3EH7ReC75Gw9hR4M83CxwrPu3sjXJxFIKNEevG5I2Gdeitu5KFgSw+OpnOc3S7MkWw9onk1XsCTZOC+e9bFpbLvLxibuvGsGLwtDG0isFqsfKyItzZmJDkZlnuhI789ZZhEG8hX0Txwz2ZxC2vVSBreGXK/1zCJgLSoQFpw0ahNmtEkMMApoBlynMpO5V8wCLzKGPjmlH5OpV4NjHC2GiQNr71wLtk1XkiPN5oU8Hspf+jTkJHcVK9atVve8tTx/WmhDUkYiAMfMSA6a1BNdzHkVctU6RVTRqR/b+ARfCOjUPr9acNQlGAtmoX3R4nN+9SxBZUUDKzaI7/c74gmdidwgqaAZo7jcC97pBtfslseCejsGmW3Yj4D3cTUoMANG1XYakwpAAt3jKbkSN6tV1194fRXGiBoWN9uSc+XfnFcd6Xfiaptj7PwSNqGncksljY+QKUkJh42lZaLZJsf4kviWAo21Cnbhl3RytXcGSXWo+T+MQWVPFTjdPsJ3cxUGJoamikWPpQSaGWJHIMIVN6wuIPcaKZC4bfzWobl5BaquRcvvGquvWvtBETAdXbQQGZXKxcXgMYevOq6GSVZDOWLUT+KwLpa5e1h9/SqDjMQ+eCvqo9adWnsuRjIKpLuuWsNC43hOA5yHM3Ci32ONYLRJRGjWFomO/sEn5kJnhqaOY5T21EYZmrk1kEElpXLH8q9SY4gnhmyJPIpFAMdXpagJirVMiwU37Ys3DH6boP6xiv32obJsBUEkdQ8IDpjAJZpus5Z3cx3gmrWoEeg3NIY+P1Bjdwanlvax0CVnRa3mVP9kYKhv4p8A1NFKE1CDAtiIgkdv7458FQvDVufO7IFV8YcyZen9K+pNgo86M1tsJDzUNDhYT1BCA4ezks9ubRCnpIr2XPH2tRtF8iEFg0l/LasqdMeWc8q+P7R2jTLne8TcLaJROHaPYqbL52B+7CQ89JQi9OX+51bmrQoZ02wF3/03mYVgtsjrsB9kt2YMm/mOE5i8n3bogvxb/SPBwOLi2TND+2+yWJ6kz2qWbw/zXLAQl185th323qpzwlMvjCRgKRhyVVzWq5keaX8cr/zuzMGAbEtGj7ywAf71PdHpilmqHH63UMaAftX8ON43bD4ns1DoVwwJKo8y0jNvt9y/X97xoAcryPzcQX/PLgtkuw8Z5jQRyZ/VqaDZi8FT/fiy3YJaMtTMVS186nSQ09zi5L8ESf5Cb95xolajcj5UyRZXCYrbjWNmkKkgpd6ciNfLHTHWcPVAdf6WqFNSDAmAm0MpBdIc8/qZZbpmABpljvxBJ88DgADHzVqe5ReHU4P6ck7Q+7DD2w7TuvHTN/xsGR/h0Vgba3yhS5ZjvmC0zgdNHMcSq/4w0l9WnBtxnGiZxYA0XnDqFEwjlOwD2/PSZrlLr9woMh2f3pMEVi9R3H22YSZg6DYfQ9sS4plGUXS5l78cIdNIBPaOCXDBQBezDjSaY/cmcVDQaOL+QKtqJOoIFLywO+PasW3rbuvmrcf122sU40pwuP44USH+eKtTT34DGjlgsc+TTSTNIoyXy+OCB3jjQVLd8mqbpjVeDTdTnAH3qo2ycDDnbbUwFqMgSVlsoaOCf/0IQP5+yOaNAxs2qu6Bzw/nNHHA68xlPBmuYeyadZH6gTEsrDqg1Fem8xiWVYpet/Qc/nsjxMwjfKTkAv4bLx5fJTKDM/uNNHM8RUP9twwI+u80AizK+X72q06/E9L4mAh1zbkXuq3mPA4WCdWtL5w+s3CHgqeeoyvRPs/UHzV9EhJrolMuCpETD+qMgqlxZdN08tE4aVgfbs1BZPEJaP7ETwNHPs7j4EPD2ueqZJVDiLGGzJ9NNMsfKL0fnFUmy6YOSEPrKxSNLRb/9TSIJkJpu62db1YuaxcvqFOWXfboh5P4ym3UTlnDZkF0pR8cPmF68qAM1pJagEGgSr7Ki71O4VNzDFmmP/K6GQ+RzkEJxczBB4d7QUTPC8Cq/YoWp87gwN4J+tdwr6fPpo5Dumhzj/DV0X3OMmuVOxrt+odf0I6DpYP8rs37D7/zHl32K3Fab8LMs1yd4fdm+uQ8Sy7WjFi8u1us0xBP5AHPm/SquwhCuD4UTBk9GXHZ+x4LTRjIKVQuu+u1eJKtn+R8NBfC828rZupbLMsEqod6KfL8gp56TUzMM/wfkB4tFM6C2kr7e7y2U6QlsOk5TCFXyYZazx3gBznY6CHgiQ9kfAY97L1d5Db5MKdks9P6PQO+v1jce3J/GRcUiLb+8A2bd/8B6MEcjcV5KaJOslLJjtO64E5RIcTD8USdc3rohlynJVgtp3SC6Q39ZMJQxXkPzmmax8lwjSviRpDwu/DUlqf/hvPi78iHv25u+efuR/+T+jo/Z/dj//Kq/yAJUem8cRBnfeLRk1qHli4c7TxgV1mpZZVKuLdAmJgU73ypX46ijl/Vy/2OTKwuI3n08A3D+Uvjmmfqb0h8QjToNRr/OR10ex/tNJOfdAck9PkSDLKZHX3bcbkJId8DQqE/hR6abzVM/j/uDv/kbtzgbsr4uj8M+LRv/BaDvtYYQ9YHwvdFAzjTgzkTvc5VvD7v5R80Csl7gMifk6ZkQ+Kr5sDPh6hPY7r08Eue3pkTZ1poFbwJ7zTzkcH1Q9GiNkN2kgMmjmO69f6Pj+mSxUcrf8kn7Tq4xZd63OHBmdodmIVjmtCZuAiSNL2FqJ/gTCOg5BNPPpzr67Mx9jDOqWwUUe77buvmc88xYPLLuEetuKaOaUAGYRX7FHILNTxXhw51sUgV+ArEVhZJe8Kyr8f9tBJP/pYmHvZNKE3DNw5cY2NtarWftes15ZNGJr9gP6kRY9UHJEedgHCiUB6mWx7i+7UY3zESLpJFsF60gmZkQtoZxsx+HeTQtnPsInHf+UziDk4Yety+2Buqym9QLpw52hGobT+ni2gfxg1U9+gtUuSkiv5qElrdtHFNywp8fnNpeWB3HOvVbb1t+Vi+1lDVFEwMDXTa/Dhq4e68em5jiR2YhOJZshxL/Xk9tOGjOibQsSNREgnn1Ei/eCAurbNcn+EkJp9Jift4uvnMZCbFaM4ZN0e6QdxQtkPaE//f6CdNwPzobBRG2uUflE4FQOfHtHifLQ9hNztITeKJBVJFuZIylqNuIf57JQ+TjRnlaCsSELh3oEnT9IgKPjZMaHKqtODb9CvUvPAil2yuttW/0gn6Ufyv04kmpHzK+TkNiqv1ZRdLkc5T2Mw6XEVfVaZbPN+dd4Fw7FO+60BV4+UeK71jhh9EpNPZpmhQ27xWY2tU4Kyu2sB0bPAp/49x46xZ4OT/uyQxu8rm5YPcs4ZXXyKKsIHmzrsmcVjbi1NHXa7h/3gkFDawiCgjAkhGNhyKKQwyjQgYXYx66NUn49L1InsFX8mNQ/Z7evvWueO12SC0ewHtM5BH+6wf7BPPWmsDqImhmq0IXd1Ecgslq6oVGxoUH10WLO1SfvVcd1XzTNxbG/WPehId3dE7PmCZGWBHWHXAu+rZax31I8wBnKX+51fHNO+t1e1vVnbJRsroKh30KWtJv9IM0qkV/udVoIvBz+p5wMfGFt393XrfUnMvpBqD1HQOTVkYwjKB+7b5w6UpxazHT9XgBxnJ5ibg67vzxqWITNvfCYoPyPnp3BhrmRhrgQtzXwjuf/mSP5b3qsnbZNv/sIB3bmA6P8PNH4jQBmCggNa7/1R15CepMYFplEj+XULnzYTQ1vAbkDoHPSyyjjIIgKLSmV9Km/g/tNrvNCRq4WC36YG3+B3QCRZVqlo7LDrHXOrkmzieXOA4h4KvtST++7aNterUJi7KD4ngWCqzUw7V/IPu3pMU2fM7s4FxLN/SdqOsTDERBdsB0PpkFWejw5q0BIkAuvEyj6VV2WnkH/LpC95juTTY7rXNxHfB+7skvhSKMVD8FzJ0jJZUw8+B4vdJBHNHMexkLO4mM5Rd8VV0ztiZWrBtHyy4iHxa1yzcOfowvL74Xx3MhkDXc+j2WM9TMOo7JNi4b1h9wYx78QskrzXoBrQkFKLb2nJZGjmBbDTT4W12gGWEU/j8oBzeXEi0My/kGvEypO9+PS8UuPp7etck1w0+3vGsJzBQXdI3OXXzZvqVchhfHquhq8B2Viraq7kH8oe6x5MWWj2o9lnOw65iQWXhtBBTuRN9FB84Jk/JXOu5JPDmmGDb8TsW1o8GZpzJdliZUJyUBx7hC8pjE/Yi0FhXg784ID6ygunk5wjOtVw5M8Emv3PpFloctFPFJ6mLvu3J/XZVYrUQilyu+EVdrHQFoPECflKBBYWjnTdnJ7c/J9px90AUWkIO6VETZultd/h9wJ1keypXnz5bj5BVK7k6+MoFn/U7EO5NGNLGrmSwquJ8W5p6LRnxdaZTkpG3mV5W5Pm/og7OPNYYOBzpDFzaA5g2kWycivVISEOd9q/OaVfJ1Yi1UeuBKV05zUbaJpn9liYM1p1+r3p6DSGV7GkIjCXVoL9ukWXVQA2iJUGJxKmcQ97pBNHOWL43e13J/RKG4XkZn9Gr2gwwkBqkfTqQGISd1fetiI31GjPmvQ8D+WvT+oeKzyeuZ1hYqbR7J94CFFOBreP1TnoQT15Z9h95KFd1Gra3KTNrlEu2S1HAe6FYOaOfLC+4ZL6/oIpAZroXUDptnFwXHnBcTYP+8UZw8KdoxvqVX63etzDHu7AF5eFoNngZCcJA8mVrN6rHjb6ErKil9ywZEwbzSJJRj5KrfRSR4Y5nwTe4bnTmB00h40f8mYXFqJdo4eBNoI1OBk1PqOH0Ul51DumhGbvYGYwY/YPSu9g74y4FeNptSLRLLVQFoJZXhXTgS5XUtRqnF6YSRhtOY7Lu2KeJHViNPaMgSUV8j13bNqYlXsinzhbZ+YEmmdr8GHP9foUnpF0d9c/ikO/8WdE/7+n8Kthd4j8iHvYxk7cX3V9YY7k2xad1EIRFNy0Tx1Vbkal1VGRSW+ClnXsgiFafFAM8SM1H7wjVp54hNs9E3vcyAHOqTPzaA6aDkjTrk7P6FJ39z+NCeg/I/r/o9d+nmLdQT8WbrpI9mRgFyiS/L5RM6hD0exbY/hpYGB1leLedJNmRPZjymjmUx1sOaC68dI5l/d8kSOdR3MITSDHkN4hUvYZ8fR/dz/8J+GYfriAePSXntG/9zna44GyP9istc+R7dfQicDmfep+jZeFXNktlLlLmDWKwPv7UVnLYCtMSC+n+GFqaMbAokLp9uO6XjmRsB5MscPTvnwezQKkg4yLxq97ZR96Bv6bp//viL7/SDz/T57+v/dKl/iMDaxPKfCbKKdo3nryjt96goFssbKXL1J2vMe+cGeUYBAMfHfaoLInLJhyCmjGwMpyeekV04jZ9zpee1GIkfTT82iOSmIG+mjKwBDPaWcn7epmfTI+QWbU6wW/gBzXp/F+fJj3mMNA1i75rUGXj0GZj5HzvqCPYQGovG5OVCFAjuOwS8Z0oTw+ISsD35N365QnH81Fk7UgbSNPzqM5kiYJPiO3Ujn+ZHN8hYeWHtxDwSGjb5mgWgMDmaWyQx32aadnjux98XVLRmRO12A9BgYyi2Rbj2huvnS+TvWJyEfP8Jl5NCed4HaCrW2zpvkrtIpA+VWzw8OaXMxHjRqBBBcYWF4uP/fM4U9anpDO1bTbYgTVp2BgxS553gXjY7knWnGThHRjBm4yj+akE5lmuQvPHEvLx4zbnxxDpW8JGpZcMQqEn2BgbY3y7pA7gXlWGx/iiwX9NHjz5IoKee1t64jRN4ux1omag3k0J4qSse7Tp/J8ekCNfGJFYHGlfMiAtAUX+x2pkZVHMLB5r7+cdawbTum7thFihaBHKIYs8C09uG48hc2UbjsHL55H80xMitXNVl4xj8X/iiQXn7toFr4ykJsaImwoIvDxQc1LXiedqJ4Nm3xrqviVIUhWTi+QbjmgvtrvdCKF4VvyN4/mmZhIFnJXXzj94UwLd47uuGj0UhD3svmXjOEWQQwlnJW8dpHW4FE5feznJ0PS92QWIY1y56g7UebG4MfNYnsezTNEfIWN/u6UISUfpdTIrlHKrEhMPdJlR55VwXo6DHzVkuAKTpDjTj3GkRsd74OaUSDdflL/XEO+BYJy2OTNozmMIMn66KHgmT7H6vFsXcd7cchxjxSe1dWhtdUwsD3RaOY4zuhivzpnWLhjNDVH8ukR7bDp7Sy8O4/mZME38r5KO51zzojKp/KVmqxuxkWyOy4Yw3jzDyd1065sGfnQwBmHl20b9Vx64bC4J1xYA9++HY15NM/cPNIQtr1ybhQrUzGwuEx29aXTR8Pbr9zpqEjKeKQTBpKE5pkb5+w9aR7NM0p7O5+rfDEf4rr9lF7voA0O+lOU+nbcZwMD353UqaxvpySQbFrPoznZFA6/PzD7th3VpOaiilUXnjscJHv6iSOQCSmFl5sV82gOJ1tcn+fRHBeZEntRF3BvqlOm5Ei2NmqGDeSo2fd5s25MesbAl806+bRqqCW2k2/i3ebRPAuzhnJ8DbhWVSkyC6Tl18x6B33x2YQP9O+PaBMVETgLY5vVR86jeXbI76Fg8yP8HbEyu0J+sd85ZPSJzhuRsVAE3m9QP1N6p10UYnbGMzee+haiGfcwwwbykcLTBYjA8VTpGTFTggH0NIQuH2txM1qc1uK03kHbCIagYLKLw9kJ5uQjfJVY+ftDmk6Ju/W5E9V4xcDqGuW0aw/PDVAlrBcUy2lxZtjoGzKSgUON024fHDH6hg0+v98sxXIKO/VC440XzbiXVdioAb3vqZr0H/06UmqlTC422bM+Jdr4GHh32P3dSf0H+1WbG1Sb96Ljvb2qLQfUP5zRP1N7wu5GQ/gAELW3rYUXjTvPGnaeNeSeMxS3GsVtlk5AJNAtM+y5/o9Wgjn9BF9dq8w7Z+iQEOXXzFnF0mXl8kvPnYIvnuBN3uKTRid98L5921Htl8d0Xzbrvjym29qkqb1t7dN4d5w3bj+uax9GJcfVOL3rquWTA5q40Cy3Ud+c0H9Yr9osVm6qVm6qQf++W6PcUq/65KD61qBrdqtdBE8nQcFD3fgyf26hQP1GvrGyQt7aH57WjWJh3T3b8jJZZqE0vQAdGQXSzAJpdoX84AObjUhuuDLkONzLXhtwfXJMW9xquvjc+dkRbVqxtP6uFX9zIqWD6Z/YtsFJ77pqWilWppdI0/Kl6SXSpZVyUavpzoh7pViZhoFdrUY9Tl8fcK2tlKfkSOJC87nnjjS/lX88hTjagPPHwhzJD+cM9iTPevw0cpJQ3GZdNJ76eyJYiC9SfeIJHnYrioVVbZaMsEAjvqLw3rvWmUmD6aFgFyByzhvEt60HOu3rapT5Fwx/UkUWwyYl8JFhocJGDerI95q0KTtHd543dAECWKj2ITeqYp8rWVuruj1MFF0yZRZK40Kzh4Z5raYJY1WQVyHCighkVylU9rmi7cc9bNUNS2bRWCL7CTTngWW75E29UdAclgpoZtHMcRzFwkE9WX3HWnnHktNq2npM91z9pgeCBDD5Wg0IUcGGbWcMKTtHd7dZ3XwVxusv3Et2owTYqQXgy5P6NdV8gY54ePOIybdhnyoqmvNQZvybA+45sgfHPUw0NC/fJT/2cI6i2T/hZhdzts9RdN38UYv+2qD7jUsA8FqwjfnjbWcRmkuvmZ0k66XhpWeORaWylAKAjkKQUgRQqjcMTCJpQI67MeBKi506O1dSftM8R6IjkaRxyzphWgtaSVbslkeVNGabNwem0kvBPi0pvm/f22kzzfHaioFOJ78RjGa3jz3Ri2fukq3fr15Vp0Q5mfapt57SZxZKJ0GzywerbllSgx1wg/Axto6LwOYGtcoWkl8++QMUfgJBwYNd9qXBu8BxEX9lufyS0C4Qyc1zBs3+UeEe2CEh1Hii8sMI0+oNOhuG5pZu+6JSWf4l4+6rpk371Hvv2w522JYWyyZBs8xKvYcC2sY9vCKhzIvOWaWym68mT2M1A+QjaXhr0PVls3ZjvXJ93dixsV65sV65vVn7WBmuoRvbBc4xNPsJRc2VQoozMG+TPOLrC8aMPFBx0+IioZNkmzrwJWWosttLA/lYTWpx+kq/c2W5PBaaWY5rG3ahTMOxeTP/bWWbZS5sW35L8WYlmAEt2SMjHkjc9/mjW0o8lBEvtWRkDZG5jOZJZvhP6euWJ3jueeO1AaePgQQF2wbdxVfMbUPugEHghca7+5o5Fpq9NKy8ZckM017lgZTIVCO5ks+OadX4nBA2pjTL82ieErlm62LcC3UO2l9/kYWck2SNTvQxEKDrpaHBScdCswanPzmoCROal5bJNu4dr10SEDxEYFmFrAPMCWFjShSfR/OUyDXHL46F5muDrmx/iYMAavPAhwc09fdt74hRnd0JbS5fTKD2rnXamg2Uh5yGuIfV4rTMSknMPonZByw+HU7jHtZDw8BbGI2gkNfa+hgY44g0wk8DzZDjSAa6SNbhRR3GPajhItEKSAX1cvwy6PBOHC4S/lbDPUbEP8NyBAUdJPqJnWD8v3VTrOB+kKRRfQKHF9r4K90+GChS6KcSoioFzS5GbhsjqdxGmVzIC0Xwhv5fkQy0uhmlnfbPgtxKGZ2Mw4sqokcjfuzzEHJeGiWZ1+G0fHxypVZK56BxL0ygDT8qmhnI7b5mDquXkV4ozT1v7JZ7v23RowI8QShPEaHQ+WmYURjImd3MU5X39GO8ps2y86zx6xbd9mNadLTodp4zVt2wnH6M98oJo5OJhGOAjriX6ZETN146ox23Bp1PlZ6w0mBTRTPkOKOTaX3ubH6I77tvr2qz7rlhqb5t2//A1tKDDxsn9g52gr3Y5zj0wFZ321Z101J921p313boga1tyOUJA934GBiWe6nznnyE779nE9+1Vd6wVN+17Wu3nX6C92u9YT9yeNkbL11Huuw17bY9d6w17baj3fb7I+5AAju3jx3Uk2ee4Luvmr89qd/ejEj6zQndrivmll78oZQwu5gwfNIQjpp9rf3O3dfM354a+8nXLfq8C8b9923tw24NTk3JsMCTi34s95x76qi5ZcUuGL85oUcz26zdflKff9FYdcd2+pnjidJj5MvEjFNimv9HRbMWpz87qEkNxisqES4/2o1rHYz4ugUpOoJ3hyKwZLesC4yV442zO24f+0juEbdZtx7WrK6QLy6RpfrVC361Wh5ILZBmFctWVcg/PqQpv265LyHC4Oh/EAu5lzpyx2n9hmrFhhql4LFJrCxqNcnHazj4fzhVNDMsbO62r61UZO+SLSuTZZXKskrQv8tKZevrVI8VY56cEHKDOt/aGsXyMtmSkrFrlpTKlpfKtp3QWaIokj0UbHxgW7NHvqxUtriM/1UZaq+rUtTdtxGhVVAUNnp7kzZ7l2xxmTyLP7J3ybYf1b7UorrfJid99gm+vVm3ulK+qFiG5nGcpIuKZCvL5R8fUNfdsQ6bUGp0/5+PgTcHnd+eMqzbo1hUJB3bHfFTnFYgXV4m21SnLLxkfKTwxAlokoG9vYPgYAAAFoJJREFUUqLsivmDA+o1lYolJbKxFP9+2OSDjCJpVolsVaViywF12VXTI4Uncps+1rn4/ouK5g4psb4qPDj+HbHy3oibZuH5x/jisnBdR2qupP6BPX69kt3Dnnrs+OiAemmpLC2I3CEsf/x8Wh5YXCx7t17VcNcamQ2WYuD9kfEik6Fv4NjdMJCWB75q1o2EJl6ZKppNLoaXsibA4b//whyJ6LzB4BhLusxCrk9FpvrDVwPvPF/QcvNhjSkKHyIoKL5hSS/kM+EG/WpRAai5Y3WFohlYqA/r+KKagfGKwNpK+a1Bp9HJ1LfbVlUpUKLbcRBPUJU/k5YPlpXJ8s4bJCaEfh8DW184N9Uqkeo98ifjs7CoSPrRIW2PIlzRGQk2k4vZ/8C2oVaZVRyzPOT4s7JKZFsOqI8/xF+ncLcwmr0UrL1nQ8GYAZrmgfR86VfNumGjj+O4h1LivXpViOjMK54/OaLFvXEFuNsIpuaWZVmJLC1SQxKYnohGah5YXAiwVpPSHlIUxMfA9iH3OrEyuMMT88ffJ43v/2uiuf6+LVzEQgOXZNcoe+REYOUeQ3MoAVF/ciXvN06CZlRvLnTgWQXS2rtxoBkD2WWy2nbb3ru2JaU8hkLvE3bbFD6NfsUVkxqnLg84N/DB5OHXRNwhDQMb61S2mC5+apzKOW9Y4n8tI+4Q7RGpGFhRKiu7bFKGrp+Rr0q0M8JoVtnpH04bwlJYLyqSVlw3+8GqslO5gZzEQd1dUSZ/opr8xXWTbH27FU1b0NsSbZDh50XovRK1moLX65lB84jJt2I8vctEr/jafuLbIQ53iUXzonwQF5rzQEahdE2takVF6KIaNEET3fafFKHEiuXXzR8eVIdNd/iVwTfZOSput0aD1G/MVXTZnJkfKogG/zxGGwNLSmTVN61G53R8cYXR3CElNjeowsazfJfs/LMxrx2XDzbctUU6Xmbmgdr7tmjj9J9nWBQVt9xfCiRyYBhI2TmamitJzZWk7IxSaF6EfE0OP7QHhD6ahV0SAoWO5o5Xzoy482vyZpKFVXesAmZRDHx0UPOIr/8QGHhi0Rwvb/YPeXztDpu+qB/zecedqayQKSLwTq1S7xRYhCkWNnbZlxUL8SkkaIGUHEkqf4xVOo2YphQRqkp/shflbA/QM86GAJoJHzzWZc8ul4eMHwPrxIrnmrHy6BTLXRtwvlOtCBM2UvPAF0d13hjqH45T2qkvW3QC6zUGMvLAhjpV0RXT4U7boQ5byXXL+/vViwQXLBFYW6sM9IfluFdG8odzhpVi5VqxckWlPC0iY/HroBly3FMVuUYc4UuIgcWlsoZ2W1htv8SiOX7eHDZl6RhYlA+WFIBFeWjbEPJt8MfAComB1Dz0k8UFICsfpEd7MUTIbe3WSPiOH3LcExX5QWTiU/5ZmYXSjQ2qomvmAw9s+x7YsCumNWJFenA3Au1cyWeH1P1qTyxdphDABdCsstNFl0xoVxu4O0+Lb0/r7Z6J16Vf6/3scLjSIyUPvFOp6Oe31UKP4xiWO9PnQNujAAX9T8FAVpEsr9XUr/W6KaSU9bHQTUFgoWraLEsjdpyob7mSgismavzN8TFIseqP7bvc73inNny1fR004yRbddMSWXUvLR981qR9ogp/fxOL5qnxZp6e6QVgdbUCazU1P8avv3Qe68W/aNYt9m/IgqY1eIpRkv0S6RfHdA0d9ssDznPPHfmXTdmV8tQobPvwQ/sEGvjJxr2s+JZ1iVCoxLJSWell87CB9NCQZNDkemn40uDbec6Q5a86ENwrDGSVyg7et001CiQczSzknio9nx7WhIwzD2RgkkOhzsF6B1Ps9/kP7kceWFosPfowqveXycW826hZmBOqq+bfFuyCUS1UM9TkpKuu88mPQx+UgoGMUtkrA9qSh/31yIh3G8J3hNNGMwu5h3KvwBYTAysrFSd68EilYaLRHK/c7J+1tHzpJ4e1d0bcwYu1jYCFrca0SD8FP1UxkF0hP/MUn1CYc5zDy556jK8KU235rxeBosum4JcYQq5PQ37aGI6cFAxkFcuKW01aIceH37xeReeNYWDzf/ziqHZIT06JPYej2e1jzzzBV4cNAANLiqR9WqTNCPy5ffBoFx4ukOSBzEJpwUWj2S0sxT+UEymRkgMGsvco7g0T0YwjjxWezULrV2qO5FC3PdClQCOxaLZ52JJrZhSrE/o6peVLvzuhHzWFkMXfh8SieWqSBgZW71Gcf+qItMv2Kjwr9ghXRM4olNa3WwNOPP5RQI4bNSEtvoDeSQR+OGsI1l95aHi+z4HCQEJX3VQMvFuv6pYS44toYJbGGt1Sj0CdZgysrlbeGHBHjiL890Gfw9Gsd9AV18yLwiSBXLCuXuUkQxYWmuXuDbs3hak885Dg9eFB9VP1mIQd9CzUrO+wCVR9FEm+PamXRU/wY3TQFVfMSBEbiqeUXMlXp/SR70Bi0Xx3hFgbqfvDwKoK+enHuCC5E4zmgqnwZgx83YzqH4dRHplU3Kywf68IbNg7VpYz7FdmF1PbZsmKVDWKwNcn9FZiYiNodjHiNivSDIaiOaNAil0wxjD12Tzs16f0Yb9KwUBmiezQAzvumXhEWN8iP4agmYVcv8a77Yg2/NY7JbmtpsgfDxl8Xx7TRi5eq/bIzz3DBQOBvohSkbfhTqwoZYKCLb34WCGcYECLwMZ6lT1iwAlEM+5h8y4aw935kfYd7DipD1SHDyNOgtEct4YuJQ9kFMuq26yCUfQkA7ef0guqZfIuGgVLwzu87PGH/AocitEUEdh+Qm9yTUBNbqVyzxoQGEKvzCqWHe60CYLBTzQawvp7VhQTFfxD3vOnuNU4pWjfEDSTNLzc71oVthihZ0iuvnSFTRjHcRY3U37NvDh0v+iXk3ZdNUeqDL0UXInclUI31xjIKpNdeOaIMWCKgdcHXUhyDXZ14g1U2eXy4Yi1PoFovvnKvS4sYTj/3HdqFNcHnNEccRKL5insAjGwXChgzD93DMthkQHLPG4a2oW5idsHzz9xIEgEQ423lAWjmeX8fFBAaF66S3Y5IuQnDEutL5yZpUFpf/0MCwPbj+skJl/A9h72q8iPIWi2uJmam9bwnbsIZNerDELabJrlzj1zrKwI1eXlgdR88MUx7aA+fH9mdDIoYi8CzdlVirYhVzS5iuM4BnJdUuLDhgjrYx6yHvUow6WaRKH5hZ5ECbUiDAFZxbJdV00mIZr4SZxYNE9Bbubln0v9zsiZRmRkuaKrEeH3GEgpkjZ14y5ygtEGfk5Q8MJT56RoplmuGxAf7VNHgn55ufz+ZN47PXLPkl0oBjtEkhRJPjqI5J843UI4jgtB8ysD+VmTNpz/5Uo+atH168lRMxV5nHkasWXkWdd6sfLaCxQpEKALx3HA4kO+/xFv+Rqx8u6oO/Ta4N8hND9TeT47pAn/bR5YViy9ORS+biQKzZcHnO/vDfWF4NnGsl3yxofCErO/34lFc1b8cjMGVlfKW19MDc2pxdKjPbjbN300+xh4Z9i9uT6CViLwm+6/NyKALWR2Oe6Z2ousaRFo/mC/+qnSG7kvCvt54OMEmlmIdnXIchuBtiVViq1Nus+OChzv7VNnRtaiw8DSUlltmyUsu8qo2ZcRJirwa9baWoTmGJ1mINen9mw7LIDmpUXSKy/DJy9RaO4AxGdHIlbPPJBRIN15xhAj1iaxaJ4Sb54dNNPw5qBrY224QgOlW9kjfzZudAvALqwxqCcFlC0iyQf71U+UZAxghN1nAs1Okj1yz54aiTae16blSQWPMJfRsZWCNyl924KEnuDnITSj+qFhCwqy6sWF5saZRrPBSe/vsEfu01N47WzLk6hq9cSieUpy86ygmWK5B6PElsh1jEdzX3Rrmh8efWqvP9tLmKQxfTRLLb7Pj2oXhvngBysQptTm64S2vQqRhg1ONjO4xof/hiKwokpx81Us3kyzXI+M+HR/hFiWB5aXyDpkyZKb+RAM6jOhtygVA180aoeiFHeKgeY1DWqDQziA0u8ROn0fOp7vzAqaaRa5VX5yIGKCeEmjSx4+QcE8juO4Lqmw3Lz1iLZfO3W5mWZhxyif2ytMzJgSgoMvxsCiEtnBe/Zgr1yChlkRW8YUvk76lX5nwEYdNlSO42iWa3vl3hCp0xCB7F3yQUPICsBxCPoJtAWef+6INBKlYGBxifTAPVuwvS3Qcwi5EYNPwLMKA6vFymgROm8umsdEwSZtZAT00t2ySFEwQCh/49qgK5WvBRPCm1EJGP2Iceo6DSfJHuq0C5R9DgboVNsYyD1tCNPIbjmsCZc0MJBSKG3qsAvuqf2jJWl46sl44fXgbojA2jqVJUiH778+sWjW4NSO0/pIlXMKBn5/SPNMJeAcAzlOZqGWh+k6+Z5nlckGtcIG22honvtyM8dxUpPvhzMGFDoUyhCzSmSN3fYYWjbIcQe7bOg1CP1hSj4oaTXpxgMgwl4AwY9jcrMOp3ac0Ue+WOgBcR7BIPO3RWB9rapDEuJpVX7bglwBwy4WSfLOGtTRfbTNLqb6hhlV2gsdcKoIfHVCFxntklg00xDeeuVaWRWhQuId6PbesVqEzPhGB73+gDrcVZAn5oVnworqaGie+3IzKrDpZPbcELAaZuSDwlaTIIn8iHRTbGGrKRwSGEgrlNbfseJxp5/98ccfx9DcK/dsilSvYCgQcLNY+d5kx7s1isxI13sMZBbLTvXgwXapDgkRnl6W94ZbVa3olBCCmkUIuX61d2skU88DqTmSfV1J99PgOE7voEUXDMhdIfh14qH54X71g1GBDIg2gvnurCFyH7IwR/LVCZ3g7BIUrL1liZSb3wjejIrVPsZX71GE4TI1D2w5oHmqEi5O7ze7bNor4Gq7skrR+twZFg0pyJL9J3/66acxNB99iKP9WfBU5YH0ImlVm/WxiuzTTnI8lBMfH9EiX+wwppsrKThv0AQ5T1kJVljYwMCuK2aVPTiGH3USQs7sYvbftQm+LcvLZL9VDIkcYWJ5s//+vXJiHQoeCx0j/8buumqJ9P4jfOyRTrvgcpdaJG15jJvdDMWEZFbwULCujU8JGUrGRXNe3+wnUZ/Ks7VRE+lBuqREVnPLoneEW05ZyOmddNlVs4CYwdfmGtQF4jEiJzn8zC+//DKG5oJLRjRPwWgWgexqxROFJ4ZRI3C/MVN7pHZPJNmCFOCegNhEQ3i0BxfI4YmB5XsU++/ZhvWk1c14KJRmAfewErOv+SG+rkbApp2CSfIuGb1CEQrJQLPbh6K/0OsaTCX+47pa1Y1BV5j7EcXAB/6NddgLwP9kRY2y7q7twSjxSk8qLJTc4hs1ko8U3p1nDCjxexia4/fTmCXriR8JVoKtvmUJCyf1j2V1teLwA9uI0Yd7WIJCuUdwDztsJBvu2ZZG5Gzxuxw1tFunVNvg119/HUPzwXZ7ONfJlWxr1gr6pAZAHNxoHyUiubtfL3vuqSPYziQxU9uOaQVgkYdcbL87pd/bbr3wzHHhGd7UaRedM6zxu0mEYUgE1omVjxTCqp9koBnZMq2+1XydvzC0peSDnAtGFR7yYkHIKa3UzjN6wZEilcgu+fsN6m+O63LPGnae0X97Qre1UbsiUufDB4PEGReIigDNhi3QjwTeEdzz3t7wGLwU3rNy1R5F7llD4wP7uSeO808dhx/YdpzSo5oekW+7CHx6mI+BELBOBoNuov3zzz/7ofzHP/5xgdn9U5gr3MIcSV2bJZBqZOJ3UVpSC72xXhW+6clDsvzua+Zgh0Av8m3iHVkih4GBlALpkl2yNdWKNVWK7HJ5eDi+n2mJQGaR9GCH3R0alB/oWpLQzECu8SGOxhjxai3bLb/2whm8Q+A4zu1jLzx1rNwjNGH+gfjvkx+U2i/szvxlb8Qu0E98F8nuu29bGulByq9IGYXSFbvlq/co1lQrlu+Wh+9DxmmSXS5v6RH2GwlMcVgjwJgRmv/4xz/eeuEJZjkZhdJ7Qyh1RtjPon10+mBRKy+u+PsU9O/WJu2AdiJMAXKcxcUcum9D8VGCgA7TogTdys/nMouku65adEHieFivkoRm/8798yZtZOxMigg5WimtIfoVFnIKK7X7inlxxJ4kmNTo3RACceCaN2IXGJgCHU6XXTaFu8gHJnGyyV1SJqu8YYlfKOA47v9v71p/2rai+H+WjGkaoDasrVapm1pp6tf100QgINotBQJZQnmspVuXdayiQrSBhMC68hgIUFWSUpBi5+G8gNhxjAMxxMl1QuhSXTtxgu0k3YdpqkQUydeP63sePx/fe8+5x6enp6JhLqK5UCj8sUwXJdiGXBnAtpUWKYlESwoZwD1ZpxQX/Gn6/FZnorKDmwFcmGLNc7Hyx6NEbmsUeK94o97bbSP85BncSIj579CcAZzVRTfJ1ynq4Ovi8eqZCRze7wPehI+047twFCt/dGswW3Hqsw60b4ao9EPxIVyy7DC8/fsfexqiFjxEqnsqqtAhrmBKfFbLBR0MUTLOxjyEdDJAvLO8IA7+REBD2yz8HK5kQ6dHpUU6+cw98so1jrwKJFvgKm7pqL+hyzMgC8YXAD22St0cDUHHhGQMKmG7FN1x1Yw9XKRCVJ13xr9Gs6y5Jr232jepdmi2a3JPwaDq0Bv3g64II3mdpdJga+eodxrXGHxqHSKVj6RpcVew1m2Iug35/I7n3jyZLOZRKmqgmOtIJu36aJYEL+jQ+jF0SrFolfHNElQIyrUsU5eH+Bl3ed9MZJMPO1O3ow065MZPQcsKVO6HTDwILUqssoDhMpoLhUKUzukn8SdrVLXkfxLSxV08kb41tqNuQ1WtblUrAr0kWoQvu7+1RFBc6qIEgKOZzEaQuTdPXhsOftoJKxaV3V5KiwHvhqg70RYz1m3HV71JiqmZZJOnRkCzim9dJOOTdqRq5q4OgWZ36WKk6YeqaE6lwUv3gcYUEC4Wq6ha3Q0d6PAiWe5UlUSTznC7+2nHZuK7ib1GHhmQU20J2SKzfAF2Y7SQ5ca73q8ehgy2qNVFewjpEAGieSgoiLd4N75iHTRboyWlFBUEE1zc9oyt7SvO7Bbjm3t9QkOlum5Vq7sGmoWp1WQKvA4y/TPEF4MBNVQufDKhfoU/72eAlHegVwcD5jliI8TQFSmZS8JT3p6cnFT2lUvWGG7PoFk4kX/3z0k+n8vlstms8v1kR2Fwwt7x1CZ9/2+y34Hr7bjBgY8skOMb9BqWpKpMHQIAE8iGKda+SX9vx79+FNaYsOYeX3OPr8WEXf81ctuGP3fRvhj8rvAHduMpJrPsPfxtnTL9Sehn8Lsz+MgSOfF63xU+lg8csXhq6u3B0CL54yykuXeWeLAct7polEhVCx1hUsAZZiad+yMLpIHn1PQyNroSn3AmNsKMop8AcFwGcInjjC+Wsm0f9jiIm79HvnwQ0hixi/3+5m7fBYP/khm7Nhq69XTX+CI2vZXY3j0ik5kDFubcli9dTrJgPcCMv6KGl0ieR2J4ibSsU38hyWqf/wEc54mxE86EqCDji9gvK/Hptwksziq6rtKAi9DsPHr4aI0yzBF6O26cxQcXyGdvDjZ3jqqotIwMAGCGOyzOPnPRXdbo9Z9Dl8zYBYP/Yp//ykDgG0vkjg23byUC8fQhW99IZbPZXC6Xz+er4VjBNlfC/Lx8LoGPTgIKtvmj4+Gc4HMJCBJ4D18Dicl+7+/QAAAAAElFTkSuQmCC;" vertex="1" parent="1">
          <mxGeometry x="336.8" y="1850.8" width="59" height="44.93" as="geometry" />
        </mxCell>
        <mxCell id="cL4u6Sjq3oYUA9FWX9du-3" value="Aoikumo B2C data" style="html=1;verticalLabelPosition=bottom;align=center;labelBackgroundColor=#ffffff;verticalAlign=top;strokeWidth=2;strokeColor=#0080F0;shadow=0;dashed=0;shape=mxgraph.ios7.icons.data;" vertex="1" parent="1">
          <mxGeometry x="198.5" y="1850.8" width="40" height="50" as="geometry" />
        </mxCell>
        <mxCell id="cL4u6Sjq3oYUA9FWX9du-4" value="export data" style="rounded=0;orthogonalLoop=1;jettySize=auto;html=1;entryX=0.977;entryY=0.499;entryDx=0;entryDy=0;entryPerimeter=0;fillColor=#d5e8d4;strokeColor=#82b366;" edge="1" parent="1" source="cL4u6Sjq3oYUA9FWX9du-2" target="cL4u6Sjq3oYUA9FWX9du-3">
          <mxGeometry relative="1" as="geometry" />
        </mxCell>
        <mxCell id="cL4u6Sjq3oYUA9FWX9du-10" value="generate" style="edgeStyle=orthogonalEdgeStyle;rounded=0;orthogonalLoop=1;jettySize=auto;html=1;" edge="1" parent="1" source="cL4u6Sjq3oYUA9FWX9du-5">
          <mxGeometry relative="1" as="geometry">
            <mxPoint x="120" y="1540" as="targetPoint" />
          </mxGeometry>
        </mxCell>
        <mxCell id="cL4u6Sjq3oYUA9FWX9du-5" value="MedicalAI DB" style="shape=cylinder3;whiteSpace=wrap;html=1;boundedLbl=1;backgroundOutline=1;size=15;" vertex="1" parent="1">
          <mxGeometry x="89.5" y="1610" width="60" height="80" as="geometry" />
        </mxCell>
        <mxCell id="cL4u6Sjq3oYUA9FWX9du-6" value="submit data to" style="rounded=0;orthogonalLoop=1;jettySize=auto;html=1;entryX=1;entryY=0.5;entryDx=0;entryDy=0;entryPerimeter=0;edgeStyle=orthogonalEdgeStyle;fillColor=#d5e8d4;strokeColor=#82b366;" edge="1" parent="1" source="cL4u6Sjq3oYUA9FWX9du-3" target="cL4u6Sjq3oYUA9FWX9du-5">
          <mxGeometry relative="1" as="geometry">
            <Array as="points">
              <mxPoint x="219" y="1650" />
            </Array>
          </mxGeometry>
        </mxCell>
        <mxCell id="cL4u6Sjq3oYUA9FWX9du-7" value="submit data to" style="edgeStyle=orthogonalEdgeStyle;rounded=0;orthogonalLoop=1;jettySize=auto;html=1;entryX=0;entryY=0.5;entryDx=0;entryDy=0;entryPerimeter=0;exitX=0.495;exitY=0.002;exitDx=0;exitDy=0;exitPerimeter=0;fillColor=#d5e8d4;strokeColor=#82b366;" edge="1" parent="1" source="cL4u6Sjq3oYUA9FWX9du-8" target="cL4u6Sjq3oYUA9FWX9du-5">
          <mxGeometry relative="1" as="geometry">
            <Array as="points">
              <mxPoint x="19" y="1650" />
            </Array>
            <mxPoint x="-81" y="1780.030303030303" as="sourcePoint" />
            <mxPoint x="114.5" y="1560" as="targetPoint" />
          </mxGeometry>
        </mxCell>
        <mxCell id="cL4u6Sjq3oYUA9FWX9du-8" value="AutoCount B2B data" style="html=1;verticalLabelPosition=bottom;align=center;labelBackgroundColor=#ffffff;verticalAlign=top;strokeWidth=2;strokeColor=#0080F0;shadow=0;dashed=0;shape=mxgraph.ios7.icons.data;" vertex="1" parent="1">
          <mxGeometry x="-1" y="1850.8" width="40" height="50" as="geometry" />
        </mxCell>
        <mxCell id="cL4u6Sjq3oYUA9FWX9du-9" value="export data" style="edgeStyle=orthogonalEdgeStyle;rounded=0;orthogonalLoop=1;jettySize=auto;html=1;entryX=-0.051;entryY=0.438;entryDx=0;entryDy=0;entryPerimeter=0;fillColor=#d5e8d4;strokeColor=#82b366;" edge="1" parent="1" source="cL4u6Sjq3oYUA9FWX9du-1" target="cL4u6Sjq3oYUA9FWX9du-8">
          <mxGeometry relative="1" as="geometry" />
        </mxCell>
        <mxCell id="cL4u6Sjq3oYUA9FWX9du-11" value="Also consist of new web data such as:&lt;div&gt;1. user account for authentication (login, logout)&lt;/div&gt;&lt;div&gt;2. role permission control (who can access to which report)&lt;/div&gt;" style="text;html=1;align=left;verticalAlign=middle;resizable=0;points=[];autosize=1;strokeColor=#6c8ebf;fillColor=#dae8fc;" vertex="1" parent="1">
          <mxGeometry x="-380" y="1620" width="340" height="60" as="geometry" />
        </mxCell>
        <mxCell id="cL4u6Sjq3oYUA9FWX9du-12" style="edgeStyle=orthogonalEdgeStyle;rounded=0;orthogonalLoop=1;jettySize=auto;html=1;entryX=0;entryY=0;entryDx=0;entryDy=15;entryPerimeter=0;dashed=1;" edge="1" parent="1" source="cL4u6Sjq3oYUA9FWX9du-11" target="cL4u6Sjq3oYUA9FWX9du-5">
          <mxGeometry relative="1" as="geometry">
            <Array as="points">
              <mxPoint x="-10" y="1625" />
              <mxPoint x="-10" y="1625" />
            </Array>
          </mxGeometry>
        </mxCell>
        <mxCell id="lBTxHlBFO6vyjtmEhLMX-2" value="generate insight" style="rounded=0;orthogonalLoop=1;jettySize=auto;html=1;fillColor=#d5e8d4;strokeColor=#82b366;" edge="1" parent="1" source="lBTxHlBFO6vyjtmEhLMX-1" target="ZAJag4RQHsvtBGx-v4qM-1">
          <mxGeometry relative="1" as="geometry" />
        </mxCell>
        <mxCell id="lBTxHlBFO6vyjtmEhLMX-1" value="AI LLM Model" style="shape=mxgraph.signs.healthcare.brain;html=1;pointerEvents=1;fillColor=#2875E2;strokeColor=none;verticalLabelPosition=bottom;verticalAlign=top;align=center;" vertex="1" parent="1">
          <mxGeometry x="310.5" y="1645" width="98" height="85" as="geometry" />
        </mxCell>
        <mxCell id="XzQWWoObRKEOvLeWn4XC-1" value="" style="rounded=0;whiteSpace=wrap;html=1;fillColor=none;" vertex="1" parent="1">
          <mxGeometry x="800" y="1444" width="250" height="120" as="geometry" />
        </mxCell>
        <mxCell id="XzQWWoObRKEOvLeWn4XC-2" value="" style="edgeStyle=orthogonalEdgeStyle;rounded=0;orthogonalLoop=1;jettySize=auto;html=1;entryX=0.5;entryY=0;entryDx=0;entryDy=0;" edge="1" parent="1" target="XzQWWoObRKEOvLeWn4XC-1">
          <mxGeometry x="-0.0504" y="15" relative="1" as="geometry">
            <Array as="points">
              <mxPoint x="925" y="1374" />
              <mxPoint x="925" y="1374" />
            </Array>
            <mxPoint as="offset" />
            <mxPoint x="925" y="1374" as="sourcePoint" />
          </mxGeometry>
        </mxCell>
        <mxCell id="n_bDC4-drA7iSF3iBHV1-12" value="consist of" style="edgeLabel;html=1;align=center;verticalAlign=middle;resizable=0;points=[];" vertex="1" connectable="0" parent="XzQWWoObRKEOvLeWn4XC-2">
          <mxGeometry x="-0.481" y="3" relative="1" as="geometry">
            <mxPoint as="offset" />
          </mxGeometry>
        </mxCell>
        <mxCell id="XzQWWoObRKEOvLeWn4XC-3" value="Microsoft Sharepoint (Cloud)" style="shadow=0;dashed=0;html=1;strokeColor=none;fillColor=#2875E2;labelPosition=center;verticalLabelPosition=bottom;verticalAlign=top;align=center;outlineConnect=0;shape=mxgraph.veeam.ms_sharepoint;" vertex="1" parent="1">
          <mxGeometry x="902.6" y="1303.9999999999998" width="44.8" height="44.8" as="geometry" />
        </mxCell>
        <mxCell id="XzQWWoObRKEOvLeWn4XC-4" value="Research" style="image;html=1;image=img/lib/clip_art/general/Full_Folder_128x128.png" vertex="1" parent="1">
          <mxGeometry x="820" y="1454" width="80" height="80" as="geometry" />
        </mxCell>
        <mxCell id="XzQWWoObRKEOvLeWn4XC-5" value="Nutritionist Plan" style="image;html=1;image=img/lib/clip_art/general/Full_Folder_128x128.png" vertex="1" parent="1">
          <mxGeometry x="940" y="1454" width="80" height="80" as="geometry" />
        </mxCell>
        <mxCell id="XzQWWoObRKEOvLeWn4XC-6" value="Sharepoint folders" style="text;html=1;align=center;verticalAlign=middle;resizable=0;points=[];autosize=1;strokeColor=none;fillColor=none;" vertex="1" parent="1">
          <mxGeometry x="800" y="1414" width="120" height="30" as="geometry" />
        </mxCell>
        <mxCell id="n_bDC4-drA7iSF3iBHV1-1" value="Chat UI" style="html=1;verticalLabelPosition=bottom;align=center;labelBackgroundColor=#ffffff;verticalAlign=top;strokeWidth=2;strokeColor=#0080F0;shadow=0;dashed=0;shape=mxgraph.ios7.icons.monitor;" vertex="1" parent="1">
          <mxGeometry x="310.5" y="1414" width="101" height="60" as="geometry" />
        </mxCell>
        <mxCell id="n_bDC4-drA7iSF3iBHV1-2" value="ChromaDB" style="shape=cylinder3;whiteSpace=wrap;html=1;boundedLbl=1;backgroundOutline=1;size=15;" vertex="1" parent="1">
          <mxGeometry x="895" y="1648" width="60" height="80" as="geometry" />
        </mxCell>
        <mxCell id="n_bDC4-drA7iSF3iBHV1-4" value="process downloaded file to" style="rounded=0;orthogonalLoop=1;jettySize=auto;html=1;entryX=0;entryY=0;entryDx=0;entryDy=15;entryPerimeter=0;fillColor=#f8cecc;strokeColor=#b85450;" edge="1" parent="1" source="0ZSIA57OzXMckEC5qKQl-1" target="n_bDC4-drA7iSF3iBHV1-2">
          <mxGeometry relative="1" as="geometry" />
        </mxCell>
        <mxCell id="n_bDC4-drA7iSF3iBHV1-5" style="edgeStyle=orthogonalEdgeStyle;rounded=0;orthogonalLoop=1;jettySize=auto;html=1;entryX=0.487;entryY=-0.006;entryDx=0;entryDy=0;entryPerimeter=0;" edge="1" parent="1" source="YFyqN8CRcwEbhxxAuViW-1" target="n_bDC4-drA7iSF3iBHV1-1">
          <mxGeometry relative="1" as="geometry" />
        </mxCell>
        <mxCell id="n_bDC4-drA7iSF3iBHV1-10" value="consist of" style="edgeLabel;html=1;align=center;verticalAlign=middle;resizable=0;points=[];" vertex="1" connectable="0" parent="n_bDC4-drA7iSF3iBHV1-5">
          <mxGeometry x="-0.0316" y="2" relative="1" as="geometry">
            <mxPoint as="offset" />
          </mxGeometry>
        </mxCell>
        <mxCell id="n_bDC4-drA7iSF3iBHV1-6" value="get context from" style="edgeStyle=orthogonalEdgeStyle;rounded=0;orthogonalLoop=1;jettySize=auto;html=1;entryX=0;entryY=0.5;entryDx=0;entryDy=0;entryPerimeter=0;fillColor=#f8cecc;strokeColor=#b85450;" edge="1" parent="1" source="lBTxHlBFO6vyjtmEhLMX-1" target="n_bDC4-drA7iSF3iBHV1-2">
          <mxGeometry x="-0.0123" y="8" relative="1" as="geometry">
            <mxPoint as="offset" />
          </mxGeometry>
        </mxCell>
        <mxCell id="n_bDC4-drA7iSF3iBHV1-7" value="generate response to" style="rounded=0;orthogonalLoop=1;jettySize=auto;html=1;fillColor=#f8cecc;strokeColor=#b85450;" edge="1" parent="1" source="lBTxHlBFO6vyjtmEhLMX-1">
          <mxGeometry relative="1" as="geometry">
            <mxPoint x="361" y="1500" as="targetPoint" />
          </mxGeometry>
        </mxCell>
        <mxCell id="n_bDC4-drA7iSF3iBHV1-14" value="reporting flow" style="edgeStyle=orthogonalEdgeStyle;rounded=0;orthogonalLoop=1;jettySize=auto;html=1;fillColor=#d5e8d4;strokeColor=#82b366;" edge="1" parent="1">
          <mxGeometry y="10" relative="1" as="geometry">
            <Array as="points">
              <mxPoint x="-170" y="1280" />
              <mxPoint x="-170" y="1280" />
            </Array>
            <mxPoint x="-200" y="1280" as="sourcePoint" />
            <mxPoint x="-80" y="1280" as="targetPoint" />
            <mxPoint as="offset" />
          </mxGeometry>
        </mxCell>
        <mxCell id="n_bDC4-drA7iSF3iBHV1-15" value="chat AI flow" style="edgeStyle=orthogonalEdgeStyle;rounded=0;orthogonalLoop=1;jettySize=auto;html=1;fillColor=#f8cecc;strokeColor=#b85450;" edge="1" parent="1">
          <mxGeometry y="10" relative="1" as="geometry">
            <Array as="points">
              <mxPoint x="-170" y="1320" />
              <mxPoint x="-170" y="1320" />
            </Array>
            <mxPoint x="-200" y="1320" as="sourcePoint" />
            <mxPoint x="-80" y="1320" as="targetPoint" />
            <mxPoint as="offset" />
          </mxGeometry>
        </mxCell>
        <mxCell id="n_bDC4-drA7iSF3iBHV1-16" value="" style="rounded=0;whiteSpace=wrap;html=1;fillColor=none;" vertex="1" parent="1">
          <mxGeometry x="-240" y="1240" width="200" height="120" as="geometry" />
        </mxCell>
        <mxCell id="n_bDC4-drA7iSF3iBHV1-17" value="Line Color Explanation" style="text;html=1;align=center;verticalAlign=middle;resizable=0;points=[];autosize=1;strokeColor=none;fillColor=none;" vertex="1" parent="1">
          <mxGeometry x="-240" y="1210" width="140" height="30" as="geometry" />
        </mxCell>
      </root>
    </mxGraphModel>
  </diagram>
  <diagram name="Technical" id="iF_PUx-WRoUQhoa7WlFT">
    <mxGraphModel dx="3457" dy="1520" grid="1" gridSize="10" guides="1" tooltips="1" connect="1" arrows="1" fold="1" page="1" pageScale="1" pageWidth="850" pageHeight="1100" math="0" shadow="0">
      <root>
        <mxCell id="0" />
        <mxCell id="1" parent="0" />
        <mxCell id="C_dpL106deid5A0ibrWK-14" value="" style="rounded=0;whiteSpace=wrap;html=1;fillColor=none;" vertex="1" parent="1">
          <mxGeometry x="80" y="2560" width="360" height="880" as="geometry" />
        </mxCell>
        <mxCell id="DF8i__ZBXGCo0yMitaEP-55" value="" style="rounded=0;whiteSpace=wrap;html=1;fillColor=none;" vertex="1" parent="1">
          <mxGeometry x="280" y="1440" width="520" height="920" as="geometry" />
        </mxCell>
        <mxCell id="5n1h_S0CYBmryCAy1Lux-2" value="" style="rounded=0;whiteSpace=wrap;html=1;fillColor=none;" vertex="1" parent="1">
          <mxGeometry x="-160" y="79" width="960" height="840" as="geometry" />
        </mxCell>
        <mxCell id="5n1h_S0CYBmryCAy1Lux-59" value="embedding model&amp;nbsp;&lt;div&gt;reference from&lt;/div&gt;" style="edgeStyle=orthogonalEdgeStyle;rounded=0;orthogonalLoop=1;jettySize=auto;html=1;entryX=1;entryY=0.5;entryDx=0;entryDy=0;dashed=1;" edge="1" parent="1" source="5n1h_S0CYBmryCAy1Lux-18" target="5n1h_S0CYBmryCAy1Lux-55">
          <mxGeometry relative="1" as="geometry">
            <Array as="points">
              <mxPoint x="720" y="764" />
              <mxPoint x="720" y="304" />
            </Array>
          </mxGeometry>
        </mxCell>
        <mxCell id="5n1h_S0CYBmryCAy1Lux-18" value="ChromaDB collections" style="rounded=0;whiteSpace=wrap;html=1;fillColor=#dae8fc;strokeColor=#6c8ebf;" vertex="1" parent="1">
          <mxGeometry x="157.01" y="619" width="120" height="290" as="geometry" />
        </mxCell>
        <mxCell id="5n1h_S0CYBmryCAy1Lux-14" value="" style="rounded=0;whiteSpace=wrap;html=1;fillColor=none;" vertex="1" parent="1">
          <mxGeometry x="-400" y="204" width="120" height="260" as="geometry" />
        </mxCell>
        <mxCell id="TdOf5Kdvonn5jJfeqZLo-5" value="create" style="rounded=0;orthogonalLoop=1;jettySize=auto;html=1;entryX=0.5;entryY=1;entryDx=0;entryDy=0;dashed=1;" parent="1" source="TdOf5Kdvonn5jJfeqZLo-1" target="TdOf5Kdvonn5jJfeqZLo-2" edge="1">
          <mxGeometry relative="1" as="geometry">
            <mxPoint x="90" y="199" as="targetPoint" />
          </mxGeometry>
        </mxCell>
        <mxCell id="53snhaAlSA19ti4wVCks-5" value="create" style="edgeStyle=orthogonalEdgeStyle;rounded=0;orthogonalLoop=1;jettySize=auto;html=1;entryX=0.5;entryY=0;entryDx=0;entryDy=0;dashed=1;" edge="1" parent="1" source="TdOf5Kdvonn5jJfeqZLo-1" target="53snhaAlSA19ti4wVCks-1">
          <mxGeometry relative="1" as="geometry" />
        </mxCell>
        <mxCell id="TdOf5Kdvonn5jJfeqZLo-1" value="AI server xxx.xxx.xxx.xxx" style="image;points=[];aspect=fixed;html=1;align=center;shadow=0;dashed=0;image=img/lib/allied_telesis/computer_and_terminals/Server_Desktop.svg;" parent="1" vertex="1">
          <mxGeometry x="169.66999999999996" y="269" width="94.67" height="120" as="geometry" />
        </mxCell>
        <mxCell id="TdOf5Kdvonn5jJfeqZLo-2" value="Docker container &lt;b&gt;MedicalAI&lt;/b&gt;" style="rounded=0;whiteSpace=wrap;html=1;" parent="1" vertex="1">
          <mxGeometry x="122" y="99" width="190" height="90" as="geometry" />
        </mxCell>
        <mxCell id="TdOf5Kdvonn5jJfeqZLo-4" style="rounded=0;orthogonalLoop=1;jettySize=auto;html=1;entryX=1;entryY=0.5;entryDx=0;entryDy=0;dashed=1;" parent="1" source="TdOf5Kdvonn5jJfeqZLo-3" target="TdOf5Kdvonn5jJfeqZLo-2" edge="1">
          <mxGeometry relative="1" as="geometry" />
        </mxCell>
        <mxCell id="TdOf5Kdvonn5jJfeqZLo-3" value="Docker image = official ollama" style="text;html=1;align=center;verticalAlign=middle;resizable=0;points=[];autosize=1;strokeColor=#6c8ebf;fillColor=#dae8fc;" parent="1" vertex="1">
          <mxGeometry x="360" y="129" width="180" height="30" as="geometry" />
        </mxCell>
        <mxCell id="TdOf5Kdvonn5jJfeqZLo-6" value="listening port = 11434" style="text;html=1;align=center;verticalAlign=middle;resizable=0;points=[];autosize=1;strokeColor=#d79b00;fillColor=#ffe6cc;" parent="1" vertex="1">
          <mxGeometry x="122" y="101" width="140" height="30" as="geometry" />
        </mxCell>
        <mxCell id="TdOf5Kdvonn5jJfeqZLo-7" value="collection_name: Research&lt;span style=&quot;background-color: transparent; color: light-dark(rgb(0, 0, 0), rgb(255, 255, 255));&quot;&gt;Doc&lt;/span&gt;" style="shape=cylinder3;whiteSpace=wrap;html=1;boundedLbl=1;backgroundOutline=1;size=15;" parent="1" vertex="1">
          <mxGeometry x="166.01" y="629" width="102" height="120" as="geometry" />
        </mxCell>
        <mxCell id="5n1h_S0CYBmryCAy1Lux-6" value="2. download new document to" style="edgeStyle=orthogonalEdgeStyle;rounded=0;orthogonalLoop=1;jettySize=auto;html=1;entryX=0.5;entryY=0;entryDx=0;entryDy=0;fillColor=#f8cecc;strokeColor=#b85450;" edge="1" parent="1" source="TdOf5Kdvonn5jJfeqZLo-10" target="5n1h_S0CYBmryCAy1Lux-3">
          <mxGeometry relative="1" as="geometry" />
        </mxCell>
        <mxCell id="TdOf5Kdvonn5jJfeqZLo-10" value="MedicalAI Python Program" style="aspect=fixed;sketch=0;html=1;dashed=0;whitespace=wrap;verticalLabelPosition=bottom;verticalAlign=top;fillColor=#2875E2;strokeColor=#ffffff;points=[[0.005,0.63,0],[0.1,0.2,0],[0.9,0.2,0],[0.5,0,0],[0.995,0.63,0],[0.72,0.99,0],[0.5,1,0],[0.28,0.99,0]];shape=mxgraph.kubernetes.icon2;prIcon=api" parent="1" vertex="1">
          <mxGeometry x="-106" y="310" width="50" height="48" as="geometry" />
        </mxCell>
        <mxCell id="5n1h_S0CYBmryCAy1Lux-12" value="have" style="edgeStyle=orthogonalEdgeStyle;rounded=0;orthogonalLoop=1;jettySize=auto;html=1;entryX=0;entryY=0.5;entryDx=0;entryDy=0;dashed=1;" edge="1" parent="1" source="TdOf5Kdvonn5jJfeqZLo-11" target="5n1h_S0CYBmryCAy1Lux-14">
          <mxGeometry x="-0.1019" y="15" relative="1" as="geometry">
            <Array as="points">
              <mxPoint x="-510" y="334" />
              <mxPoint x="-510" y="334" />
            </Array>
            <mxPoint as="offset" />
          </mxGeometry>
        </mxCell>
        <mxCell id="TdOf5Kdvonn5jJfeqZLo-11" value="Microsoft Sharepoint (Cloud)" style="shadow=0;dashed=0;html=1;strokeColor=none;fillColor=#2875E2;labelPosition=center;verticalLabelPosition=bottom;verticalAlign=top;align=center;outlineConnect=0;shape=mxgraph.veeam.ms_sharepoint;" parent="1" vertex="1">
          <mxGeometry x="-590" y="313.19999999999993" width="44.8" height="44.8" as="geometry" />
        </mxCell>
        <mxCell id="TdOf5Kdvonn5jJfeqZLo-12" value="AutoCount DB" style="shape=cylinder3;whiteSpace=wrap;html=1;boundedLbl=1;backgroundOutline=1;size=15;" parent="1" vertex="1">
          <mxGeometry x="-392" y="776.73" width="60" height="80" as="geometry" />
        </mxCell>
        <mxCell id="TdOf5Kdvonn5jJfeqZLo-13" value="MedicalAI DB" style="shape=cylinder3;whiteSpace=wrap;html=1;boundedLbl=1;backgroundOutline=1;size=15;" parent="1" vertex="1">
          <mxGeometry x="-512" y="776.73" width="60" height="80" as="geometry" />
        </mxCell>
        <mxCell id="TdOf5Kdvonn5jJfeqZLo-18" value="Pipedrive" style="shape=image;verticalLabelPosition=bottom;labelBackgroundColor=default;verticalAlign=top;aspect=fixed;imageAspect=0;image=data:image/png,iVBORw0KGgoAAAANSUhEUgAAALAAAACWCAIAAADxIJUiAAARqklEQVR4Ae2de1RTRxrA57hKW7FGocgi3bJaS0utj9JWu1artrtFt9Ttrm21u9p6WHdtt6iQJygKRBQFFBWxFVkttHoUeYg20IKg+ABCiQJqUJ4KhATIg7y8/nd3b6LXBKKEZPK4l/Hccxxu7p07832/+eabme/OBTj6hyRgIgFgkracVN/XZIlywvKYwWkhXvygUdH+IMoPHVSRwKhofy9+UHBaSFgeM0uUo76vsazmh2efBES9VByWx0QEUEX31pRzVLR/WB6zXip+CMDA/x8LBFMQZ80D0DUUlQBTEDeQBcPfFoCol4qD00IoWk9UbOslEJwWMthUDASioq3Kix9kfaboSkpLwIsfVNFWZWoqzICol4oRDZRWsA2F9+IHmdoJMyBQT2GDQGlwS3BaCGkkHgGBvEgaqNbmKpA+5gMg6qVim/NCN9JDAsaO4wEQYXlMetQK1cJmCYTlMXEcJ4BQ39eg2Seb5UibG0dF+6vvawggskQ5tKkVqog9EiBIwHEc9Rf2CJFO9xIk4DiORpt0Uqo9dSFIwHEcTUZZFiJvEuB6Pzp4kyxfRqO1X4IEHMeRR0lomjsRsD1AJADhAHwNwH8MifUAbHx4rDec+cbw03pAXMl+GvB86EQJQQIx0nAy42wPwAJ2HeynAHcC4PnaW3LuRMAaA1ge43hegbEzPtz3WVQO/2RVQWVTzS1Jc6+yT6lW9WvU/Rq1St3fq+prlrZVNf1aVFe2tyRjzZHweUkfBMS8NJ7LIOrCHk0UycmSdMTjnA0Ed/zHacvXHV5n87Hq4JdLdy/zjfk9iBwNWE8B3nO2qIEzDkSCF7cEfv7dP1OKD15srO5R9mLD/KfV61pk7fk1goT8pM8PfjklJghsAIDzjC3lcYRqbcvTqUBwnwPs0UXXi+QahVKrsuFQqJU9yt47so6a1mvZl3JC05aP504AHMYwdMAeByLArMQ5yYJ9lY3Vkj7pMDGwcLlOr+vsk1y4cXlXYcrcxHkgAgAWZbFwNhDM0SU3S/V6vQW5Dv9Ut1x29MIPM3fMAuxxQ/cgHE8QCWYnzj1YfqRVdkej0w7/gUPcodXpOnslx6ty5yUtJqwF+ynqORmUBsKon5rWuvfTPzBI39uyqeBOAOwxM+Kn7xaktsvuDqFVGD/LlD051flL9/0VcJ6lWCdCAyAwDLssrnw3LZQYIg72NDmegMtYefRfwuZarR6+VXgCPxK5dP+5jGmxrwHm05ZJta2bd+hd9AACw7AzouI3k98e6E+wPAGbwTub0C2XPUFzjvtJqVb9XF8eun85CPegRvdBGyAUaiX/dOLkLS8C3sOOg+P5TvI7P4kEWr3OcSq3JuduuSy19KDf5gDAcXtTQRsgMAy7Iq5alPoeYBsGHSzPpftCy29UuJwGIzG9Kvnx6tzgnfMBy72ZoBMQar1m9fHVgDMObHx6cdL7v9SVugkNRiaUGlVBrcDdmaATEBiGHas8NSP+9Xk7FwuuleogDW6t6RSsvEav11+6VbVwzxL3tRM0A0Lc1bTuWGT6+Ux5v8JKJTn/ssu3q9/YuYCYZnXoeMG2zGkGhFQhu3RL2Cxtd76arX9iX7/8RNWpWQlvEnMntqnNcXfRDAjrteLaK2WKnvTyw5O3BLrdWBQB4Soy7vZ0RhfEgkg3MxIICFcBgWGYqK0uJPUvYIM7MYGAcCEQKk1/Tk2+f8w0wB3Ogq3jHIgoP+cGyHCfA1BXO12oS1iPlsil/KJdgD3GXZwJZCFgqda2fPT39MKW2iX7P3aXEQcCwqhIlUbVIm0Xtogqm2qudzTKhh9AZRsQGIZJ5NJtxSnu0ms4H4gycZn+3j2bxQfrRpVG1SxtyxEWrj0SPmXLNCK21hhYG24Ipg0HflEvfJy+au/P315tuapUq2A912I+wlbRnKRFRJSvQ/0DazJ3KhBEcPP4+MLEYxdPWjwqxFf6+uUWRQbxpEzZW379YsSP3ICYF4mg6kgAOGPB4Ch7nhdgeYANwJs7eeXhtbnCs3d7OiEWwzQrmbI3tfQAsURujc4ceo2zgYjyA5Eej2LbySD3jUS7nM1/q7ShXOuA4DZS+jVNtRt/5ATETCU44I63SgE8L8D0mMD1Xnnoi/M3Lmr0GjI3iInKZuEr/NmuNxIuAOJxgHMZv4+bIaj/xUFAaPTarMsnXkt4HTA9AM/LKhRMi2owGM/HBGzNT3CEqejo6YzJ20q0FtOHOj89QoC429MVX5D4wuYpgG2dVXicJjgMwBrzlyMrGyXNEM0DhmH9WvWZq8VB295wsXc5EoCQKXri8uL9ovwAxz4ajJTwvAF3wtLMf4jaGyAyob+nr797/YvMMMJxeRyOTjg/EoDYVZzqu/n5geGW9giX582I/u1Xxza0yGAuq3b2dG3Jj3OxG0F7IHKEBbMS33oQV2cPBAPu5TImbvJlntosVUAL31WolaeE+dO3zgJcm15HG1BC2/6kNxBX79wIPfzpo7Bb22T0uLvYjJf5r2Ve+AFix1HXXv9+yhJrhz+PK5g952kMhFKtTC/LDEyY7kA3jc0I/e4jcddtWEzcljS52I2gMRAN7Q3L0paBSEcuJPK8A7a+lHI2WQ1pcqJH1ZdW/i3Y4Dq/ksZAZFRkB26bDtOXtGiKed6L0z+sbKqBYiT09/SChiJXTlnSFQipQvaPrFXwfcnBTHAY07e9dvR8lloHZwbz3K3zxBuhrvIr6QpEacOF+ckLAcuR/YURDp4v4Pks+34NrNeIRe11bye/57LBJ12BOFR2eFp8oAPdSVNTwWK8m7LosrgSSq/R2HX704wvXTY9RUsg/r/+xMuPYWx6wcIapqkiYaW5jKn8wANlmVCA6OqVxObxXeZX0hKIVln7muy1Y2Hpe8h8eL6ANW519mooQEgVsl3FqQgIPwBvtVPU3rA0Y6WFvSKGVK3NF2xkrDi4QqFW2s9Er6rvwPlDLlv2pKWFKKk/Pz91oZMcCCNDTMbS/R/e7LxlPxBytSLz8vcICJgW4kzNT3OS5jp8BsLUnLAYC/e8d+W20H4g+rXqnNpTRBy2S0aetLQQ+ZW5b+wIdioQHEZw0pzTtUWQgMh32VQEAgJO8AGH8eqOmVmXT0IC4rRhS2VXrHkiIBAQZhJAQJiJw9QtGFYaWQg4cjQVOrxhJ/V9CORUEq9sQIu6/ulaydzd7zh12MlivJu88NJNCLPXCrXy+6ofARONMuABUXHj0qL9SxwVKGVq1cg0vHkINDHl96D3gQdEY1fTqqNrnDd1HeUH4M1Uoqlr+EBIFbKvjn8zlufjpMWtKD/AYqz+Hs5aRldfd/yZRLSWAdOHwDBsuyB5UswUJ/UaXIZ/7JSk4v32T0JgGNYqa//62EY0dQ0ZCMG1kreT5zsjYspgHt5JXlDeUAEFCBQgA7/LMLSzO58c+syxEbZGj5LnC7gTlh1ZASti6mJz9cS4V1wWiU/LiSkMw7Q6bURh3NjNkx3ea3AYgfxXD5QehrL2jYJsH5oHqPMQRtNddUv4wd4QwHRwWCWXsfjAH2FFXRNh+GXfoqhrAxbwhp1GIGQKGTcv1mvzCw40Eob3MpILd0ExDxiGtUjbvjq23mUBlc7ehY6cxrGYgA0EhmHnGireTV3swHVwJuNPe5fWttVDcScxDEOv8jmwy8AwTKlW7hWkTo192ZYdQixSa3oS9rud/Vr1T1eL0Mu+D5lwgIXAMOyWpHl5xqfwPQkOw2fT5JiCBFidBYZhnX2S2LM7nboEY8q3MU3XUYapDS+7fnHR7vdhMsFlMKK81v7wjbiryfRB9qT19/Q37zb+68g6VzoQtPchjBrS6nT5wjNzdv3B3v2EjG2IyxjL8VyTvbYV6m4h/Vp1gUgwJW4mshCO7TKMTKi1mrM1gvnJC4j2Z8OOY0YUeJMA2/P5mIBNufGtsjv22IPB93b2SbYWJrhsxprsO0ZCl0FK/0pjVciBpYAJbNlsissATPBm0txjl0/K4O0aQ5YNbUv40DCQbDrGqSQlbky0yzriTycGRE01fLjd0n6lZHlIq8DxJLYvZfuFn+De7Lyt1cH/6KNCrTx88Ygr56PIWo8oC0HC0dTdur0g8Q/b50+M9iEMBhMQ70FwPB8cbA/iTCQArDF+mwI+Svloj2DfLUkLeTv0xJWm6lf4rt6Q0MjEyATCqNE7PZ3F10r3Cg5EZrM+2b9i/q4/zd6xYPb2BQuTP/z7d//cdDIuvSTz52vnOnq7oBNgmiGx+XlR0ojcDZ+0SxYTTukyTDVhTGt1uj6VvKOnq0XaTh6SPqlGC2cDkMFPND2j1WkrGytD94YiIFzjQ5gqwx3Sd2Ud0bkxbvTJxpHcZbgciBH/iSWLPQV50kVdhgux+LX16uI9f3avD/MhC+EqINqk7REnWO5FwwiZunaVyp/wXJmiZ++5gxMMG5bBfweONLo2JJCFeILaHPSTStN/qqbw5fiZ7jKyMOUGAeEgrT8uWx2xNWlJQGyQO9KAuozHqc1B55UaVY6wIDB+JmA97V49BWkkaGkh7vR0dPZ26/R6B+nVtmyVGlVBrSB453z3pYGuFqK6uTbjfLaotc42zTniLqVGdUKY91KcG9sGo5GgpYVoaGsITQsNy153sxPahwvsoeRuT1f06VgQAQDHXXsKencZhn0q//Ysz/ub4xFQtgq0mQaNTiNs/nXV0TDA/o2LQ6FIlT85QUsL8WA7AO6EZ3neKw5/UQ3p2wXDxUIilx4sy5zBn20I0/JxUy9yAB90BiLKj9gOgPnMq9teTy//b7cc2sexhiRDoVYWiooX7VkC2KOpYRhILGgOhLGeHE/AAn/N+LSk/kKvyoGfktbd03XJu4vqzq3M/ILwGFjPUMMqkDTQdZRhYQcZg6n4Xcy0r7Ijz4p+kcilQ7byYV2g0+sau5sPlR1dnrbSN/p3gElBFIxYjAgLQbYA7kTAHjOOO/71HfPiCpPr7tzU2P2d8W65LFdYGJbx7xdjXiYmH9lPAR5F3AVSLKaJkQUEWXPOOLAegK/B1E2BET9y8mvOCptF4s7bHT1dfSq5xTBanV4n71d09koau5qELVcFV0sSC3e/tWsBCCc+Y0/MNVGaA1IyIxQIsv6cZ8FGANYDL96kNxLmfbJ/RWQ2Ky4nYXvuzh2nk1OKDqQUpSeeTtmeuzP+1PbwrIhlqcvf2r7AJ2oywdN6GnFACmSkA0EKgjeJGA6Q8dbGUOxIQ+w1mX4QnM2giTEg626aQEBQbyBgqj/oaQQEAsJMAggIM3FAb3CUyxABgYAwkwACwkwclGvQ0AuMgEBAmEkAAWEmDugNjnIZIiAQEGYSQECYiYNyDRp6gREQCAgzCSAgzMQBvcFRLkMEBALCTAIICDNxUK5BQy8wAgIBYSYBBISZOKA3OMpliIBAQJhJAAFhJg7KNWjoBUZAICDMJICAMBMH9AZHuQwREAgIMwkgIMzEQbkGDb3ACAgEhJkEEBBm4oDe4CiXIQICAWEmAQSEmTgo16ChFxgBgYAwkwACwkwc0Bsc5TJEQCAgzCSAgDATB+UaNPQCuxsQubVnelXyfo3a5kOn11vYQQa64OiaIY7jo6L93aWV8HxA5BhiwwY7D2JHSIa7VIo66BAk4DjuxQ9yI9nxfADX296D5+tGNaIOEAQJOI4Hp4Ug8SEJgCg/ggQcx8PymEgcSAIgyo8gAcfxLFEOEgeSAIjyI0jAcVx9X+NGfiV1elyaMTQq2l99X0MAgXoNmqnWtuqE5TGJOQgjEPVSsW25oLtoI4F6qfgREDiOMwVxtKkbqshwJcAUxBlNwwMLYfwDjT+HK0d6XB+cFmIEwMxC4DheLxW71yQVcjAdLwEvfpCxs7BgIXAcr2irQkzQo91bUwsvflBFWxVpHgZaCOMP9VIx6juskSbVrwlOCzG1DZYtBAkL8jGpru8nl5/0IkmNDwGE0aUIy2OiOasnS5Zav46K9g/LYw42DCQWZqMM8qxpQn1fkyXKCctjBqeFePGDEB+UI8CLHxScFhKWx8wS5ajva0yVOzg9NBCD70FnaCyB/wEbxQC6FHDI2wAAAABJRU5ErkJggg==;" parent="1" vertex="1">
          <mxGeometry x="-510" y="649" width="56" height="47.73" as="geometry" />
        </mxCell>
        <mxCell id="TdOf5Kdvonn5jJfeqZLo-19" value="Aoikumo" style="shape=image;verticalLabelPosition=bottom;labelBackgroundColor=default;verticalAlign=top;aspect=fixed;imageAspect=0;image=data:image/png,iVBORw0KGgoAAAANSUhEUgAAAO8AAAC2CAIAAAC+k03RAAAgAElEQVR4Aey9B1AcWZ8nqJiNu91v4+72dnZuZu5iZm837nYvbl3szsVexFzMCitkkW2ZVner3adudbfaSlCJBwkQUICQRUgIeYe8kIQkjEAOIYQw9cp7n2WyKivNyzZf9Hf9sqAok1UUqAqQPogM6VVWVuZ7//fL//u/v13wx4i/X3/99Zdffvnpp59+/PFH7q3+gxwHIcdCzk2zDh+rw+nnGu/ZPkd5m2X7OcPmo9pVtaplFfK0MllKEfAf6WWyZRXyVXWq945qf7hkPNBhuz3kHjHRVoJ1USzDQhZy8K0m2qwM7scff/zpp59++eWXX3/9NQKwEycWTDT/+Mdff/31559/npXuzuRDIeRoFnooBN8XWu+Vly5xm+WrFt1KsSK1WJqCgZQcCTpEYOzIAynBh/987vhleSCrVLbhoObb88bGTlv7CDFqoqxuhqQhM4/rJMzrzz//HA3TE2j+wx/+kIRHz8ItGeijWBfJ4iRj97FOBpKBTiA2TLIqG9UtJZq67DvOG9fVKVNLZCm5koV++GKhwA0GcbQ2xoM+V7Jw52hKHliyW/7xIU3ldXNrv3NA6zW7aJKG86gOTEGiGn/4wx+CGbG/PYbmX375JVGPmcX7UKwb90kUrrMv7HueWPOeWLB+e7nM2YL7hr2Mw04w/WryRC++46xhQ60yw8+GMYCYcTSkTuO8CKTkStLywYoK+aeHNbuvmq+/dMksPsLHzoM6sdj45ZdfwgCN0PwWcGUG+uy+gUG89pZmxRnpP2uWLDg2Onaclv6T66rMbkPl0WcdW45IsspkCLsJB3Ek7v2PyAfLKuXfnNCdfoi/UHudXnaeTycQ02EcesGvv/6awLvPyq1o6NESt+7qsppHf9c4vODIyIKm0KNxeMG+wd/t7Ph/VzfVpJX0J5gZR+I4+My4HJJRKP30oPpIBz6g9Tq87KwQ6q18aLAMveBN3/axkDJ4Om9r046NCuA4AOsjIwsOvFpQ1Pt/rGmqWZg/MDmg/ZzVj0WRBAnWuejfFBG/O5wGa+dvtahE9mWTtuUhPmwgPdQ8m07A+/Xzzz8H5I0FCbjf7N0CcizuG+0yftIi+V0AuNEafkDv7PivS+vOLMRGBACNIZEXoVYkSSmQLiqVLa9SrhIr36lXbdmn3rJP/cE+9bp61SqxcnmVIrNUlpIvHb8+buGbfw1WViq+OaW/+MxhdDKzR7y358kB9vxmo5liXYP4vlPSv4iG4LDzR0YWNAz+7pPWL9JKHo+h2Y/gHMR3M8pkm/ard57Ri29aWh7il/ud7SPuDinRLfM8UXr61N7HSk+3zPMAEG2v3OefOho77BVXzV8e160VK9MLpQtzeMXIpGybvyCtQPpOjbL8qrlf66Xn5Y7Xe7MC28E3GM08Yx5p02QfGQ4XlMNAHPzxyMiCokf/afne0wtzh1Pykap4/X516RXTuUeOHikxYvRpcMrmZtw+lqQhzXIMHDvY8QbDchQDPRR0eFmzi1FYqVc68t4QcfC+/asT+lX1KqS0nnSjyStSFhdLPzmoOfnEYXHPM+npI/qnn34a09BN/x6z/UsW0ir39RPgfwgGazxt8cB//8GFwk0HRoqvmFr7XVKrz0YwHgqZ8ab9R7Ock2QNDrpP7T3ag39/1rCuVpVaKEX2lxgaQAyk5oHVVQpxm0Vq8c1bW6ZH/x9//PGNRzMDySH8UDzwDb9mdMGp4W/6tAbcw/qYBGuBGch5KKh30g+lRP1d67v71Sn5vHklOqZTMbCoWJp7Tv9SR85LHdMD9BuPZhp6ntv2HJ6KmBGA9QPDJy5aPz3CxfkrCDm3jx00+Gru2bKrFWhnGR3QKRhIzQfbjuueqEhqXuiIk8RBl70FaCaeWkunh+YOwyfuJKM5QGofAwcNZN5V87IyWVpMQKdgYNNBTScgfPRrCD2BB/8pNd54NDOQfIUfbpw6bz42uqDX/I2HMc/kdNMQdkmJ787ol5bKYjHpXMnKasXNQRc5D+ipTM8bj2YW0mr3jRPgf4w0/gUkCsHGKel/9woXU6xrKuRKzLUmF3P4Ib5hryqjkNd7BFsNx9sLcyQrqxQ3X7nmzSvxE/2NR3NAQzcl9nxkZEGr8v/We+5CbnbkU5KBvTJix1nDkjJ5NCa9MEeyqk51e8jlnbcXxofoNx7NHMf5WEe/rfy45Hfxs+cjIwu6jV8QtCE+KiXrKqnFV3Xbml0hRyq8ca4c0sDAhwfUnRJiXm8Xzxy8DWhmIW3y9t7RZh4djcuAchQx5n+ndl9j4eww5sDEQI6zuJhjD+0bxUpkIRcCdCoGtjVpexUeal4RHSBclMbbgGaO4xjoVbmvXFf/l9heR00jyEG0VflvRhxHfKwzCk1m+rTDy17qd3x8WJNRJARoDGTkg29P64eNEwEHM93FN+R5bwmaOY6jWJfSfalNm9o8+k8FPUKPICj/42vqvxtxHPQytrkzQZDjcC97a9C1rUkrvC/EwOISacV1s2HePynmtL09aOY4joaEwdv5xCK6rPovzZJ/3Di84PD4cXRkwXn5X/SYvtUQN0kWj0mTWfgScpyDZG8OurbsVwtsCvORYXxNhexCh4m0eeG8ZSXKFL1VaOY4joWUh7GYvY+G8SOPLXldxu2dxi8fmXNf4fv0njsEY2KgLwopZvk05JDVsPW5Y32NcmJTmA9Sd4xsfe+eOOvSqX842b38lOHTVlv+XdfZAVqFI0+o+b8gCrxtaPYPDXIsDT0ki3sZm5exkixOs57ZUsYFUXvyJuFjT/TiKysVaEeYK/l6/e0b/7nx+d+Ih/9qD/hfKuR/WaH860rV31Zp/m2t7r8edux/whhdKH/C/B9PgbcTzW/05NoJtv6+bW3+y7rM86/+ukr+L8qV/3y34KH6myrrjlv46BzaA8wu5efRPLv0F366FuD3PrwC/nqPIIhDTv55uenjS6zdK3yjP7GzbwaaVXbq5BN8f6ft/HPHoJ50v9Vx/KzL52h8rPm3tSGojcKe/dfY8m7Oy9Acx70BaEaiZDeOEl/kg5RCsKJSvuuqacjom3XzGOTjUGgWUgwkaeijIcMmIGEX+VynT21W/nlUAUMQ5d5Hmj8xRiww3LmOZgi5YSP55TEtipT2ByaJwMIcyaYD6m4pQb9OoIgANSY/xUCOpKGLRNFTwOLr13gfAqJt0NX63Hn1hfOZyqvBKRfJTluHBikWr+hS/2uxIGRjnDRtu8z4Ztm0OTn5knzFXEezh2IvPsOX7g51zeHj+D87ptM66CTTZ+z2LK8+MznpQT3ZNuhq7sYrrpq3Hde9s1e1vEKeXiJLKQSpRdLV9aqCC8YTvXi31KN3oGxdU+0erXOa1l+YKmNW/vPdqr8/4AL2qT7uLbt+TqMZQk5ppXLO6pFBIczDXQTeqVXKrFSy54OBnNnN9GvJc8/wyuvmr47p1tUoM4t572SUpYDvmL976B1DoSWLSmTv71OVXjXdGHDK+Wxd8XfSN2QyLDsRgwdH+0r9t9WebkX8Dwq7kmah2cUobZTU4pNafEobpcVpo5O2E6z39WIlwx6U1I9zGs0kDdteudYGWxP8fjk8siuum92+JIbtMyynx+n2IXf1TcvWI9rsSvlYvGruJBF+6MUTSdIKwdoapeis4VKfQ4NTTHw99XYp9AuPRINsjPOqv6lyXx+ZHlZ8DHyq8orbLKJzhh/O6H84oxedMxS1mnZfNdfftZ16jN8acg/oSYubYWZctJvSiOY0mq1upuqGJb2Azz8b7F8mAuvEyscKz5SGOqWLPRTs13gb7ts+b9Zt2qtaW61Ys0expkqxbLd8cZkcuQfl8z6cAa4c3L3AK4eBtALp2mpF4QXj3SG3lWAnBcPMo5mF3JCB3HnWkFkS4fOUD9KLpEt2y1fXKLcd0ZZdMjX34L0Kj9XNzM2Mp3MXzSzknmu8Hx7UTJh5AyjJB7uvmZzJzONGUCiM7/aQ++4rV8eoux013DcGXGcf401ddnGbFTtv+PKY9r0G9co9CqRviZE6AwPp+eDdvaq992yDejK2Ksb3arqSxr8We7qmI2m4KdjSg68sl08MIfCKBhooUxkSorLKZB/uU++6bL495DI46NhjmRL7SMjFcxfNFAPPP8UXlUQwZgws3yNvH3ZPyudeh0AQchQLKRblEh/LCMNyJAMJH+tPB6O2UcMGsltKXOpz1t+15p41bKhXpRehXEfhIv44216+W55z1tAhIWLsDr0Gl37DxWnsAtX/30FaNx0fV5OLKb5kyowe04VQHjh4fGcUSTeJlSWtxrZXTpNrhjbi8czm3EWz3cNiF4yIJQRI6W/kSraf1BtmSpsRg4iQQ+mOCB+0E2j/1CMjTvTi354xLK9UIEz7VYqhnV9UJP3ooOZyv4OO4jDEUiwu7lH/n1PW0Fl23uLilM1Dh6S209+c0KWG9jOc5kLfLiqSbqxV7r5mHtDNFUvk3EXzsNG3WhzkTeYnKM8bTvbicy1Uzl93gvCxeifdpyKr2yyrqhUI0LnhrDotX5pdIW95jPuiLC689eTYlNiz6i+ryL5pJgbROejvTunjgW/kNakYyCqSfXpIc2NuROPOXTRfeuESYBgiycpa1YjRN2VFbihDSt4niLxSUaIjNU41duPvHVAjTUhuqIYRA1nF0sZOm5MU0nQwrPvqiObf742hwQj7Ct//ZNqWbSfJ7mu3LoudEUGIN4+BGwOpIrCqSrG/Eze5Ztl8M3fR/MMlo7+GSDBLWJgjyb9knFOyWowXg2Y5qZk6cN+2Ya8S6UBCVeZpxaCx0+YRsrBAlw+v71X9bXUYagU/2kQ3WHu86h2ShS4ftHtYs5sxuxncy1Is91JPfnZEm5YXodOIAeKwrzCwrFwuvmOdXQlwNtEMOSTp+Rjo8rEGJz2gI9slxPVB1/mnjuO9+Ioq3sc3mGoYSC0EF57ib1aKCQ8FHym8ogvGZWWy1OD0iiKweJfs7BNc0D6PfI8O9Gj+Tb3yL6I4bPxFhfpfiW2iW8jFOcofAzkfDW0E26/1Xh90NffYq26aiy+bvj9r+PaMYccF47FHuBanSQZ2APfWo9olJbLFZfxRLF2UDzLyQBoGUv2ajeCJEGxjYHGZfM8tqxYXekGj9DCxp2cHzTQLnSSrsdMdEk9jtz2v1bStWbexXpVdpViyW55aigzFwSw5sKitrlE+lnuiCJyJpUwi78ZATovTjT34pjpVenBsNgbWiJUPJG7B/Rvr8rnbJMZ3zmr+Xb36X9Wo/rc9qr+uVP2ve1T/slrzf9WZ3jnrvjbMWIhIb30IOS8F9Q66W+Y50GHffkK3TqxcskuOqIqBdJEke5fsixbdmT6H1Ep5eezREI6aqbZXrvZhd/uw+86Q68xTXHzP9t154/sN6uxdsswCqYDgFwZrDGQWy+rv2ozORKepjG82ZhTNLOQcXlZhpe4Nu8W3bVsataiajt8MESjLF2iEUSoPWeC2H9eNmueu0Byb5l4aPhh1f9WszSrmawjxA0zLQwkGhoxktFeUdZDex2p8b69tR5vl8yvWb27gVV3EbcAYXIJKDJqFSit17gn+5QldVgWP4PG6FpmF0nUVctFZw+1XLhvBRFGrjA0CokQl0O2DWpy+M+zefc28pV61vFQ2CaZFYHGZrLEDt85GLuoZQjPFQhvBDGjJxg77x0e0qX69rH+/HypNCrDkAKzzQfUNi2W2txqxITvpt8DsK241Z5fzflT8Ip5VLC27bjY5E6C4JWn4QuPFzhnT81Eg1pjhCQMZhdJ1YmX+BePtV87pyWkUyw3qycMPbJ82apb4t4zRJk6E6sqdf+aY3oMmJWCMC5KOZhZyNoJ5rPDsv2/bekSbmo/8OWNBNoDdsAYGMktlx7pxYT1AjCHOva80ON3QbltVqRhzWsoDG2qVV184kX8Px9FspOwQ1xi8NHwkJ344qUdpDAJQw8Cy3fLvzxha+52611bSExR8pvZU3bJkVyrCFTXB8yUC7x9QP5J7YrP/uEY1lYuSi2aShgNa8tAD2+dN2kVlssDkTQ/Nq6sV1144/XLeVMY4F681uejGTvuaKh7QeSCjSLrzjH7ESFIsVOO0ycUIStIxRsKwsEdOfN2im4AyD+j1YmXDfduQ0RfDABnjtoJfmV1M8yPHxjoVmsfAaxOMZgyk5IPvT+lnzGXX389koRlynNlFX+l3ftOiX14uT43QT8UCtH8THfavCHy4T/1QSlDRBExBws/hk2YXc/whvqxiDNBrqhRnHuNOH9uvI1ue4KOmqTlB9GvJz5s0wVDOKJRuO6pr7Xda3Infk7lIeO2l69ND6hiAziiU1t6zzyR7TgqaKQa+MpA1tyzra5RpBXFoMYOBmw9SCpDne+BIKRxzWNverHupj7pbmsO4jdo1i5tpuG/LKkGrVlo++LpF98pAGp10+U2L6LzhmcoTZ3KBUbPv86PaCWBhYMVueXGr8YnSS1Bx3iNqJ6N94aFgJ3Cj50ZjVRhYXi5/rIpXFx7tQfGfTzyavTTskBA7ThvG9grBC1Bkm9dgZBRJl1fIN+1VbT+uwy4ay6+bxG3W2nY7Ou7aam5Zdl01FbYaTzzCjc5Z02XGT9P4r4SQ09ip0ssmBAgRqjV//qmDoODNAddaseKjw5oe6eRo/E2/m3vZPAFlEciuUNTdtkrNVLITMXpoeGfYvXmfOtzPcXyiU0Vgx1mDjZghG2GC0UwxyL/+vQb1okl9skRIM7+6WvHdKf2+e9bWfkev3APMPr2DtrgYu5uxe1h0EKzNzVhcKA4C9zCChob40TMHr2Qg90pPfnVchwRQDBRdNGpwSmmjvj+lTy8AGxvU90bdMdirg2T33behPYkfQBjIrpDvvWfT4NH8mhJJA5RwzMuefeZYhpL2Cm/usyvk1144ZsYfOpFoJhl48blj014Vsh6Nv50CDR7H6+tVNbetXcCjtFO4l/WisnyvVd0skbM0s/fyUvDGS+d6sTIlR7K2VvVQ7vHQ8FCHfXEJitfa3KBqHxEGNAXhvVH3qpoxyTtFBJbvktffsxmcM/fWQ44zOOjK65aUyKAKHgPpBdKd5wwaPAH6x0mnJWFo9rHw5FN8cYV8UiivEisPd9uVNoZMUMj+pIOc+xcYnHT1TUtmoTS1ALQ8tLt97AOpJ7sauRCm5oF36lU9UiJyFL8xgm3HdAH/isVF0uo2q9E509tkCLlBrferY1r/8hLOv0RgbZWi7ZVrBthzYtDsY+HFfkdKER8wJ8iV+Sjr7Crlvi67ZaakqMjpnwtnPDTEPaw3dKuPAm3Unm1HNCkYyEGcjNI56E8Pa8ZYQ65k0z71c02IG7GXgRW3rZkFYzqy9HxpYavJ4hZyykv+sH00vNLvXFutEFTYZeSDnPNoUMnuSALQzLDc9RfOrPKo5Q5QXcdS6Y5zhh65d6b5RrLpN8X7O7xs80P7+03aI932MNOCxc3U3bEtLpFt3qvqU3m9DCxsNaaNs4b0PPDNCb3MOlEBpVfp3VSrGtt+5Ug+PKSRJz+CPcZwVXaqqNWUWRRkuBnvfIoIvFur7AJEsv14XxfNDMs9Ung31KoEQy1S8kBaHlhbrdx/z6ayvzWa4hhzOslXQ0YfMojmStbXKVX2EF7FQq5TSry/V7V8t+xSHzILH+yypwe8NPmE5OK7VjuBuC8F4Z7b1jHoiMDSXbJuRQjnnqQfSfjaR8PrAy6EhACIAw0MLCmViduj+HMnrjOvhWYWcsBMfX/KkB5l25eKgQ/2qi71OWxhjChxA3iz7mR00uI2y5Y6VekNMx4RpWtwMkUXjWkl0oZ7NoeXvfLSmRHqcLexXnVj0OVjIMVydbeti/m0Hhn5YO8Dewy9x4yRSGWncs8b0oPt6gFA54EvjupGjMlNnv1aaDa5mKo2C9IrB3U60E4vlH50QHNzwEUkM+vFjE1Voh5kJ5hXBhL3CAi4LOTOPMazK+TYeYPBQffryMzikIU7o1C684xh2ICCsJ6pvR/Uq1IxyfYTOmMiPJZef4A0y1167lhTKSQ9Y2B1pby135FUYWP6aPZQKBH8OrFQ1/NAZqF06xHt7WH3XAvge/05S+od+lTeT/aqPm3UjBh9Oge9tJx3bgkwCwysqlS09OC4lyVpWHXDsrFBdW/EndQuTenmchv95RGtoNdoeoG06prZlUzWNk00sxwKv/n2BO+uFaD1eCO9QPrJQc2tl66kdn1KVJ5TF+sd9IDWC0y+SJ9Jk4v54YR+417VM6XH7mEj43zTCqTfntAP8hb+R3Ki5RE+Y5a2eGhIMbDqljXYgTuwVqeIJF8f1Y6akihsTBPNuJc93GFf7nfSHQdxoN9rxMpzzxyOCLkwHnK89dfILb6qG5Yvjmq/P224M+QOc23zMrD8hmVVrer+iNtFsevqxrUWASJjYEWl4gLvPez2sSbnnEum1TbsRsJGoMOBhkiysVZ5X5LElWSaaH4o87y/XyPQ4zywpFi6957Nxm+933poTnWAHgoefmBfsQvtNFILpFuPaOS2ECMZ5Lhjj/B19arrAy4vDTcJukBgADtvUIeqRKbak+Rdr8XprYeFhA0MLN0lb+lJYvaI6aDZRjDim5b0AgHzdVoe2H5Sn5AwiuSRexbvbPewovPGDL8RWASW75Y/14bXtLz5yrWhXtna7yIo+N5BIYceEVhTreyRztH4SGTWabNk+gPkAoyZ94ROK5DuvmIyJG3POmU0sxz3SOl5f59aQMGMgdVVig4wcx6As4jL6T3ay8CmLvvSMpk/GdKnx3UaPNy/7KGMeLdBde6ZA/ey79RHSBo8PtLywMlu3D0nIyQhx10ZcC6Poun6+oRuJGlFaaeMZruHPdRhzxJKJpKKgbo7FjcloHua3ty/fb+CHKfD6cYO2+fHtEWtpsdKT2SMyTOl54OD6kvPnRY3LzcHs7fx9sJcSeEl4xxRzEVO0wsdn6cq0gqBgS0HNb3KZK0qU0az1Ozb3qITkJhzJBsaVIOG8HUzcqh/4mcg5NwUq8Fpu0c4AW6fyrvlkKa132VwMouRp6WARJcikqzfp06qfuB1pkmH01uPagX8zzCwXqy8NegK2/u+zrOCfzs1NJPIeunM3iOsY27usUfLrRb8yPl2bAr0Kb3bjuluD7kGDWRmqVQYzRhYWi7vBrNQ+SV25/3f2j1s/iVjWuR7yEejND+0J0nfNTU0W11M9Q2LQOSMCGzapx5JpioxHiK+KdcwLHT4WBwV+xEIc+qVEZ8d1XYDolPmCbFsj4sZaGHkw0iPPcSTWl1g2vS0e9iCVmNapP8+BrJKZfvv2ZOk8poCmlnIjZp825v5KIlgyuahAN2aNus8Y45n+r0UCq4+9ABFiF154YqUfe+NuL9s0T1Tkief4iGJkSJovuu6GfeEbyLj6UOyr7F72PIblrTInL8Yik6vumGJHHVCujQFNFMM1yHxrIvMQisCi3bLHwABd/KEdPFtugnNwrsj7vf3q5FMyS+7dbctYTkVLvQ7dl4wDBnImjvWgCe+wEYFA9+dMczNBJO4NyqaUwqlpZdNuuSEokwBzR4KnujFw/xgEJVzJR8e1sx6ttM3AvS/UQnpm/PHfYkw8E61YkA/sXWGHHegw156zTxkIL8/rRfYSAU4NAY+O6pV4RMez0mlAMOi1OsCgpHQUx1etuyaWVBuTskHRa1GbXI896eAZpubKb9qigxmXLhzVHzHOrXsD0Ik+FM4J7NSXx3XTcgPGFi1S3Y/aFkjKHbPdXN9u/Wx0vOBn4UH4BvWwMCWA2qUyjqpbmmofgCnslG3XrouPnX0q71hK4ngrP0mFosuCMvNKfkg/2KyDJnxohlynBqnvziuCzeaoBVTcndIOMul4FD/lE/aPEz1TXNWMa+pEKFksh8e1ADLhNu+BqewC8bTj/GrA85VUXRHY1IHBtbXoSiVpIbz+BjYryXLrpizKxWZJbKvWnQvdJOnNDE6me0tOpTeN+INTCmYA7wZ8lvA9Q0Rpim+TtFcTnY/p14eFnL9Gq/orH6lWLmiQr61SXux3xmsfH2k8Hx3xnDrpWtvexRPtAA+MLCqWtENiOS5HbGQU1ip8mvmxaVjWdcyi2THe3FisqQmKjv14QF+bxDorb+BMnBLd18zJylpeby8mYVcn8qL0iaEGXhEYO1elT45Qv2cAmKiOuNj4JCBvD7ovtrveqL0hiWJPNfn+P6C8f6o+9tT+gmBJAwT48hYVaW4P+pOXrYBJ8mef+oIiV3NBZU3zLhggYsgAr3QedcG8iIEdx5DBQhr2izm5CR6jRfNDMvdGXKnRcYw5ko+a9HNSrLeIOq9YU1/6XmSTyES3HW3j61ts5bftN4YdL3rz1kYDIWwNoaqjSQPzQzL9am9H6MKEkECQ66k7IoxNpppCC/3O5CfRhjj49XkWaWyhnabNTlx+/GimWLghT7HWObwoOEtzJEUtprmptYzGChzoU1QUGal+nWkGqcFZc9hI7nznOH0I/xwp31FIH1RELVDxNAko/k3lbDoIp8HOrgDIlB90+yIyZtJBu65Y10kmH+QT797ohd3xbzDtCdrCmg+8dgRvgXMQ8mYxW2WJHVu2qOagz/UO5imLvsH+9WrKhUfHNBc6neE1e9hINc+4t5xyXjlpROl7Zo09Vky0Uz42COdNhQTHryTw1DCy6ZOe7CgH0lquwd+1axLi/QI5XnzOrHy+kCy0hZPAc3NXfbIIlEpuZKD7TZ3cl61SEq9oWdIGh5/hKNQHT6LZGquJLtSEWZvsnuYhnZb+U3rxX7ne7VKgWU6mEfyyFglVqKM34n2WUQJUgbd2VURfeB3/NcHJpHUn2rIjWKhPAR8nzfvVXcBIjQ3TsJmdWpojuTN82iOZyrUOI2dNoQkoxeBPbcsRJDpA5h8eZeMx7vx3besi/gMdCFyRRiU/choUPdrEuxPADk+GvxARHlz3kz2XoN6Up1gYw++NLKe9Hj/v/SQLu4AACAASURBVGpGWX3jIdo0rpkCmo9345FoXpgjOXDXOs+bY5NebqN3nNCHGJ4wUHDZFBBAvTS8+sL5wwXDqWeOr5qEPGHG0TABcQx8fFgDTIm0nvAJUugtR7UhAkbg0fkAu2DUxSygZiOY7ceFHIb51y81D+RfNKmTpgGbAprPPxVGc+V1c5Ic/GJD5A36Fvcw4luWRf7kGHxKvsVlsrNPcX9KF8hxegdddctSfs28v9O+WjAfRQBSgQYGvmrRvX4pkwAZWcgpbdQ3p/QC8iSPxfRS2dEuewzOxULuzrBrQ5RsdCkYWFwqa+xEOSMDD01sI1400yy88sKJGEOo2mVhjiT3nAFPjsIlsUOd3bu90Hhzz+lXV8qXl0jX7lGUXzMrx8NUKQb2yDzfnTMc6LIXXTKhag8ByMZoYAC7aLQlqJCZ39Zb3Gryu0MJdAADG+pVj+WeGOpti5upvG5GiXoFuy0Ca2qU11+5kme8jBfNDMt1Stzpoal3UKdzJB8d1SZJGT67+Evs030MHDGSF/ochzpsrc8d+qDyUHaCOXjf9u0pfdND+8cHhSPhBfFRd9eakFWR5TgtTlXdHl89BLGIvIVMMTw5aZbrBsSH+9Vh/G6i5yLJl43a5AnNHMfFi2ZkklV7l1cK2AKza5RJcolKLJ7mwt1IGpVhJoO29CzkXmrJz5u1JVfMte22SXwzAjjDQHqh9OIzRzw+QJMOXIfTdXetAobeoMdlVymuD8SKgDI4UArqpYJGE/4+afnS3a2m36LWJ+3PtC+IF82Q42QW6v0DEaHafGXFfrU32Z5c0x7h7P6QZjkbwarstMFBe4XycbtI9uAD+6a9qn0dth1nDelF8YkZIrBsj6JHRry+es7kYg7ct6HouAB2hRp5F4zq6G6cHgreeuncvFcVlTFjILtcfvYJnkQsx8+b/TuVHWf0kWqNlBzJqcfCpc9nF0mz/nSShs/UpPiuLee0oeSSqfW5w+AIETtZvujJ+wfUXx7X7e+wv7c3ipo2El65ko8aNcD8ulmwbARzohdfW6OMBWW+PM2NAWc0p180CgO543Ro1c2IPv/+sKY/InlIYucoXt7M8fVaGtqtaNihG8GUHImo1RTbPpTYTr8Rd2MhJzH7dl4wIgc0DKTnS9fXKi89dwTv6L0o9ZFtZaV8T5ul4roZlVoLo20EJvywW5gj2X3F9JrbFRfJtvY7Nu9VhXhiRDwxo0ha0mqKkVrJ7GL23rUuLYveeQxklcgqblmSKmZMQW7mOI6kYWu/Y/EuAdF5U4NKaZtw0n0j0JbsTvqzc2ftGq9gixRzku9P6RW2iVTLg3pyy371pjpVUw++rYmvGxIBJgGuiSzM0vNP8NcRmn0M1wWIzxo1qCJ3jIdiYMs+9b0Rd7CsH0w6t4+90OdYWSUcxj92ZwxsrFXeG3EH7ReC75Gw9hR4M83CxwrPu3sjXJxFIKNEevG5I2Gdeitu5KFgSw+OpnOc3S7MkWw9onk1XsCTZOC+e9bFpbLvLxibuvGsGLwtDG0isFqsfKyItzZmJDkZlnuhI789ZZhEG8hX0Txwz2ZxC2vVSBreGXK/1zCJgLSoQFpw0ahNmtEkMMApoBlynMpO5V8wCLzKGPjmlH5OpV4NjHC2GiQNr71wLtk1XkiPN5oU8Hspf+jTkJHcVK9atVve8tTx/WmhDUkYiAMfMSA6a1BNdzHkVctU6RVTRqR/b+ARfCOjUPr9acNQlGAtmoX3R4nN+9SxBZUUDKzaI7/c74gmdidwgqaAZo7jcC97pBtfslseCejsGmW3Yj4D3cTUoMANG1XYakwpAAt3jKbkSN6tV1194fRXGiBoWN9uSc+XfnFcd6Xfiaptj7PwSNqGncksljY+QKUkJh42lZaLZJsf4kviWAo21Cnbhl3RytXcGSXWo+T+MQWVPFTjdPsJ3cxUGJoamikWPpQSaGWJHIMIVN6wuIPcaKZC4bfzWobl5BaquRcvvGquvWvtBETAdXbQQGZXKxcXgMYevOq6GSVZDOWLUT+KwLpa5e1h9/SqDjMQ+eCvqo9adWnsuRjIKpLuuWsNC43hOA5yHM3Ci32ONYLRJRGjWFomO/sEn5kJnhqaOY5T21EYZmrk1kEElpXLH8q9SY4gnhmyJPIpFAMdXpagJirVMiwU37Ys3DH6boP6xiv32obJsBUEkdQ8IDpjAJZpus5Z3cx3gmrWoEeg3NIY+P1Bjdwanlvax0CVnRa3mVP9kYKhv4p8A1NFKE1CDAtiIgkdv7458FQvDVufO7IFV8YcyZen9K+pNgo86M1tsJDzUNDhYT1BCA4ezks9ubRCnpIr2XPH2tRtF8iEFg0l/LasqdMeWc8q+P7R2jTLne8TcLaJROHaPYqbL52B+7CQ89JQi9OX+51bmrQoZ02wF3/03mYVgtsjrsB9kt2YMm/mOE5i8n3bogvxb/SPBwOLi2TND+2+yWJ6kz2qWbw/zXLAQl185th323qpzwlMvjCRgKRhyVVzWq5keaX8cr/zuzMGAbEtGj7ywAf71PdHpilmqHH63UMaAftX8ON43bD4ns1DoVwwJKo8y0jNvt9y/X97xoAcryPzcQX/PLgtkuw8Z5jQRyZ/VqaDZi8FT/fiy3YJaMtTMVS186nSQ09zi5L8ESf5Cb95xolajcj5UyRZXCYrbjWNmkKkgpd6ciNfLHTHWcPVAdf6WqFNSDAmAm0MpBdIc8/qZZbpmABpljvxBJ88DgADHzVqe5ReHU4P6ck7Q+7DD2w7TuvHTN/xsGR/h0Vgba3yhS5ZjvmC0zgdNHMcSq/4w0l9WnBtxnGiZxYA0XnDqFEwjlOwD2/PSZrlLr9woMh2f3pMEVi9R3H22YSZg6DYfQ9sS4plGUXS5l78cIdNIBPaOCXDBQBezDjSaY/cmcVDQaOL+QKtqJOoIFLywO+PasW3rbuvmrcf122sU40pwuP44USH+eKtTT34DGjlgsc+TTSTNIoyXy+OCB3jjQVLd8mqbpjVeDTdTnAH3qo2ycDDnbbUwFqMgSVlsoaOCf/0IQP5+yOaNAxs2qu6Bzw/nNHHA68xlPBmuYeyadZH6gTEsrDqg1Fem8xiWVYpet/Qc/nsjxMwjfKTkAv4bLx5fJTKDM/uNNHM8RUP9twwI+u80AizK+X72q06/E9L4mAh1zbkXuq3mPA4WCdWtL5w+s3CHgqeeoyvRPs/UHzV9EhJrolMuCpETD+qMgqlxZdN08tE4aVgfbs1BZPEJaP7ETwNHPs7j4EPD2ueqZJVDiLGGzJ9NNMsfKL0fnFUmy6YOSEPrKxSNLRb/9TSIJkJpu62db1YuaxcvqFOWXfboh5P4ym3UTlnDZkF0pR8cPmF68qAM1pJagEGgSr7Ki71O4VNzDFmmP/K6GQ+RzkEJxczBB4d7QUTPC8Cq/YoWp87gwN4J+tdwr6fPpo5Dumhzj/DV0X3OMmuVOxrt+odf0I6DpYP8rs37D7/zHl32K3Fab8LMs1yd4fdm+uQ8Sy7WjFi8u1us0xBP5AHPm/SquwhCuD4UTBk9GXHZ+x4LTRjIKVQuu+u1eJKtn+R8NBfC828rZupbLMsEqod6KfL8gp56TUzMM/wfkB4tFM6C2kr7e7y2U6QlsOk5TCFXyYZazx3gBznY6CHgiQ9kfAY97L1d5Db5MKdks9P6PQO+v1jce3J/GRcUiLb+8A2bd/8B6MEcjcV5KaJOslLJjtO64E5RIcTD8USdc3rohlynJVgtp3SC6Q39ZMJQxXkPzmmax8lwjSviRpDwu/DUlqf/hvPi78iHv25u+efuR/+T+jo/Z/dj//Kq/yAJUem8cRBnfeLRk1qHli4c7TxgV1mpZZVKuLdAmJgU73ypX46ijl/Vy/2OTKwuI3n08A3D+Uvjmmfqb0h8QjToNRr/OR10ex/tNJOfdAck9PkSDLKZHX3bcbkJId8DQqE/hR6abzVM/j/uDv/kbtzgbsr4uj8M+LRv/BaDvtYYQ9YHwvdFAzjTgzkTvc5VvD7v5R80Csl7gMifk6ZkQ+Kr5sDPh6hPY7r08Eue3pkTZ1poFbwJ7zTzkcH1Q9GiNkN2kgMmjmO69f6Pj+mSxUcrf8kn7Tq4xZd63OHBmdodmIVjmtCZuAiSNL2FqJ/gTCOg5BNPPpzr67Mx9jDOqWwUUe77buvmc88xYPLLuEetuKaOaUAGYRX7FHILNTxXhw51sUgV+ArEVhZJe8Kyr8f9tBJP/pYmHvZNKE3DNw5cY2NtarWftes15ZNGJr9gP6kRY9UHJEedgHCiUB6mWx7i+7UY3zESLpJFsF60gmZkQtoZxsx+HeTQtnPsInHf+UziDk4Yety+2Buqym9QLpw52hGobT+ni2gfxg1U9+gtUuSkiv5qElrdtHFNywp8fnNpeWB3HOvVbb1t+Vi+1lDVFEwMDXTa/Dhq4e68em5jiR2YhOJZshxL/Xk9tOGjOibQsSNREgnn1Ei/eCAurbNcn+EkJp9Jift4uvnMZCbFaM4ZN0e6QdxQtkPaE//f6CdNwPzobBRG2uUflE4FQOfHtHifLQ9hNztITeKJBVJFuZIylqNuIf57JQ+TjRnlaCsSELh3oEnT9IgKPjZMaHKqtODb9CvUvPAil2yuttW/0gn6Ufyv04kmpHzK+TkNiqv1ZRdLkc5T2Mw6XEVfVaZbPN+dd4Fw7FO+60BV4+UeK71jhh9EpNPZpmhQ27xWY2tU4Kyu2sB0bPAp/49x46xZ4OT/uyQxu8rm5YPcs4ZXXyKKsIHmzrsmcVjbi1NHXa7h/3gkFDawiCgjAkhGNhyKKQwyjQgYXYx66NUn49L1InsFX8mNQ/Z7evvWueO12SC0ewHtM5BH+6wf7BPPWmsDqImhmq0IXd1Ecgslq6oVGxoUH10WLO1SfvVcd1XzTNxbG/WPehId3dE7PmCZGWBHWHXAu+rZax31I8wBnKX+51fHNO+t1e1vVnbJRsroKh30KWtJv9IM0qkV/udVoIvBz+p5wMfGFt393XrfUnMvpBqD1HQOTVkYwjKB+7b5w6UpxazHT9XgBxnJ5ibg67vzxqWITNvfCYoPyPnp3BhrmRhrgQtzXwjuf/mSP5b3qsnbZNv/sIB3bmA6P8PNH4jQBmCggNa7/1R15CepMYFplEj+XULnzYTQ1vAbkDoHPSyyjjIIgKLSmV9Km/g/tNrvNCRq4WC36YG3+B3QCRZVqlo7LDrHXOrkmzieXOA4h4KvtST++7aNterUJi7KD4ngWCqzUw7V/IPu3pMU2fM7s4FxLN/SdqOsTDERBdsB0PpkFWejw5q0BIkAuvEyj6VV2WnkH/LpC95juTTY7rXNxHfB+7skvhSKMVD8FzJ0jJZUw8+B4vdJBHNHMexkLO4mM5Rd8VV0ztiZWrBtHyy4iHxa1yzcOfowvL74Xx3MhkDXc+j2WM9TMOo7JNi4b1h9wYx78QskrzXoBrQkFKLb2nJZGjmBbDTT4W12gGWEU/j8oBzeXEi0My/kGvEypO9+PS8UuPp7etck1w0+3vGsJzBQXdI3OXXzZvqVchhfHquhq8B2Viraq7kH8oe6x5MWWj2o9lnOw65iQWXhtBBTuRN9FB84Jk/JXOu5JPDmmGDb8TsW1o8GZpzJdliZUJyUBx7hC8pjE/Yi0FhXg784ID6ygunk5wjOtVw5M8Emv3PpFloctFPFJ6mLvu3J/XZVYrUQilyu+EVdrHQFoPECflKBBYWjnTdnJ7c/J9px90AUWkIO6VETZultd/h9wJ1keypXnz5bj5BVK7k6+MoFn/U7EO5NGNLGrmSwquJ8W5p6LRnxdaZTkpG3mV5W5Pm/og7OPNYYOBzpDFzaA5g2kWycivVISEOd9q/OaVfJ1Yi1UeuBKV05zUbaJpn9liYM1p1+r3p6DSGV7GkIjCXVoL9ukWXVQA2iJUGJxKmcQ97pBNHOWL43e13J/RKG4XkZn9Gr2gwwkBqkfTqQGISd1fetiI31GjPmvQ8D+WvT+oeKzyeuZ1hYqbR7J94CFFOBreP1TnoQT15Z9h95KFd1Gra3KTNrlEu2S1HAe6FYOaOfLC+4ZL6/oIpAZroXUDptnFwXHnBcTYP+8UZw8KdoxvqVX63etzDHu7AF5eFoNngZCcJA8mVrN6rHjb6ErKil9ywZEwbzSJJRj5KrfRSR4Y5nwTe4bnTmB00h40f8mYXFqJdo4eBNoI1OBk1PqOH0Ul51DumhGbvYGYwY/YPSu9g74y4FeNptSLRLLVQFoJZXhXTgS5XUtRqnF6YSRhtOY7Lu2KeJHViNPaMgSUV8j13bNqYlXsinzhbZ+YEmmdr8GHP9foUnpF0d9c/ikO/8WdE/7+n8Kthd4j8iHvYxk7cX3V9YY7k2xad1EIRFNy0Tx1Vbkal1VGRSW+ClnXsgiFafFAM8SM1H7wjVp54hNs9E3vcyAHOqTPzaA6aDkjTrk7P6FJ39z+NCeg/I/r/o9d+nmLdQT8WbrpI9mRgFyiS/L5RM6hD0exbY/hpYGB1leLedJNmRPZjymjmUx1sOaC68dI5l/d8kSOdR3MITSDHkN4hUvYZ8fR/dz/8J+GYfriAePSXntG/9zna44GyP9istc+R7dfQicDmfep+jZeFXNktlLlLmDWKwPv7UVnLYCtMSC+n+GFqaMbAokLp9uO6XjmRsB5MscPTvnwezQKkg4yLxq97ZR96Bv6bp//viL7/SDz/T57+v/dKl/iMDaxPKfCbKKdo3nryjt96goFssbKXL1J2vMe+cGeUYBAMfHfaoLInLJhyCmjGwMpyeekV04jZ9zpee1GIkfTT82iOSmIG+mjKwBDPaWcn7epmfTI+QWbU6wW/gBzXp/F+fJj3mMNA1i75rUGXj0GZj5HzvqCPYQGovG5OVCFAjuOwS8Z0oTw+ISsD35N365QnH81Fk7UgbSNPzqM5kiYJPiO3Ujn+ZHN8hYeWHtxDwSGjb5mgWgMDmaWyQx32aadnjux98XVLRmRO12A9BgYyi2Rbj2huvnS+TvWJyEfP8Jl5NCed4HaCrW2zpvkrtIpA+VWzw8OaXMxHjRqBBBcYWF4uP/fM4U9anpDO1bTbYgTVp2BgxS553gXjY7knWnGThHRjBm4yj+akE5lmuQvPHEvLx4zbnxxDpW8JGpZcMQqEn2BgbY3y7pA7gXlWGx/iiwX9NHjz5IoKee1t64jRN4ux1omag3k0J4qSse7Tp/J8ekCNfGJFYHGlfMiAtAUX+x2pkZVHMLB5r7+cdawbTum7thFihaBHKIYs8C09uG48hc2UbjsHL55H80xMitXNVl4xj8X/iiQXn7toFr4ykJsaImwoIvDxQc1LXiedqJ4Nm3xrqviVIUhWTi+QbjmgvtrvdCKF4VvyN4/mmZhIFnJXXzj94UwLd47uuGj0UhD3svmXjOEWQQwlnJW8dpHW4FE5feznJ0PS92QWIY1y56g7UebG4MfNYnsezTNEfIWN/u6UISUfpdTIrlHKrEhMPdJlR55VwXo6DHzVkuAKTpDjTj3GkRsd74OaUSDdflL/XEO+BYJy2OTNozmMIMn66KHgmT7H6vFsXcd7cchxjxSe1dWhtdUwsD3RaOY4zuhivzpnWLhjNDVH8ukR7bDp7Sy8O4/mZME38r5KO51zzojKp/KVmqxuxkWyOy4Yw3jzDyd1065sGfnQwBmHl20b9Vx64bC4J1xYA9++HY15NM/cPNIQtr1ybhQrUzGwuEx29aXTR8Pbr9zpqEjKeKQTBpKE5pkb5+w9aR7NM0p7O5+rfDEf4rr9lF7voA0O+lOU+nbcZwMD353UqaxvpySQbFrPoznZFA6/PzD7th3VpOaiilUXnjscJHv6iSOQCSmFl5sV82gOJ1tcn+fRHBeZEntRF3BvqlOm5Ei2NmqGDeSo2fd5s25MesbAl806+bRqqCW2k2/i3ebRPAuzhnJ8DbhWVSkyC6Tl18x6B33x2YQP9O+PaBMVETgLY5vVR86jeXbI76Fg8yP8HbEyu0J+sd85ZPSJzhuRsVAE3m9QP1N6p10UYnbGMzee+haiGfcwwwbykcLTBYjA8VTpGTFTggH0NIQuH2txM1qc1uK03kHbCIagYLKLw9kJ5uQjfJVY+ftDmk6Ju/W5E9V4xcDqGuW0aw/PDVAlrBcUy2lxZtjoGzKSgUON024fHDH6hg0+v98sxXIKO/VC440XzbiXVdioAb3vqZr0H/06UmqlTC422bM+Jdr4GHh32P3dSf0H+1WbG1Sb96Ljvb2qLQfUP5zRP1N7wu5GQ/gAELW3rYUXjTvPGnaeNeSeMxS3GsVtlk5AJNAtM+y5/o9Wgjn9BF9dq8w7Z+iQEOXXzFnF0mXl8kvPnYIvnuBN3uKTRid98L5921Htl8d0Xzbrvjym29qkqb1t7dN4d5w3bj+uax9GJcfVOL3rquWTA5q40Cy3Ud+c0H9Yr9osVm6qVm6qQf++W6PcUq/65KD61qBrdqtdBE8nQcFD3fgyf26hQP1GvrGyQt7aH57WjWJh3T3b8jJZZqE0vQAdGQXSzAJpdoX84AObjUhuuDLkONzLXhtwfXJMW9xquvjc+dkRbVqxtP6uFX9zIqWD6Z/YtsFJ77pqWilWppdI0/Kl6SXSpZVyUavpzoh7pViZhoFdrUY9Tl8fcK2tlKfkSOJC87nnjjS/lX88hTjagPPHwhzJD+cM9iTPevw0cpJQ3GZdNJ76eyJYiC9SfeIJHnYrioVVbZaMsEAjvqLw3rvWmUmD6aFgFyByzhvEt60HOu3rapT5Fwx/UkUWwyYl8JFhocJGDerI95q0KTtHd543dAECWKj2ITeqYp8rWVuruj1MFF0yZRZK40Kzh4Z5raYJY1WQVyHCighkVylU9rmi7cc9bNUNS2bRWCL7CTTngWW75E29UdAclgpoZtHMcRzFwkE9WX3HWnnHktNq2npM91z9pgeCBDD5Wg0IUcGGbWcMKTtHd7dZ3XwVxusv3Et2owTYqQXgy5P6NdV8gY54ePOIybdhnyoqmvNQZvybA+45sgfHPUw0NC/fJT/2cI6i2T/hZhdzts9RdN38UYv+2qD7jUsA8FqwjfnjbWcRmkuvmZ0k66XhpWeORaWylAKAjkKQUgRQqjcMTCJpQI67MeBKi506O1dSftM8R6IjkaRxyzphWgtaSVbslkeVNGabNwem0kvBPi0pvm/f22kzzfHaioFOJ78RjGa3jz3Ri2fukq3fr15Vp0Q5mfapt57SZxZKJ0GzywerbllSgx1wg/Axto6LwOYGtcoWkl8++QMUfgJBwYNd9qXBu8BxEX9lufyS0C4Qyc1zBs3+UeEe2CEh1Hii8sMI0+oNOhuG5pZu+6JSWf4l4+6rpk371Hvv2w522JYWyyZBs8xKvYcC2sY9vCKhzIvOWaWym68mT2M1A+QjaXhr0PVls3ZjvXJ93dixsV65sV65vVn7WBmuoRvbBc4xNPsJRc2VQoozMG+TPOLrC8aMPFBx0+IioZNkmzrwJWWosttLA/lYTWpx+kq/c2W5PBaaWY5rG3ahTMOxeTP/bWWbZS5sW35L8WYlmAEt2SMjHkjc9/mjW0o8lBEvtWRkDZG5jOZJZvhP6euWJ3jueeO1AaePgQQF2wbdxVfMbUPugEHghca7+5o5Fpq9NKy8ZckM017lgZTIVCO5ks+OadX4nBA2pjTL82ieErlm62LcC3UO2l9/kYWck2SNTvQxEKDrpaHBScdCswanPzmoCROal5bJNu4dr10SEDxEYFmFrAPMCWFjShSfR/OUyDXHL46F5muDrmx/iYMAavPAhwc09fdt74hRnd0JbS5fTKD2rnXamg2Uh5yGuIfV4rTMSknMPonZByw+HU7jHtZDw8BbGI2gkNfa+hgY44g0wk8DzZDjSAa6SNbhRR3GPajhItEKSAX1cvwy6PBOHC4S/lbDPUbEP8NyBAUdJPqJnWD8v3VTrOB+kKRRfQKHF9r4K90+GChS6KcSoioFzS5GbhsjqdxGmVzIC0Xwhv5fkQy0uhmlnfbPgtxKGZ2Mw4sqokcjfuzzEHJeGiWZ1+G0fHxypVZK56BxL0ygDT8qmhnI7b5mDquXkV4ozT1v7JZ7v23RowI8QShPEaHQ+WmYURjImd3MU5X39GO8ps2y86zx6xbd9mNadLTodp4zVt2wnH6M98oJo5OJhGOAjriX6ZETN146ox23Bp1PlZ6w0mBTRTPkOKOTaX3ubH6I77tvr2qz7rlhqb5t2//A1tKDDxsn9g52gr3Y5zj0wFZ321Z101J921p313boga1tyOUJA934GBiWe6nznnyE779nE9+1Vd6wVN+17Wu3nX6C92u9YT9yeNkbL11Huuw17bY9d6w17baj3fb7I+5AAju3jx3Uk2ee4Luvmr89qd/ejEj6zQndrivmll78oZQwu5gwfNIQjpp9rf3O3dfM354a+8nXLfq8C8b9923tw24NTk3JsMCTi34s95x76qi5ZcUuGL85oUcz26zdflKff9FYdcd2+pnjidJj5MvEjFNimv9HRbMWpz87qEkNxisqES4/2o1rHYz4ugUpOoJ3hyKwZLesC4yV442zO24f+0juEbdZtx7WrK6QLy6RpfrVC361Wh5ILZBmFctWVcg/PqQpv265LyHC4Oh/EAu5lzpyx2n9hmrFhhql4LFJrCxqNcnHazj4fzhVNDMsbO62r61UZO+SLSuTZZXKskrQv8tKZevrVI8VY56cEHKDOt/aGsXyMtmSkrFrlpTKlpfKtp3QWaIokj0UbHxgW7NHvqxUtriM/1UZaq+rUtTdtxGhVVAUNnp7kzZ7l2xxmTyLP7J3ybYf1b7UorrfJid99gm+vVm3ulK+qFiG5nGcpIuKZCvL5R8fUNfdsQ6bUGp0/5+PgTcHnd+eMqzbo1hUJB3bHfFTnFYgXV4m21SnLLxkfKTwxAlokoG9vYPgYAAAFoJJREFUUqLsivmDA+o1lYolJbKxFP9+2OSDjCJpVolsVaViywF12VXTI4Uncps+1rn4/ouK5g4psb4qPDj+HbHy3oibZuH5x/jisnBdR2qupP6BPX69kt3Dnnrs+OiAemmpLC2I3CEsf/x8Wh5YXCx7t17VcNcamQ2WYuD9kfEik6Fv4NjdMJCWB75q1o2EJl6ZKppNLoaXsibA4b//whyJ6LzB4BhLusxCrk9FpvrDVwPvPF/QcvNhjSkKHyIoKL5hSS/kM+EG/WpRAai5Y3WFohlYqA/r+KKagfGKwNpK+a1Bp9HJ1LfbVlUpUKLbcRBPUJU/k5YPlpXJ8s4bJCaEfh8DW184N9Uqkeo98ifjs7CoSPrRIW2PIlzRGQk2k4vZ/8C2oVaZVRyzPOT4s7JKZFsOqI8/xF+ncLcwmr0UrL1nQ8GYAZrmgfR86VfNumGjj+O4h1LivXpViOjMK54/OaLFvXEFuNsIpuaWZVmJLC1SQxKYnohGah5YXAiwVpPSHlIUxMfA9iH3OrEyuMMT88ffJ43v/2uiuf6+LVzEQgOXZNcoe+REYOUeQ3MoAVF/ciXvN06CZlRvLnTgWQXS2rtxoBkD2WWy2nbb3ru2JaU8hkLvE3bbFD6NfsUVkxqnLg84N/DB5OHXRNwhDQMb61S2mC5+apzKOW9Y4n8tI+4Q7RGpGFhRKiu7bFKGrp+Rr0q0M8JoVtnpH04bwlJYLyqSVlw3+8GqslO5gZzEQd1dUSZ/opr8xXWTbH27FU1b0NsSbZDh50XovRK1moLX65lB84jJt2I8vctEr/jafuLbIQ53iUXzonwQF5rzQEahdE2takVF6KIaNEET3fafFKHEiuXXzR8eVIdNd/iVwTfZOSput0aD1G/MVXTZnJkfKogG/zxGGwNLSmTVN61G53R8cYXR3CElNjeowsazfJfs/LMxrx2XDzbctUU6Xmbmgdr7tmjj9J9nWBQVt9xfCiRyYBhI2TmamitJzZWk7IxSaF6EfE0OP7QHhD6ahV0SAoWO5o5Xzoy482vyZpKFVXesAmZRDHx0UPOIr/8QGHhi0Rwvb/YPeXztDpu+qB/zecedqayQKSLwTq1S7xRYhCkWNnbZlxUL8SkkaIGUHEkqf4xVOo2YphQRqkp/shflbA/QM86GAJoJHzzWZc8ul4eMHwPrxIrnmrHy6BTLXRtwvlOtCBM2UvPAF0d13hjqH45T2qkvW3QC6zUGMvLAhjpV0RXT4U7boQ5byXXL+/vViwQXLBFYW6sM9IfluFdG8odzhpVi5VqxckWlPC0iY/HroBly3FMVuUYc4UuIgcWlsoZ2W1htv8SiOX7eHDZl6RhYlA+WFIBFeWjbEPJt8MfAComB1Dz0k8UFICsfpEd7MUTIbe3WSPiOH3LcExX5QWTiU/5ZmYXSjQ2qomvmAw9s+x7YsCumNWJFenA3Au1cyWeH1P1qTyxdphDABdCsstNFl0xoVxu4O0+Lb0/r7Z6J16Vf6/3scLjSIyUPvFOp6Oe31UKP4xiWO9PnQNujAAX9T8FAVpEsr9XUr/W6KaSU9bHQTUFgoWraLEsjdpyob7mSgismavzN8TFIseqP7bvc73inNny1fR004yRbddMSWXUvLR981qR9ogp/fxOL5qnxZp6e6QVgdbUCazU1P8avv3Qe68W/aNYt9m/IgqY1eIpRkv0S6RfHdA0d9ssDznPPHfmXTdmV8tQobPvwQ/sEGvjJxr2s+JZ1iVCoxLJSWell87CB9NCQZNDkemn40uDbec6Q5a86ENwrDGSVyg7et001CiQczSzknio9nx7WhIwzD2RgkkOhzsF6B1Ps9/kP7kceWFosPfowqveXycW826hZmBOqq+bfFuyCUS1UM9TkpKuu88mPQx+UgoGMUtkrA9qSh/31yIh3G8J3hNNGMwu5h3KvwBYTAysrFSd68EilYaLRHK/c7J+1tHzpJ4e1d0bcwYu1jYCFrca0SD8FP1UxkF0hP/MUn1CYc5zDy556jK8KU235rxeBosum4JcYQq5PQ37aGI6cFAxkFcuKW01aIceH37xeReeNYWDzf/ziqHZIT06JPYej2e1jzzzBV4cNAANLiqR9WqTNCPy5ffBoFx4ukOSBzEJpwUWj2S0sxT+UEymRkgMGsvco7g0T0YwjjxWezULrV2qO5FC3PdClQCOxaLZ52JJrZhSrE/o6peVLvzuhHzWFkMXfh8SieWqSBgZW71Gcf+qItMv2Kjwr9ghXRM4olNa3WwNOPP5RQI4bNSEtvoDeSQR+OGsI1l95aHi+z4HCQEJX3VQMvFuv6pYS44toYJbGGt1Sj0CdZgysrlbeGHBHjiL890Gfw9Gsd9AV18yLwiSBXLCuXuUkQxYWmuXuDbs3hak885Dg9eFB9VP1mIQd9CzUrO+wCVR9FEm+PamXRU/wY3TQFVfMSBEbiqeUXMlXp/SR70Bi0Xx3hFgbqfvDwKoK+enHuCC5E4zmgqnwZgx83YzqH4dRHplU3Kywf68IbNg7VpYz7FdmF1PbZsmKVDWKwNcn9FZiYiNodjHiNivSDIaiOaNAil0wxjD12Tzs16f0Yb9KwUBmiezQAzvumXhEWN8iP4agmYVcv8a77Yg2/NY7JbmtpsgfDxl8Xx7TRi5eq/bIzz3DBQOBvohSkbfhTqwoZYKCLb34WCGcYECLwMZ6lT1iwAlEM+5h8y4aw935kfYd7DipD1SHDyNOgtEct4YuJQ9kFMuq26yCUfQkA7ef0guqZfIuGgVLwzu87PGH/AocitEUEdh+Qm9yTUBNbqVyzxoQGEKvzCqWHe60CYLBTzQawvp7VhQTFfxD3vOnuNU4pWjfEDSTNLzc71oVthihZ0iuvnSFTRjHcRY3U37NvDh0v+iXk3ZdNUeqDL0UXInclUI31xjIKpNdeOaIMWCKgdcHXUhyDXZ14g1U2eXy4Yi1PoFovvnKvS4sYTj/3HdqFNcHnNEccRKL5insAjGwXChgzD93DMthkQHLPG4a2oW5idsHzz9xIEgEQ423lAWjmeX8fFBAaF66S3Y5IuQnDEutL5yZpUFpf/0MCwPbj+skJl/A9h72q8iPIWi2uJmam9bwnbsIZNerDELabJrlzj1zrKwI1eXlgdR88MUx7aA+fH9mdDIoYi8CzdlVirYhVzS5iuM4BnJdUuLDhgjrYx6yHvUow6WaRKH5hZ5ECbUiDAFZxbJdV00mIZr4SZxYNE9Bbubln0v9zsiZRmRkuaKrEeH3GEgpkjZ14y5ygtEGfk5Q8MJT56RoplmuGxAf7VNHgn55ufz+ZN47PXLPkl0oBjtEkhRJPjqI5J843UI4jgtB8ysD+VmTNpz/5Uo+atH168lRMxV5nHkasWXkWdd6sfLaCxQpEKALx3HA4kO+/xFv+Rqx8u6oO/Ta4N8hND9TeT47pAn/bR5YViy9ORS+biQKzZcHnO/vDfWF4NnGsl3yxofCErO/34lFc1b8cjMGVlfKW19MDc2pxdKjPbjbN300+xh4Z9i9uT6CViLwm+6/NyKALWR2Oe6Z2ousaRFo/mC/+qnSG7kvCvt54OMEmlmIdnXIchuBtiVViq1Nus+OChzv7VNnRtaiw8DSUlltmyUsu8qo2ZcRJirwa9baWoTmGJ1mINen9mw7LIDmpUXSKy/DJy9RaO4AxGdHIlbPPJBRIN15xhAj1iaxaJ4Sb54dNNPw5qBrY224QgOlW9kjfzZudAvALqwxqCcFlC0iyQf71U+UZAxghN1nAs1Okj1yz54aiTae16blSQWPMJfRsZWCNyl924KEnuDnITSj+qFhCwqy6sWF5saZRrPBSe/vsEfu01N47WzLk6hq9cSieUpy86ygmWK5B6PElsh1jEdzX3Rrmh8efWqvP9tLmKQxfTRLLb7Pj2oXhvngBysQptTm64S2vQqRhg1ONjO4xof/hiKwokpx81Us3kyzXI+M+HR/hFiWB5aXyDpkyZKb+RAM6jOhtygVA180aoeiFHeKgeY1DWqDQziA0u8ROn0fOp7vzAqaaRa5VX5yIGKCeEmjSx4+QcE8juO4Lqmw3Lz1iLZfO3W5mWZhxyif2ytMzJgSgoMvxsCiEtnBe/Zgr1yChlkRW8YUvk76lX5nwEYdNlSO42iWa3vl3hCp0xCB7F3yQUPICsBxCPoJtAWef+6INBKlYGBxifTAPVuwvS3Qcwi5EYNPwLMKA6vFymgROm8umsdEwSZtZAT00t2ySFEwQCh/49qgK5WvBRPCm1EJGP2Iceo6DSfJHuq0C5R9DgboVNsYyD1tCNPIbjmsCZc0MJBSKG3qsAvuqf2jJWl46sl44fXgbojA2jqVJUiH778+sWjW4NSO0/pIlXMKBn5/SPNMJeAcAzlOZqGWh+k6+Z5nlckGtcIG22honvtyM8dxUpPvhzMGFDoUyhCzSmSN3fYYWjbIcQe7bOg1CP1hSj4oaTXpxgMgwl4AwY9jcrMOp3ac0Ue+WOgBcR7BIPO3RWB9rapDEuJpVX7bglwBwy4WSfLOGtTRfbTNLqb6hhlV2gsdcKoIfHVCFxntklg00xDeeuVaWRWhQuId6PbesVqEzPhGB73+gDrcVZAn5oVnworqaGie+3IzKrDpZPbcELAaZuSDwlaTIIn8iHRTbGGrKRwSGEgrlNbfseJxp5/98ccfx9DcK/dsilSvYCgQcLNY+d5kx7s1isxI13sMZBbLTvXgwXapDgkRnl6W94ZbVa3olBCCmkUIuX61d2skU88DqTmSfV1J99PgOE7voEUXDMhdIfh14qH54X71g1GBDIg2gvnurCFyH7IwR/LVCZ3g7BIUrL1liZSb3wjejIrVPsZX71GE4TI1D2w5oHmqEi5O7ze7bNor4Gq7skrR+twZFg0pyJL9J3/66acxNB99iKP9WfBU5YH0ImlVm/WxiuzTTnI8lBMfH9EiX+wwppsrKThv0AQ5T1kJVljYwMCuK2aVPTiGH3USQs7sYvbftQm+LcvLZL9VDIkcYWJ5s//+vXJiHQoeCx0j/8buumqJ9P4jfOyRTrvgcpdaJG15jJvdDMWEZFbwULCujU8JGUrGRXNe3+wnUZ/Ks7VRE+lBuqREVnPLoneEW05ZyOmddNlVs4CYwdfmGtQF4jEiJzn8zC+//DKG5oJLRjRPwWgWgexqxROFJ4ZRI3C/MVN7pHZPJNmCFOCegNhEQ3i0BxfI4YmB5XsU++/ZhvWk1c14KJRmAfewErOv+SG+rkbApp2CSfIuGb1CEQrJQLPbh6K/0OsaTCX+47pa1Y1BV5j7EcXAB/6NddgLwP9kRY2y7q7twSjxSk8qLJTc4hs1ko8U3p1nDCjxexia4/fTmCXriR8JVoKtvmUJCyf1j2V1teLwA9uI0Yd7WIJCuUdwDztsJBvu2ZZG5Gzxuxw1tFunVNvg119/HUPzwXZ7ONfJlWxr1gr6pAZAHNxoHyUiubtfL3vuqSPYziQxU9uOaQVgkYdcbL87pd/bbr3wzHHhGd7UaRedM6zxu0mEYUgE1omVjxTCqp9koBnZMq2+1XydvzC0peSDnAtGFR7yYkHIKa3UzjN6wZEilcgu+fsN6m+O63LPGnae0X97Qre1UbsiUufDB4PEGReIigDNhi3QjwTeEdzz3t7wGLwU3rNy1R5F7llD4wP7uSeO808dhx/YdpzSo5oekW+7CHx6mI+BELBOBoNuov3zzz/7ofzHP/5xgdn9U5gr3MIcSV2bJZBqZOJ3UVpSC72xXhW+6clDsvzua+Zgh0Av8m3iHVkih4GBlALpkl2yNdWKNVWK7HJ5eDi+n2mJQGaR9GCH3R0alB/oWpLQzECu8SGOxhjxai3bLb/2whm8Q+A4zu1jLzx1rNwjNGH+gfjvkx+U2i/szvxlb8Qu0E98F8nuu29bGulByq9IGYXSFbvlq/co1lQrlu+Wh+9DxmmSXS5v6RH2GwlMcVgjwJgRmv/4xz/eeuEJZjkZhdJ7Qyh1RtjPon10+mBRKy+u+PsU9O/WJu2AdiJMAXKcxcUcum9D8VGCgA7TogTdys/nMouku65adEHieFivkoRm/8798yZtZOxMigg5WimtIfoVFnIKK7X7inlxxJ4kmNTo3RACceCaN2IXGJgCHU6XXTaFu8gHJnGyyV1SJqu8YYlfKOA47v9v71p/2rai+H+WjGkaoDasrVapm1pp6tf100QgINotBQJZQnmspVuXdayiQrSBhMC68hgIUFWSUpBi5+G8gNhxjAMxxMl1QuhSXTtxgu0k3YdpqkQUydeP63sePx/fe8+5x6enp6JhLqK5UCj8sUwXJdiGXBnAtpUWKYlESwoZwD1ZpxQX/Gn6/FZnorKDmwFcmGLNc7Hyx6NEbmsUeK94o97bbSP85BncSIj579CcAZzVRTfJ1ynq4Ovi8eqZCRze7wPehI+047twFCt/dGswW3Hqsw60b4ao9EPxIVyy7DC8/fsfexqiFjxEqnsqqtAhrmBKfFbLBR0MUTLOxjyEdDJAvLO8IA7+REBD2yz8HK5kQ6dHpUU6+cw98so1jrwKJFvgKm7pqL+hyzMgC8YXAD22St0cDUHHhGQMKmG7FN1x1Yw9XKRCVJ13xr9Gs6y5Jr232jepdmi2a3JPwaDq0Bv3g64II3mdpdJga+eodxrXGHxqHSKVj6RpcVew1m2Iug35/I7n3jyZLOZRKmqgmOtIJu36aJYEL+jQ+jF0SrFolfHNElQIyrUsU5eH+Bl3ed9MZJMPO1O3ow065MZPQcsKVO6HTDwILUqssoDhMpoLhUKUzukn8SdrVLXkfxLSxV08kb41tqNuQ1WtblUrAr0kWoQvu7+1RFBc6qIEgKOZzEaQuTdPXhsOftoJKxaV3V5KiwHvhqg70RYz1m3HV71JiqmZZJOnRkCzim9dJOOTdqRq5q4OgWZ36WKk6YeqaE6lwUv3gcYUEC4Wq6ha3Q0d6PAiWe5UlUSTznC7+2nHZuK7ib1GHhmQU20J2SKzfAF2Y7SQ5ca73q8ehgy2qNVFewjpEAGieSgoiLd4N75iHTRboyWlFBUEE1zc9oyt7SvO7Bbjm3t9QkOlum5Vq7sGmoWp1WQKvA4y/TPEF4MBNVQufDKhfoU/72eAlHegVwcD5jliI8TQFSmZS8JT3p6cnFT2lUvWGG7PoFk4kX/3z0k+n8vlstms8v1kR2Fwwt7x1CZ9/2+y34Hr7bjBgY8skOMb9BqWpKpMHQIAE8iGKda+SX9vx79+FNaYsOYeX3OPr8WEXf81ctuGP3fRvhj8rvAHduMpJrPsPfxtnTL9Sehn8Lsz+MgSOfF63xU+lg8csXhq6u3B0CL54yykuXeWeLAct7polEhVCx1hUsAZZiad+yMLpIHn1PQyNroSn3AmNsKMop8AcFwGcInjjC+Wsm0f9jiIm79HvnwQ0hixi/3+5m7fBYP/khm7Nhq69XTX+CI2vZXY3j0ik5kDFubcli9dTrJgPcCMv6KGl0ieR2J4ibSsU38hyWqf/wEc54mxE86EqCDji9gvK/Hptwksziq6rtKAi9DsPHr4aI0yzBF6O26cxQcXyGdvDjZ3jqqotIwMAGCGOyzOPnPRXdbo9Z9Dl8zYBYP/Yp//ykDgG0vkjg23byUC8fQhW99IZbPZXC6Xz+er4VjBNlfC/Lx8LoGPTgIKtvmj4+Gc4HMJCBJ4D18Dicl+7+/QAAAAAElFTkSuQmCC;" parent="1" vertex="1">
          <mxGeometry x="-392" y="650.4000000000001" width="59" height="44.93" as="geometry" />
        </mxCell>
        <mxCell id="53snhaAlSA19ti4wVCks-1" value="Docker container &lt;b&gt;MedicalAI_ChromaDB&lt;/b&gt;" style="rounded=0;whiteSpace=wrap;html=1;" vertex="1" parent="1">
          <mxGeometry x="122" y="469" width="190" height="90" as="geometry" />
        </mxCell>
        <mxCell id="53snhaAlSA19ti4wVCks-2" value="listening port = 8000" style="text;html=1;align=center;verticalAlign=middle;resizable=0;points=[];autosize=1;strokeColor=#d79b00;fillColor=#ffe6cc;" vertex="1" parent="1">
          <mxGeometry x="124" y="471" width="130" height="30" as="geometry" />
        </mxCell>
        <mxCell id="53snhaAlSA19ti4wVCks-4" style="edgeStyle=orthogonalEdgeStyle;rounded=0;orthogonalLoop=1;jettySize=auto;html=1;entryX=1;entryY=0.5;entryDx=0;entryDy=0;dashed=1;" edge="1" parent="1" source="53snhaAlSA19ti4wVCks-3" target="53snhaAlSA19ti4wVCks-1">
          <mxGeometry relative="1" as="geometry" />
        </mxCell>
        <mxCell id="53snhaAlSA19ti4wVCks-3" value="Docker image = official chromaDB" style="text;html=1;align=center;verticalAlign=middle;resizable=0;points=[];autosize=1;strokeColor=#6c8ebf;fillColor=#dae8fc;" vertex="1" parent="1">
          <mxGeometry x="360" y="499" width="210" height="30" as="geometry" />
        </mxCell>
        <mxCell id="53snhaAlSA19ti4wVCks-6" value="create" style="edgeStyle=orthogonalEdgeStyle;rounded=0;orthogonalLoop=1;jettySize=auto;html=1;dashed=1;entryX=0.5;entryY=0;entryDx=0;entryDy=0;" edge="1" parent="1" source="53snhaAlSA19ti4wVCks-1" target="5n1h_S0CYBmryCAy1Lux-18">
          <mxGeometry relative="1" as="geometry">
            <mxPoint x="220" y="599" as="targetPoint" />
            <Array as="points" />
          </mxGeometry>
        </mxCell>
        <mxCell id="5n1h_S0CYBmryCAy1Lux-20" value="4. archive document to" style="edgeStyle=orthogonalEdgeStyle;rounded=0;orthogonalLoop=1;jettySize=auto;html=1;entryX=0.5;entryY=0;entryDx=0;entryDy=0;fillColor=#f8cecc;strokeColor=#b85450;" edge="1" parent="1" source="5n1h_S0CYBmryCAy1Lux-3" target="5n1h_S0CYBmryCAy1Lux-4">
          <mxGeometry relative="1" as="geometry" />
        </mxCell>
        <mxCell id="5n1h_S0CYBmryCAy1Lux-3" value="Processing" style="image;html=1;image=img/lib/clip_art/general/Full_Folder_128x128.png" vertex="1" parent="1">
          <mxGeometry x="-121" y="479" width="80" height="80" as="geometry" />
        </mxCell>
        <mxCell id="5n1h_S0CYBmryCAy1Lux-4" value="Archived" style="image;html=1;image=img/lib/clip_art/general/Full_Folder_128x128.png" vertex="1" parent="1">
          <mxGeometry x="-121" y="719" width="80" height="80" as="geometry" />
        </mxCell>
        <mxCell id="5n1h_S0CYBmryCAy1Lux-5" value="1. detect new document" style="edgeStyle=orthogonalEdgeStyle;rounded=0;orthogonalLoop=1;jettySize=auto;html=1;fillColor=#f8cecc;strokeColor=#b85450;entryX=1;entryY=0.5;entryDx=0;entryDy=0;" edge="1" parent="1" source="TdOf5Kdvonn5jJfeqZLo-10" target="5n1h_S0CYBmryCAy1Lux-14">
          <mxGeometry x="-0.1297" y="-15" relative="1" as="geometry">
            <mxPoint x="-90" y="249" as="targetPoint" />
            <mxPoint as="offset" />
          </mxGeometry>
        </mxCell>
        <mxCell id="5n1h_S0CYBmryCAy1Lux-7" value="automation flow" style="rounded=0;orthogonalLoop=1;jettySize=auto;html=1;fillColor=#f8cecc;strokeColor=#b85450;" edge="1" parent="1">
          <mxGeometry x="-0.0769" y="10" relative="1" as="geometry">
            <mxPoint x="-650" y="123.64" as="sourcePoint" />
            <mxPoint x="-520" y="123.64" as="targetPoint" />
            <mxPoint as="offset" />
          </mxGeometry>
        </mxCell>
        <mxCell id="5n1h_S0CYBmryCAy1Lux-8" value="user interaction flow" style="rounded=0;orthogonalLoop=1;jettySize=auto;html=1;fillColor=#d5e8d4;strokeColor=#82b366;" edge="1" parent="1">
          <mxGeometry x="-0.0769" y="10" relative="1" as="geometry">
            <mxPoint x="-650" y="163.64" as="sourcePoint" />
            <mxPoint x="-520" y="163.64" as="targetPoint" />
            <mxPoint as="offset" />
          </mxGeometry>
        </mxCell>
        <mxCell id="5n1h_S0CYBmryCAy1Lux-9" value="3. dynamic load new document to" style="edgeStyle=orthogonalEdgeStyle;rounded=0;orthogonalLoop=1;jettySize=auto;html=1;fillColor=#f8cecc;strokeColor=#b85450;entryX=0;entryY=0.5;entryDx=0;entryDy=0;" edge="1" parent="1" source="5n1h_S0CYBmryCAy1Lux-3" target="5n1h_S0CYBmryCAy1Lux-18">
          <mxGeometry x="-0.2368" y="2" relative="1" as="geometry">
            <mxPoint x="63" y="669" as="targetPoint" />
            <mxPoint as="offset" />
          </mxGeometry>
        </mxCell>
        <mxCell id="5n1h_S0CYBmryCAy1Lux-10" value="Research" style="image;html=1;image=img/lib/clip_art/general/Full_Folder_128x128.png" vertex="1" parent="1">
          <mxGeometry x="-380" y="214" width="80" height="80" as="geometry" />
        </mxCell>
        <mxCell id="5n1h_S0CYBmryCAy1Lux-11" value="Nutritionist Plan" style="image;html=1;image=img/lib/clip_art/general/Full_Folder_128x128.png" vertex="1" parent="1">
          <mxGeometry x="-380" y="354" width="80" height="80" as="geometry" />
        </mxCell>
        <mxCell id="5n1h_S0CYBmryCAy1Lux-16" value="Sharepoint folders" style="text;html=1;align=center;verticalAlign=middle;resizable=0;points=[];autosize=1;strokeColor=none;fillColor=none;" vertex="1" parent="1">
          <mxGeometry x="-400" y="184" width="120" height="30" as="geometry" />
        </mxCell>
        <mxCell id="5n1h_S0CYBmryCAy1Lux-17" value="collection_name: NutritionistPlan" style="shape=cylinder3;whiteSpace=wrap;html=1;boundedLbl=1;backgroundOutline=1;size=15;" vertex="1" parent="1">
          <mxGeometry x="166.01" y="779" width="102" height="120" as="geometry" />
        </mxCell>
        <mxCell id="5n1h_S0CYBmryCAy1Lux-58" style="rounded=0;orthogonalLoop=1;jettySize=auto;html=1;entryX=1;entryY=1;entryDx=0;entryDy=0;dashed=1;" edge="1" parent="1" source="5n1h_S0CYBmryCAy1Lux-48" target="TdOf5Kdvonn5jJfeqZLo-2">
          <mxGeometry relative="1" as="geometry" />
        </mxCell>
        <mxCell id="5n1h_S0CYBmryCAy1Lux-48" value="Models" style="shape=table;startSize=30;container=1;collapsible=0;childLayout=tableLayout;fixedRows=1;rowLines=0;fontStyle=0;strokeColor=default;fontSize=16;" vertex="1" parent="1">
          <mxGeometry x="360" y="199" width="330" height="120" as="geometry" />
        </mxCell>
        <mxCell id="5n1h_S0CYBmryCAy1Lux-49" value="" style="shape=tableRow;horizontal=0;startSize=0;swimlaneHead=0;swimlaneBody=0;top=0;left=0;bottom=0;right=0;collapsible=0;dropTarget=0;fillColor=none;points=[[0,0.5],[1,0.5]];portConstraint=eastwest;strokeColor=inherit;fontSize=16;" vertex="1" parent="5n1h_S0CYBmryCAy1Lux-48">
          <mxGeometry y="30" width="330" height="30" as="geometry" />
        </mxCell>
        <mxCell id="5n1h_S0CYBmryCAy1Lux-50" value="LLM" style="shape=partialRectangle;html=1;whiteSpace=wrap;connectable=0;fillColor=none;top=0;left=0;bottom=0;right=0;overflow=hidden;pointerEvents=1;strokeColor=inherit;fontSize=16;" vertex="1" parent="5n1h_S0CYBmryCAy1Lux-49">
          <mxGeometry width="140" height="30" as="geometry">
            <mxRectangle width="140" height="30" as="alternateBounds" />
          </mxGeometry>
        </mxCell>
        <mxCell id="5n1h_S0CYBmryCAy1Lux-51" value="deepseek-r1:1.5b" style="shape=partialRectangle;html=1;whiteSpace=wrap;connectable=0;fillColor=none;top=0;left=0;bottom=0;right=0;align=left;spacingLeft=6;overflow=hidden;strokeColor=inherit;fontSize=16;" vertex="1" parent="5n1h_S0CYBmryCAy1Lux-49">
          <mxGeometry x="140" width="190" height="30" as="geometry">
            <mxRectangle width="190" height="30" as="alternateBounds" />
          </mxGeometry>
        </mxCell>
        <mxCell id="5n1h_S0CYBmryCAy1Lux-52" value="" style="shape=tableRow;horizontal=0;startSize=0;swimlaneHead=0;swimlaneBody=0;top=0;left=0;bottom=0;right=0;collapsible=0;dropTarget=0;fillColor=none;points=[[0,0.5],[1,0.5]];portConstraint=eastwest;strokeColor=inherit;fontSize=16;" vertex="1" parent="5n1h_S0CYBmryCAy1Lux-48">
          <mxGeometry y="60" width="330" height="30" as="geometry" />
        </mxCell>
        <mxCell id="5n1h_S0CYBmryCAy1Lux-53" value="LLM" style="shape=partialRectangle;html=1;whiteSpace=wrap;connectable=0;fillColor=none;top=0;left=0;bottom=0;right=0;overflow=hidden;strokeColor=inherit;fontSize=16;" vertex="1" parent="5n1h_S0CYBmryCAy1Lux-52">
          <mxGeometry width="140" height="30" as="geometry">
            <mxRectangle width="140" height="30" as="alternateBounds" />
          </mxGeometry>
        </mxCell>
        <mxCell id="5n1h_S0CYBmryCAy1Lux-54" value="deepseek-r1:7b" style="shape=partialRectangle;html=1;whiteSpace=wrap;connectable=0;fillColor=none;top=0;left=0;bottom=0;right=0;align=left;spacingLeft=6;overflow=hidden;strokeColor=inherit;fontSize=16;" vertex="1" parent="5n1h_S0CYBmryCAy1Lux-52">
          <mxGeometry x="140" width="190" height="30" as="geometry">
            <mxRectangle width="190" height="30" as="alternateBounds" />
          </mxGeometry>
        </mxCell>
        <mxCell id="5n1h_S0CYBmryCAy1Lux-55" value="" style="shape=tableRow;horizontal=0;startSize=0;swimlaneHead=0;swimlaneBody=0;top=0;left=0;bottom=0;right=0;collapsible=0;dropTarget=0;fillColor=none;points=[[0,0.5],[1,0.5]];portConstraint=eastwest;strokeColor=inherit;fontSize=16;" vertex="1" parent="5n1h_S0CYBmryCAy1Lux-48">
          <mxGeometry y="90" width="330" height="30" as="geometry" />
        </mxCell>
        <mxCell id="5n1h_S0CYBmryCAy1Lux-56" value="Embedding Model" style="shape=partialRectangle;html=1;whiteSpace=wrap;connectable=0;fillColor=none;top=0;left=0;bottom=0;right=0;overflow=hidden;strokeColor=inherit;fontSize=16;" vertex="1" parent="5n1h_S0CYBmryCAy1Lux-55">
          <mxGeometry width="140" height="30" as="geometry">
            <mxRectangle width="140" height="30" as="alternateBounds" />
          </mxGeometry>
        </mxCell>
        <mxCell id="5n1h_S0CYBmryCAy1Lux-57" value="nomic-embed-text:v1.5" style="shape=partialRectangle;html=1;whiteSpace=wrap;connectable=0;fillColor=none;top=0;left=0;bottom=0;right=0;align=left;spacingLeft=6;overflow=hidden;strokeColor=inherit;fontSize=16;" vertex="1" parent="5n1h_S0CYBmryCAy1Lux-55">
          <mxGeometry x="140" width="190" height="30" as="geometry">
            <mxRectangle width="190" height="30" as="alternateBounds" />
          </mxGeometry>
        </mxCell>
        <mxCell id="DF8i__ZBXGCo0yMitaEP-2" value="1. provide query and select options" style="edgeStyle=orthogonalEdgeStyle;rounded=0;orthogonalLoop=1;jettySize=auto;html=1;fillColor=#d5e8d4;strokeColor=#82b366;entryX=-0.009;entryY=0.07;entryDx=0;entryDy=0;entryPerimeter=0;" edge="1" parent="1" source="DF8i__ZBXGCo0yMitaEP-1" target="DF8i__ZBXGCo0yMitaEP-32">
          <mxGeometry x="-0.0687" y="10" relative="1" as="geometry">
            <mxPoint x="70" y="1170" as="targetPoint" />
            <mxPoint as="offset" />
          </mxGeometry>
        </mxCell>
        <mxCell id="DF8i__ZBXGCo0yMitaEP-1" value="User" style="shape=umlActor;verticalLabelPosition=bottom;verticalAlign=top;html=1;outlineConnect=0;" vertex="1" parent="1">
          <mxGeometry x="-80" y="1110" width="30" height="60" as="geometry" />
        </mxCell>
        <mxCell id="DF8i__ZBXGCo0yMitaEP-151" style="edgeStyle=orthogonalEdgeStyle;rounded=0;orthogonalLoop=1;jettySize=auto;html=1;entryX=0.5;entryY=0;entryDx=0;entryDy=0;" edge="1" parent="1" source="DF8i__ZBXGCo0yMitaEP-32" target="DF8i__ZBXGCo0yMitaEP-132">
          <mxGeometry relative="1" as="geometry">
            <Array as="points">
              <mxPoint x="260" y="1360" />
              <mxPoint x="-580" y="1360" />
            </Array>
          </mxGeometry>
        </mxCell>
        <mxCell id="DF8i__ZBXGCo0yMitaEP-152" style="edgeStyle=orthogonalEdgeStyle;rounded=0;orthogonalLoop=1;jettySize=auto;html=1;entryX=0.5;entryY=0;entryDx=0;entryDy=0;" edge="1" parent="1" source="DF8i__ZBXGCo0yMitaEP-32" target="DF8i__ZBXGCo0yMitaEP-113">
          <mxGeometry relative="1" as="geometry" />
        </mxCell>
        <mxCell id="DF8i__ZBXGCo0yMitaEP-153" style="edgeStyle=orthogonalEdgeStyle;rounded=0;orthogonalLoop=1;jettySize=auto;html=1;entryX=0.5;entryY=0;entryDx=0;entryDy=0;" edge="1" parent="1" source="DF8i__ZBXGCo0yMitaEP-32" target="DF8i__ZBXGCo0yMitaEP-55">
          <mxGeometry relative="1" as="geometry" />
        </mxCell>
        <mxCell id="DF8i__ZBXGCo0yMitaEP-154" style="edgeStyle=orthogonalEdgeStyle;rounded=0;orthogonalLoop=1;jettySize=auto;html=1;entryX=0.5;entryY=0;entryDx=0;entryDy=0;" edge="1" parent="1" source="DF8i__ZBXGCo0yMitaEP-32" target="DF8i__ZBXGCo0yMitaEP-90">
          <mxGeometry relative="1" as="geometry">
            <Array as="points">
              <mxPoint x="260" y="1360" />
              <mxPoint x="1100" y="1360" />
            </Array>
          </mxGeometry>
        </mxCell>
        <mxCell id="DF8i__ZBXGCo0yMitaEP-32" value="Options" style="swimlane;fontStyle=0;childLayout=stackLayout;horizontal=1;startSize=30;horizontalStack=0;resizeParent=1;resizeParentMax=0;resizeLast=0;collapsible=1;marginBottom=0;whiteSpace=wrap;html=1;" vertex="1" parent="1">
          <mxGeometry x="160" y="1130" width="200" height="150" as="geometry" />
        </mxCell>
        <mxCell id="DF8i__ZBXGCo0yMitaEP-33" value="1. Internal Research Doc (default)" style="text;strokeColor=none;fillColor=none;align=left;verticalAlign=middle;spacingLeft=4;spacingRight=4;overflow=hidden;points=[[0,0.5],[1,0.5]];portConstraint=eastwest;rotatable=0;whiteSpace=wrap;html=1;" vertex="1" parent="DF8i__ZBXGCo0yMitaEP-32">
          <mxGeometry y="30" width="200" height="30" as="geometry" />
        </mxCell>
        <mxCell id="DF8i__ZBXGCo0yMitaEP-34" value="2. Web (PubMed) Scrapping" style="text;strokeColor=none;fillColor=none;align=left;verticalAlign=middle;spacingLeft=4;spacingRight=4;overflow=hidden;points=[[0,0.5],[1,0.5]];portConstraint=eastwest;rotatable=0;whiteSpace=wrap;html=1;" vertex="1" parent="DF8i__ZBXGCo0yMitaEP-32">
          <mxGeometry y="60" width="200" height="30" as="geometry" />
        </mxCell>
        <mxCell id="DF8i__ZBXGCo0yMitaEP-35" value="3. Web (PubMed) Scrapping + Internal Research Doc" style="text;strokeColor=none;fillColor=none;align=left;verticalAlign=middle;spacingLeft=4;spacingRight=4;overflow=hidden;points=[[0,0.5],[1,0.5]];portConstraint=eastwest;rotatable=0;whiteSpace=wrap;html=1;" vertex="1" parent="DF8i__ZBXGCo0yMitaEP-32">
          <mxGeometry y="90" width="200" height="30" as="geometry" />
        </mxCell>
        <mxCell id="DF8i__ZBXGCo0yMitaEP-36" value="4. Nutritionist Plan" style="text;strokeColor=none;fillColor=none;align=left;verticalAlign=middle;spacingLeft=4;spacingRight=4;overflow=hidden;points=[[0,0.5],[1,0.5]];portConstraint=eastwest;rotatable=0;whiteSpace=wrap;html=1;" vertex="1" parent="DF8i__ZBXGCo0yMitaEP-32">
          <mxGeometry y="120" width="200" height="30" as="geometry" />
        </mxCell>
        <mxCell id="DF8i__ZBXGCo0yMitaEP-56" value="4. get relevant context based on user query" style="edgeStyle=orthogonalEdgeStyle;rounded=0;orthogonalLoop=1;jettySize=auto;html=1;entryX=0.5;entryY=0;entryDx=0;entryDy=0;exitX=0.995;exitY=0.63;exitDx=0;exitDy=0;exitPerimeter=0;entryPerimeter=0;fillColor=#d5e8d4;strokeColor=#82b366;" edge="1" parent="1" source="DF8i__ZBXGCo0yMitaEP-57" target="DF8i__ZBXGCo0yMitaEP-58">
          <mxGeometry x="0.6597" relative="1" as="geometry">
            <mxPoint x="672" y="1519.9999999999998" as="targetPoint" />
            <mxPoint as="offset" />
            <Array as="points">
              <mxPoint x="690" y="1490" />
            </Array>
          </mxGeometry>
        </mxCell>
        <mxCell id="DF8i__ZBXGCo0yMitaEP-57" value="MedicalAI Python Program" style="aspect=fixed;sketch=0;html=1;dashed=0;whitespace=wrap;verticalLabelPosition=bottom;verticalAlign=top;fillColor=#2875E2;strokeColor=#ffffff;points=[[0.005,0.63,0],[0.1,0.2,0],[0.9,0.2,0],[0.5,0,0],[0.995,0.63,0],[0.72,0.99,0],[0.5,1,0],[0.28,0.99,0]];shape=mxgraph.kubernetes.icon2;prIcon=api" vertex="1" parent="1">
          <mxGeometry x="515" y="1460" width="50" height="48" as="geometry" />
        </mxCell>
        <mxCell id="DF8i__ZBXGCo0yMitaEP-58" value="&lt;div&gt;ChromaDB&lt;/div&gt;collection_name: Research&lt;span style=&quot;background-color: transparent; color: light-dark(rgb(0, 0, 0), rgb(255, 255, 255));&quot;&gt;Doc&lt;/span&gt;" style="shape=cylinder3;whiteSpace=wrap;html=1;boundedLbl=1;backgroundOutline=1;size=15;" vertex="1" parent="1">
          <mxGeometry x="639" y="1600" width="102" height="120" as="geometry" />
        </mxCell>
        <mxCell id="DF8i__ZBXGCo0yMitaEP-59" value="8. generate AI response" style="edgeStyle=orthogonalEdgeStyle;rounded=0;orthogonalLoop=1;jettySize=auto;html=1;entryX=0.5;entryY=0;entryDx=0;entryDy=0;fillColor=#d5e8d4;strokeColor=#82b366;" edge="1" parent="1" source="DF8i__ZBXGCo0yMitaEP-60">
          <mxGeometry relative="1" as="geometry">
            <mxPoint x="540" y="2170" as="targetPoint" />
          </mxGeometry>
        </mxCell>
        <mxCell id="DF8i__ZBXGCo0yMitaEP-60" value="AI LLM Model" style="shape=mxgraph.signs.healthcare.brain;html=1;pointerEvents=1;fillColor=#000000;strokeColor=none;verticalLabelPosition=bottom;verticalAlign=top;align=center;" vertex="1" parent="1">
          <mxGeometry x="491" y="2000" width="98" height="85" as="geometry" />
        </mxCell>
        <mxCell id="DF8i__ZBXGCo0yMitaEP-61" value="2. get keyword from user query, submit to" style="edgeStyle=orthogonalEdgeStyle;rounded=0;orthogonalLoop=1;jettySize=auto;html=1;fillColor=#d5e8d4;strokeColor=#82b366;entryX=0.5;entryY=0;entryDx=0;entryDy=0;entryPerimeter=0;exitX=0.005;exitY=0.63;exitDx=0;exitDy=0;exitPerimeter=0;" edge="1" parent="1" source="DF8i__ZBXGCo0yMitaEP-57" target="DF8i__ZBXGCo0yMitaEP-76">
          <mxGeometry x="0.5" relative="1" as="geometry">
            <Array as="points">
              <mxPoint x="400" y="1490" />
            </Array>
            <mxPoint as="offset" />
            <mxPoint x="520" y="1630" as="targetPoint" />
          </mxGeometry>
        </mxCell>
        <mxCell id="DF8i__ZBXGCo0yMitaEP-62" value="9. Display AI response" style="edgeStyle=orthogonalEdgeStyle;rounded=0;orthogonalLoop=1;jettySize=auto;html=1;entryX=0.5;entryY=0;entryDx=0;entryDy=0;exitX=0.5;exitY=1.008;exitDx=0;exitDy=0;exitPerimeter=0;fillColor=#d5e8d4;strokeColor=#82b366;" edge="1" parent="1" source="DF8i__ZBXGCo0yMitaEP-88" target="DF8i__ZBXGCo0yMitaEP-64">
          <mxGeometry relative="1" as="geometry">
            <mxPoint x="590" y="2260" as="sourcePoint" />
          </mxGeometry>
        </mxCell>
        <mxCell id="DF8i__ZBXGCo0yMitaEP-64" value="" style="ellipse;html=1;shape=endState;fillColor=#000000;strokeColor=#ff0000;" vertex="1" parent="1">
          <mxGeometry x="525" y="2310" width="30" height="30" as="geometry" />
        </mxCell>
        <mxCell id="DF8i__ZBXGCo0yMitaEP-76" value="Web (PubMed)" style="verticalLabelPosition=bottom;html=1;verticalAlign=top;align=center;strokeColor=none;fillColor=#2875E2;shape=mxgraph.azure.azure_website;pointerEvents=1;" vertex="1" parent="1">
          <mxGeometry x="375" y="1635" width="50" height="50" as="geometry" />
        </mxCell>
        <mxCell id="DF8i__ZBXGCo0yMitaEP-77" value="Web Scrapped data" style="html=1;verticalLabelPosition=bottom;align=center;labelBackgroundColor=#ffffff;verticalAlign=top;strokeWidth=2;strokeColor=#0080F0;shadow=0;dashed=0;shape=mxgraph.ios7.icons.data;" vertex="1" parent="1">
          <mxGeometry x="380" y="1770" width="40" height="50" as="geometry" />
        </mxCell>
        <mxCell id="DF8i__ZBXGCo0yMitaEP-78" value="Relevant Context data" style="html=1;verticalLabelPosition=bottom;align=center;labelBackgroundColor=#ffffff;verticalAlign=top;strokeWidth=2;strokeColor=#0080F0;shadow=0;dashed=0;shape=mxgraph.ios7.icons.data;" vertex="1" parent="1">
          <mxGeometry x="668.5" y="1770" width="43" height="50" as="geometry" />
        </mxCell>
        <mxCell id="DF8i__ZBXGCo0yMitaEP-81" value="3. generate" style="edgeStyle=orthogonalEdgeStyle;rounded=0;orthogonalLoop=1;jettySize=auto;html=1;entryX=0.479;entryY=-0.04;entryDx=0;entryDy=0;entryPerimeter=0;fillColor=#d5e8d4;strokeColor=#82b366;" edge="1" parent="1" source="DF8i__ZBXGCo0yMitaEP-76" target="DF8i__ZBXGCo0yMitaEP-77">
          <mxGeometry relative="1" as="geometry" />
        </mxCell>
        <mxCell id="DF8i__ZBXGCo0yMitaEP-82" value="5. generate" style="edgeStyle=orthogonalEdgeStyle;rounded=0;orthogonalLoop=1;jettySize=auto;html=1;entryX=0.486;entryY=0.03;entryDx=0;entryDy=0;entryPerimeter=0;fillColor=#d5e8d4;strokeColor=#82b366;" edge="1" parent="1" source="DF8i__ZBXGCo0yMitaEP-58" target="DF8i__ZBXGCo0yMitaEP-78">
          <mxGeometry relative="1" as="geometry" />
        </mxCell>
        <mxCell id="DF8i__ZBXGCo0yMitaEP-83" value="Prompt Context data" style="html=1;verticalLabelPosition=bottom;align=center;labelBackgroundColor=#ffffff;verticalAlign=top;strokeWidth=2;strokeColor=#0080F0;shadow=0;dashed=0;shape=mxgraph.ios7.icons.data;" vertex="1" parent="1">
          <mxGeometry x="520" y="1870" width="40" height="50" as="geometry" />
        </mxCell>
        <mxCell id="DF8i__ZBXGCo0yMitaEP-84" value="6. Combine to" style="edgeStyle=orthogonalEdgeStyle;rounded=0;orthogonalLoop=1;jettySize=auto;html=1;entryX=0.52;entryY=0.03;entryDx=0;entryDy=0;entryPerimeter=0;fillColor=#d5e8d4;strokeColor=#82b366;" edge="1" parent="1" source="DF8i__ZBXGCo0yMitaEP-77" target="DF8i__ZBXGCo0yMitaEP-83">
          <mxGeometry x="0.2245" y="15" relative="1" as="geometry">
            <mxPoint x="-15" y="-15" as="offset" />
          </mxGeometry>
        </mxCell>
        <mxCell id="DF8i__ZBXGCo0yMitaEP-85" style="edgeStyle=orthogonalEdgeStyle;rounded=0;orthogonalLoop=1;jettySize=auto;html=1;entryX=0.52;entryY=0.03;entryDx=0;entryDy=0;entryPerimeter=0;fillColor=#d5e8d4;strokeColor=#82b366;" edge="1" parent="1" source="DF8i__ZBXGCo0yMitaEP-78" target="DF8i__ZBXGCo0yMitaEP-83">
          <mxGeometry relative="1" as="geometry" />
        </mxCell>
        <mxCell id="DF8i__ZBXGCo0yMitaEP-86" value="7. submit user query and context data to" style="edgeStyle=orthogonalEdgeStyle;rounded=0;orthogonalLoop=1;jettySize=auto;html=1;entryX=0.5;entryY=0.01;entryDx=0;entryDy=0;entryPerimeter=0;fillColor=#d5e8d4;strokeColor=#82b366;" edge="1" parent="1" source="DF8i__ZBXGCo0yMitaEP-83" target="DF8i__ZBXGCo0yMitaEP-60">
          <mxGeometry relative="1" as="geometry" />
        </mxCell>
        <mxCell id="DF8i__ZBXGCo0yMitaEP-88" value="Chat UI" style="html=1;verticalLabelPosition=bottom;align=center;labelBackgroundColor=#ffffff;verticalAlign=top;strokeWidth=2;strokeColor=#0080F0;shadow=0;dashed=0;shape=mxgraph.ios7.icons.monitor;" vertex="1" parent="1">
          <mxGeometry x="489.5" y="2170" width="101" height="60" as="geometry" />
        </mxCell>
        <mxCell id="DF8i__ZBXGCo0yMitaEP-90" value="" style="rounded=0;whiteSpace=wrap;html=1;fillColor=none;" vertex="1" parent="1">
          <mxGeometry x="840" y="1440" width="520" height="920" as="geometry" />
        </mxCell>
        <mxCell id="DF8i__ZBXGCo0yMitaEP-91" value="2. get relevant context based on user query" style="edgeStyle=orthogonalEdgeStyle;rounded=0;orthogonalLoop=1;jettySize=auto;html=1;entryX=0.5;entryY=0;entryDx=0;entryDy=0;exitX=0.995;exitY=0.63;exitDx=0;exitDy=0;exitPerimeter=0;entryPerimeter=0;fillColor=#d5e8d4;strokeColor=#82b366;" edge="1" parent="1" source="DF8i__ZBXGCo0yMitaEP-92" target="DF8i__ZBXGCo0yMitaEP-93">
          <mxGeometry x="0.6597" relative="1" as="geometry">
            <mxPoint x="1232" y="1519.9999999999998" as="targetPoint" />
            <mxPoint as="offset" />
            <Array as="points">
              <mxPoint x="1098" y="1490" />
            </Array>
          </mxGeometry>
        </mxCell>
        <mxCell id="DF8i__ZBXGCo0yMitaEP-92" value="MedicalAI Python Program" style="aspect=fixed;sketch=0;html=1;dashed=0;whitespace=wrap;verticalLabelPosition=bottom;verticalAlign=top;fillColor=#2875E2;strokeColor=#ffffff;points=[[0.005,0.63,0],[0.1,0.2,0],[0.9,0.2,0],[0.5,0,0],[0.995,0.63,0],[0.72,0.99,0],[0.5,1,0],[0.28,0.99,0]];shape=mxgraph.kubernetes.icon2;prIcon=api" vertex="1" parent="1">
          <mxGeometry x="1075" y="1460" width="50" height="48" as="geometry" />
        </mxCell>
        <mxCell id="DF8i__ZBXGCo0yMitaEP-93" value="&lt;div&gt;ChromaDB&lt;/div&gt;collection_name: NutritionistPlan" style="shape=cylinder3;whiteSpace=wrap;html=1;boundedLbl=1;backgroundOutline=1;size=15;" vertex="1" parent="1">
          <mxGeometry x="1047" y="1610" width="102" height="120" as="geometry" />
        </mxCell>
        <mxCell id="DF8i__ZBXGCo0yMitaEP-94" value="5. generate AI response" style="edgeStyle=orthogonalEdgeStyle;rounded=0;orthogonalLoop=1;jettySize=auto;html=1;entryX=0.5;entryY=0;entryDx=0;entryDy=0;fillColor=#d5e8d4;strokeColor=#82b366;" edge="1" parent="1" source="DF8i__ZBXGCo0yMitaEP-95">
          <mxGeometry relative="1" as="geometry">
            <mxPoint x="1100" y="2170" as="targetPoint" />
          </mxGeometry>
        </mxCell>
        <mxCell id="DF8i__ZBXGCo0yMitaEP-95" value="AI LLM Model" style="shape=mxgraph.signs.healthcare.brain;html=1;pointerEvents=1;fillColor=#000000;strokeColor=none;verticalLabelPosition=bottom;verticalAlign=top;align=center;" vertex="1" parent="1">
          <mxGeometry x="1051" y="2000" width="98" height="85" as="geometry" />
        </mxCell>
        <mxCell id="DF8i__ZBXGCo0yMitaEP-97" value="6. Display AI response" style="edgeStyle=orthogonalEdgeStyle;rounded=0;orthogonalLoop=1;jettySize=auto;html=1;entryX=0.5;entryY=0;entryDx=0;entryDy=0;exitX=0.5;exitY=1.008;exitDx=0;exitDy=0;exitPerimeter=0;fillColor=#d5e8d4;strokeColor=#82b366;" edge="1" parent="1" source="DF8i__ZBXGCo0yMitaEP-108" target="DF8i__ZBXGCo0yMitaEP-98">
          <mxGeometry relative="1" as="geometry">
            <mxPoint x="1150" y="2260" as="sourcePoint" />
          </mxGeometry>
        </mxCell>
        <mxCell id="DF8i__ZBXGCo0yMitaEP-98" value="" style="ellipse;html=1;shape=endState;fillColor=#000000;strokeColor=#ff0000;" vertex="1" parent="1">
          <mxGeometry x="1085" y="2310" width="30" height="30" as="geometry" />
        </mxCell>
        <mxCell id="DF8i__ZBXGCo0yMitaEP-103" value="3. generate" style="edgeStyle=orthogonalEdgeStyle;rounded=0;orthogonalLoop=1;jettySize=auto;html=1;entryX=0.466;entryY=-0.044;entryDx=0;entryDy=0;entryPerimeter=0;fillColor=#d5e8d4;strokeColor=#82b366;" edge="1" parent="1" source="DF8i__ZBXGCo0yMitaEP-93" target="DF8i__ZBXGCo0yMitaEP-104">
          <mxGeometry relative="1" as="geometry">
            <mxPoint x="1249.3980000000006" y="1771.4999999999995" as="targetPoint" />
          </mxGeometry>
        </mxCell>
        <mxCell id="DF8i__ZBXGCo0yMitaEP-104" value="Prompt Context data" style="html=1;verticalLabelPosition=bottom;align=center;labelBackgroundColor=#ffffff;verticalAlign=top;strokeWidth=2;strokeColor=#0080F0;shadow=0;dashed=0;shape=mxgraph.ios7.icons.data;" vertex="1" parent="1">
          <mxGeometry x="1080" y="1870" width="40" height="50" as="geometry" />
        </mxCell>
        <mxCell id="DF8i__ZBXGCo0yMitaEP-107" value="4. submit user query and context data to" style="edgeStyle=orthogonalEdgeStyle;rounded=0;orthogonalLoop=1;jettySize=auto;html=1;entryX=0.5;entryY=0.01;entryDx=0;entryDy=0;entryPerimeter=0;fillColor=#d5e8d4;strokeColor=#82b366;" edge="1" parent="1" source="DF8i__ZBXGCo0yMitaEP-104" target="DF8i__ZBXGCo0yMitaEP-95">
          <mxGeometry relative="1" as="geometry" />
        </mxCell>
        <mxCell id="DF8i__ZBXGCo0yMitaEP-108" value="Chat UI" style="html=1;verticalLabelPosition=bottom;align=center;labelBackgroundColor=#ffffff;verticalAlign=top;strokeWidth=2;strokeColor=#0080F0;shadow=0;dashed=0;shape=mxgraph.ios7.icons.monitor;" vertex="1" parent="1">
          <mxGeometry x="1049.5" y="2170" width="101" height="60" as="geometry" />
        </mxCell>
        <mxCell id="DF8i__ZBXGCo0yMitaEP-109" value="" style="rounded=0;whiteSpace=wrap;html=1;fillColor=none;" vertex="1" parent="1">
          <mxGeometry x="-680" y="79" width="200" height="121" as="geometry" />
        </mxCell>
        <mxCell id="DF8i__ZBXGCo0yMitaEP-112" value="Legend" style="text;html=1;align=center;verticalAlign=middle;resizable=0;points=[];autosize=1;strokeColor=none;fillColor=none;fontStyle=1" vertex="1" parent="1">
          <mxGeometry x="-610" y="49" width="60" height="30" as="geometry" />
        </mxCell>
        <mxCell id="DF8i__ZBXGCo0yMitaEP-113" value="" style="rounded=0;whiteSpace=wrap;html=1;fillColor=none;" vertex="1" parent="1">
          <mxGeometry x="-280" y="1440" width="520" height="920" as="geometry" />
        </mxCell>
        <mxCell id="DF8i__ZBXGCo0yMitaEP-115" value="MedicalAI Python Program" style="aspect=fixed;sketch=0;html=1;dashed=0;whitespace=wrap;verticalLabelPosition=bottom;verticalAlign=top;fillColor=#2875E2;strokeColor=#ffffff;points=[[0.005,0.63,0],[0.1,0.2,0],[0.9,0.2,0],[0.5,0,0],[0.995,0.63,0],[0.72,0.99,0],[0.5,1,0],[0.28,0.99,0]];shape=mxgraph.kubernetes.icon2;prIcon=api" vertex="1" parent="1">
          <mxGeometry x="-45" y="1460" width="50" height="48" as="geometry" />
        </mxCell>
        <mxCell id="DF8i__ZBXGCo0yMitaEP-117" value="5. generate AI response" style="edgeStyle=orthogonalEdgeStyle;rounded=0;orthogonalLoop=1;jettySize=auto;html=1;entryX=0.5;entryY=0;entryDx=0;entryDy=0;fillColor=#d5e8d4;strokeColor=#82b366;" edge="1" parent="1" source="DF8i__ZBXGCo0yMitaEP-118">
          <mxGeometry relative="1" as="geometry">
            <mxPoint x="-20" y="2170" as="targetPoint" />
          </mxGeometry>
        </mxCell>
        <mxCell id="DF8i__ZBXGCo0yMitaEP-118" value="AI LLM Model" style="shape=mxgraph.signs.healthcare.brain;html=1;pointerEvents=1;fillColor=#000000;strokeColor=none;verticalLabelPosition=bottom;verticalAlign=top;align=center;" vertex="1" parent="1">
          <mxGeometry x="-69" y="2000" width="98" height="85" as="geometry" />
        </mxCell>
        <mxCell id="DF8i__ZBXGCo0yMitaEP-119" value="2. get keyword from user query, submit to" style="edgeStyle=orthogonalEdgeStyle;rounded=0;orthogonalLoop=1;jettySize=auto;html=1;fillColor=#d5e8d4;strokeColor=#82b366;entryX=0.5;entryY=0;entryDx=0;entryDy=0;entryPerimeter=0;exitX=0.5;exitY=1;exitDx=0;exitDy=0;exitPerimeter=0;" edge="1" parent="1" source="DF8i__ZBXGCo0yMitaEP-115" target="DF8i__ZBXGCo0yMitaEP-122">
          <mxGeometry x="0.5" relative="1" as="geometry">
            <Array as="points" />
            <mxPoint as="offset" />
            <mxPoint x="-40" y="1630" as="targetPoint" />
          </mxGeometry>
        </mxCell>
        <mxCell id="DF8i__ZBXGCo0yMitaEP-120" value="6. Display AI response" style="edgeStyle=orthogonalEdgeStyle;rounded=0;orthogonalLoop=1;jettySize=auto;html=1;entryX=0.5;entryY=0;entryDx=0;entryDy=0;exitX=0.5;exitY=1.008;exitDx=0;exitDy=0;exitPerimeter=0;fillColor=#d5e8d4;strokeColor=#82b366;" edge="1" parent="1" source="DF8i__ZBXGCo0yMitaEP-131" target="DF8i__ZBXGCo0yMitaEP-121">
          <mxGeometry relative="1" as="geometry">
            <mxPoint x="30" y="2260" as="sourcePoint" />
          </mxGeometry>
        </mxCell>
        <mxCell id="DF8i__ZBXGCo0yMitaEP-121" value="" style="ellipse;html=1;shape=endState;fillColor=#000000;strokeColor=#ff0000;" vertex="1" parent="1">
          <mxGeometry x="-35" y="2310" width="30" height="30" as="geometry" />
        </mxCell>
        <mxCell id="DF8i__ZBXGCo0yMitaEP-122" value="Web (PubMed)" style="verticalLabelPosition=bottom;html=1;verticalAlign=top;align=center;strokeColor=none;fillColor=#2875E2;shape=mxgraph.azure.azure_website;pointerEvents=1;" vertex="1" parent="1">
          <mxGeometry x="-45" y="1635" width="50" height="50" as="geometry" />
        </mxCell>
        <mxCell id="DF8i__ZBXGCo0yMitaEP-125" value="3. generate" style="edgeStyle=orthogonalEdgeStyle;rounded=0;orthogonalLoop=1;jettySize=auto;html=1;entryX=0.51;entryY=-0.062;entryDx=0;entryDy=0;entryPerimeter=0;fillColor=#d5e8d4;strokeColor=#82b366;" edge="1" parent="1" source="DF8i__ZBXGCo0yMitaEP-122" target="DF8i__ZBXGCo0yMitaEP-127">
          <mxGeometry relative="1" as="geometry">
            <mxPoint x="-160.83999999999992" y="1768" as="targetPoint" />
          </mxGeometry>
        </mxCell>
        <mxCell id="DF8i__ZBXGCo0yMitaEP-127" value="Prompt Context data" style="html=1;verticalLabelPosition=bottom;align=center;labelBackgroundColor=#ffffff;verticalAlign=top;strokeWidth=2;strokeColor=#0080F0;shadow=0;dashed=0;shape=mxgraph.ios7.icons.data;" vertex="1" parent="1">
          <mxGeometry x="-40" y="1870" width="40" height="50" as="geometry" />
        </mxCell>
        <mxCell id="DF8i__ZBXGCo0yMitaEP-130" value="4. submit user query and context data to" style="edgeStyle=orthogonalEdgeStyle;rounded=0;orthogonalLoop=1;jettySize=auto;html=1;entryX=0.5;entryY=0.01;entryDx=0;entryDy=0;entryPerimeter=0;fillColor=#d5e8d4;strokeColor=#82b366;" edge="1" parent="1" source="DF8i__ZBXGCo0yMitaEP-127" target="DF8i__ZBXGCo0yMitaEP-118">
          <mxGeometry relative="1" as="geometry" />
        </mxCell>
        <mxCell id="DF8i__ZBXGCo0yMitaEP-131" value="Chat UI" style="html=1;verticalLabelPosition=bottom;align=center;labelBackgroundColor=#ffffff;verticalAlign=top;strokeWidth=2;strokeColor=#0080F0;shadow=0;dashed=0;shape=mxgraph.ios7.icons.monitor;" vertex="1" parent="1">
          <mxGeometry x="-70.5" y="2170" width="101" height="60" as="geometry" />
        </mxCell>
        <mxCell id="DF8i__ZBXGCo0yMitaEP-132" value="" style="rounded=0;whiteSpace=wrap;html=1;fillColor=none;" vertex="1" parent="1">
          <mxGeometry x="-840" y="1440" width="520" height="920" as="geometry" />
        </mxCell>
        <mxCell id="DF8i__ZBXGCo0yMitaEP-133" value="2. get relevant context based on user query" style="rounded=0;orthogonalLoop=1;jettySize=auto;html=1;entryX=0.5;entryY=0;entryDx=0;entryDy=0;exitX=0.5;exitY=1;exitDx=0;exitDy=0;exitPerimeter=0;entryPerimeter=0;fillColor=#d5e8d4;strokeColor=#82b366;" edge="1" parent="1" source="DF8i__ZBXGCo0yMitaEP-134" target="DF8i__ZBXGCo0yMitaEP-135">
          <mxGeometry x="0.1304" relative="1" as="geometry">
            <mxPoint x="-448" y="1519.9999999999998" as="targetPoint" />
            <mxPoint as="offset" />
          </mxGeometry>
        </mxCell>
        <mxCell id="DF8i__ZBXGCo0yMitaEP-134" value="MedicalAI Python Program" style="aspect=fixed;sketch=0;html=1;dashed=0;whitespace=wrap;verticalLabelPosition=bottom;verticalAlign=top;fillColor=#2875E2;strokeColor=#ffffff;points=[[0.005,0.63,0],[0.1,0.2,0],[0.9,0.2,0],[0.5,0,0],[0.995,0.63,0],[0.72,0.99,0],[0.5,1,0],[0.28,0.99,0]];shape=mxgraph.kubernetes.icon2;prIcon=api" vertex="1" parent="1">
          <mxGeometry x="-605" y="1460" width="50" height="48" as="geometry" />
        </mxCell>
        <mxCell id="DF8i__ZBXGCo0yMitaEP-135" value="&lt;div&gt;ChromaDB&lt;/div&gt;collection_name: Research&lt;span style=&quot;background-color: transparent; color: light-dark(rgb(0, 0, 0), rgb(255, 255, 255));&quot;&gt;Doc&lt;/span&gt;" style="shape=cylinder3;whiteSpace=wrap;html=1;boundedLbl=1;backgroundOutline=1;size=15;" vertex="1" parent="1">
          <mxGeometry x="-631" y="1600" width="102" height="120" as="geometry" />
        </mxCell>
        <mxCell id="DF8i__ZBXGCo0yMitaEP-136" value="5. generate AI response" style="edgeStyle=orthogonalEdgeStyle;rounded=0;orthogonalLoop=1;jettySize=auto;html=1;entryX=0.5;entryY=0;entryDx=0;entryDy=0;fillColor=#d5e8d4;strokeColor=#82b366;" edge="1" parent="1" source="DF8i__ZBXGCo0yMitaEP-137">
          <mxGeometry relative="1" as="geometry">
            <mxPoint x="-580" y="2170" as="targetPoint" />
          </mxGeometry>
        </mxCell>
        <mxCell id="DF8i__ZBXGCo0yMitaEP-137" value="AI LLM Model" style="shape=mxgraph.signs.healthcare.brain;html=1;pointerEvents=1;fillColor=#000000;strokeColor=none;verticalLabelPosition=bottom;verticalAlign=top;align=center;" vertex="1" parent="1">
          <mxGeometry x="-629" y="2000" width="98" height="85" as="geometry" />
        </mxCell>
        <mxCell id="DF8i__ZBXGCo0yMitaEP-139" value="6. Display AI response" style="edgeStyle=orthogonalEdgeStyle;rounded=0;orthogonalLoop=1;jettySize=auto;html=1;entryX=0.5;entryY=0;entryDx=0;entryDy=0;exitX=0.5;exitY=1.008;exitDx=0;exitDy=0;exitPerimeter=0;fillColor=#d5e8d4;strokeColor=#82b366;" edge="1" parent="1" source="DF8i__ZBXGCo0yMitaEP-150" target="DF8i__ZBXGCo0yMitaEP-140">
          <mxGeometry relative="1" as="geometry">
            <mxPoint x="-530" y="2260" as="sourcePoint" />
          </mxGeometry>
        </mxCell>
        <mxCell id="DF8i__ZBXGCo0yMitaEP-140" value="" style="ellipse;html=1;shape=endState;fillColor=#000000;strokeColor=#ff0000;" vertex="1" parent="1">
          <mxGeometry x="-595" y="2310" width="30" height="30" as="geometry" />
        </mxCell>
        <mxCell id="DF8i__ZBXGCo0yMitaEP-145" value="3. generate" style="edgeStyle=orthogonalEdgeStyle;rounded=0;orthogonalLoop=1;jettySize=auto;html=1;entryX=0.491;entryY=-0.01;entryDx=0;entryDy=0;entryPerimeter=0;fillColor=#d5e8d4;strokeColor=#82b366;" edge="1" parent="1" source="DF8i__ZBXGCo0yMitaEP-135" target="DF8i__ZBXGCo0yMitaEP-146">
          <mxGeometry relative="1" as="geometry">
            <mxPoint x="-430.60199999999986" y="1771.5000000000005" as="targetPoint" />
          </mxGeometry>
        </mxCell>
        <mxCell id="DF8i__ZBXGCo0yMitaEP-146" value="Prompt Context data" style="html=1;verticalLabelPosition=bottom;align=center;labelBackgroundColor=#ffffff;verticalAlign=top;strokeWidth=2;strokeColor=#0080F0;shadow=0;dashed=0;shape=mxgraph.ios7.icons.data;" vertex="1" parent="1">
          <mxGeometry x="-600" y="1870" width="40" height="50" as="geometry" />
        </mxCell>
        <mxCell id="DF8i__ZBXGCo0yMitaEP-149" value="4. submit user query and context data to" style="edgeStyle=orthogonalEdgeStyle;rounded=0;orthogonalLoop=1;jettySize=auto;html=1;entryX=0.5;entryY=0.01;entryDx=0;entryDy=0;entryPerimeter=0;fillColor=#d5e8d4;strokeColor=#82b366;" edge="1" parent="1" source="DF8i__ZBXGCo0yMitaEP-146" target="DF8i__ZBXGCo0yMitaEP-137">
          <mxGeometry relative="1" as="geometry" />
        </mxCell>
        <mxCell id="DF8i__ZBXGCo0yMitaEP-150" value="Chat UI" style="html=1;verticalLabelPosition=bottom;align=center;labelBackgroundColor=#ffffff;verticalAlign=top;strokeWidth=2;strokeColor=#0080F0;shadow=0;dashed=0;shape=mxgraph.ios7.icons.monitor;" vertex="1" parent="1">
          <mxGeometry x="-630.5" y="2170" width="101" height="60" as="geometry" />
        </mxCell>
        <mxCell id="C_dpL106deid5A0ibrWK-1" value="AutoCount DB" style="shape=cylinder3;whiteSpace=wrap;html=1;boundedLbl=1;backgroundOutline=1;size=15;" vertex="1" parent="1">
          <mxGeometry x="130" y="2602" width="60" height="80" as="geometry" />
        </mxCell>
        <mxCell id="C_dpL106deid5A0ibrWK-2" value="" style="shape=image;verticalLabelPosition=bottom;labelBackgroundColor=default;verticalAlign=top;aspect=fixed;imageAspect=0;image=data:image/png,iVBORw0KGgoAAAANSUhEUgAAAO8AAAC2CAIAAAC+k03RAAAgAElEQVR4Aey9B1AcWZ8nqJiNu91v4+72dnZuZu5iZm837nYvbl3szsVexFzMCitkkW2ZVner3adudbfaSlCJBwkQUICQRUgIeYe8kIQkjEAOIYQw9cp7n2WyKivNyzZf9Hf9sqAok1UUqAqQPogM6VVWVuZ7//fL//u/v13wx4i/X3/99Zdffvnpp59+/PFH7q3+gxwHIcdCzk2zDh+rw+nnGu/ZPkd5m2X7OcPmo9pVtaplFfK0MllKEfAf6WWyZRXyVXWq945qf7hkPNBhuz3kHjHRVoJ1USzDQhZy8K0m2qwM7scff/zpp59++eWXX3/9NQKwEycWTDT/+Mdff/31559/npXuzuRDIeRoFnooBN8XWu+Vly5xm+WrFt1KsSK1WJqCgZQcCTpEYOzIAynBh/987vhleSCrVLbhoObb88bGTlv7CDFqoqxuhqQhM4/rJMzrzz//HA3TE2j+wx/+kIRHz8ItGeijWBfJ4iRj97FOBpKBTiA2TLIqG9UtJZq67DvOG9fVKVNLZCm5koV++GKhwA0GcbQ2xoM+V7Jw52hKHliyW/7xIU3ldXNrv3NA6zW7aJKG86gOTEGiGn/4wx+CGbG/PYbmX375JVGPmcX7UKwb90kUrrMv7HueWPOeWLB+e7nM2YL7hr2Mw04w/WryRC++46xhQ60yw8+GMYCYcTSkTuO8CKTkStLywYoK+aeHNbuvmq+/dMksPsLHzoM6sdj45ZdfwgCN0PwWcGUG+uy+gUG89pZmxRnpP2uWLDg2Onaclv6T66rMbkPl0WcdW45IsspkCLsJB3Ek7v2PyAfLKuXfnNCdfoi/UHudXnaeTycQ02EcesGvv/6awLvPyq1o6NESt+7qsppHf9c4vODIyIKm0KNxeMG+wd/t7Ph/VzfVpJX0J5gZR+I4+My4HJJRKP30oPpIBz6g9Tq87KwQ6q18aLAMveBN3/axkDJ4Om9r046NCuA4AOsjIwsOvFpQ1Pt/rGmqWZg/MDmg/ZzVj0WRBAnWuejfFBG/O5wGa+dvtahE9mWTtuUhPmwgPdQ8m07A+/Xzzz8H5I0FCbjf7N0CcizuG+0yftIi+V0AuNEafkDv7PivS+vOLMRGBACNIZEXoVYkSSmQLiqVLa9SrhIr36lXbdmn3rJP/cE+9bp61SqxcnmVIrNUlpIvHb8+buGbfw1WViq+OaW/+MxhdDKzR7y358kB9vxmo5liXYP4vlPSv4iG4LDzR0YWNAz+7pPWL9JKHo+h2Y/gHMR3M8pkm/ard57Ri29aWh7il/ud7SPuDinRLfM8UXr61N7HSk+3zPMAEG2v3OefOho77BVXzV8e160VK9MLpQtzeMXIpGybvyCtQPpOjbL8qrlf66Xn5Y7Xe7MC28E3GM08Yx5p02QfGQ4XlMNAHPzxyMiCokf/afne0wtzh1Pykap4/X516RXTuUeOHikxYvRpcMrmZtw+lqQhzXIMHDvY8QbDchQDPRR0eFmzi1FYqVc68t4QcfC+/asT+lX1KqS0nnSjyStSFhdLPzmoOfnEYXHPM+npI/qnn34a09BN/x6z/UsW0ir39RPgfwgGazxt8cB//8GFwk0HRoqvmFr7XVKrz0YwHgqZ8ab9R7Ock2QNDrpP7T3ag39/1rCuVpVaKEX2lxgaQAyk5oHVVQpxm0Vq8c1bW6ZH/x9//PGNRzMDySH8UDzwDb9mdMGp4W/6tAbcw/qYBGuBGch5KKh30g+lRP1d67v71Sn5vHklOqZTMbCoWJp7Tv9SR85LHdMD9BuPZhp6ntv2HJ6KmBGA9QPDJy5aPz3CxfkrCDm3jx00+Gru2bKrFWhnGR3QKRhIzQfbjuueqEhqXuiIk8RBl70FaCaeWkunh+YOwyfuJKM5QGofAwcNZN5V87IyWVpMQKdgYNNBTScgfPRrCD2BB/8pNd54NDOQfIUfbpw6bz42uqDX/I2HMc/kdNMQdkmJ787ol5bKYjHpXMnKasXNQRc5D+ipTM8bj2YW0mr3jRPgf4w0/gUkCsHGKel/9woXU6xrKuRKzLUmF3P4Ib5hryqjkNd7BFsNx9sLcyQrqxQ3X7nmzSvxE/2NR3NAQzcl9nxkZEGr8v/We+5CbnbkU5KBvTJix1nDkjJ5NCa9MEeyqk51e8jlnbcXxofoNx7NHMf5WEe/rfy45Hfxs+cjIwu6jV8QtCE+KiXrKqnFV3Xbml0hRyq8ca4c0sDAhwfUnRJiXm8Xzxy8DWhmIW3y9t7RZh4djcuAchQx5n+ndl9j4eww5sDEQI6zuJhjD+0bxUpkIRcCdCoGtjVpexUeal4RHSBclMbbgGaO4xjoVbmvXFf/l9heR00jyEG0VflvRhxHfKwzCk1m+rTDy17qd3x8WJNRJARoDGTkg29P64eNEwEHM93FN+R5bwmaOY6jWJfSfalNm9o8+k8FPUKPICj/42vqvxtxHPQytrkzQZDjcC97a9C1rUkrvC/EwOISacV1s2HePynmtL09aOY4joaEwdv5xCK6rPovzZJ/3Di84PD4cXRkwXn5X/SYvtUQN0kWj0mTWfgScpyDZG8OurbsVwtsCvORYXxNhexCh4m0eeG8ZSXKFL1VaOY4joWUh7GYvY+G8SOPLXldxu2dxi8fmXNf4fv0njsEY2KgLwopZvk05JDVsPW5Y32NcmJTmA9Sd4xsfe+eOOvSqX842b38lOHTVlv+XdfZAVqFI0+o+b8gCrxtaPYPDXIsDT0ki3sZm5exkixOs57ZUsYFUXvyJuFjT/TiKysVaEeYK/l6/e0b/7nx+d+Ih/9qD/hfKuR/WaH860rV31Zp/m2t7r8edux/whhdKH/C/B9PgbcTzW/05NoJtv6+bW3+y7rM86/+ukr+L8qV/3y34KH6myrrjlv46BzaA8wu5efRPLv0F366FuD3PrwC/nqPIIhDTv55uenjS6zdK3yjP7GzbwaaVXbq5BN8f6ft/HPHoJ50v9Vx/KzL52h8rPm3tSGojcKe/dfY8m7Oy9Acx70BaEaiZDeOEl/kg5RCsKJSvuuqacjom3XzGOTjUGgWUgwkaeijIcMmIGEX+VynT21W/nlUAUMQ5d5Hmj8xRiww3LmOZgi5YSP55TEtipT2ByaJwMIcyaYD6m4pQb9OoIgANSY/xUCOpKGLRNFTwOLr13gfAqJt0NX63Hn1hfOZyqvBKRfJTluHBikWr+hS/2uxIGRjnDRtu8z4Ztm0OTn5knzFXEezh2IvPsOX7g51zeHj+D87ptM66CTTZ+z2LK8+MznpQT3ZNuhq7sYrrpq3Hde9s1e1vEKeXiJLKQSpRdLV9aqCC8YTvXi31KN3oGxdU+0erXOa1l+YKmNW/vPdqr8/4AL2qT7uLbt+TqMZQk5ppXLO6pFBIczDXQTeqVXKrFSy54OBnNnN9GvJc8/wyuvmr47p1tUoM4t572SUpYDvmL976B1DoSWLSmTv71OVXjXdGHDK+Wxd8XfSN2QyLDsRgwdH+0r9t9WebkX8Dwq7kmah2cUobZTU4pNafEobpcVpo5O2E6z39WIlwx6U1I9zGs0kDdteudYGWxP8fjk8siuum92+JIbtMyynx+n2IXf1TcvWI9rsSvlYvGruJBF+6MUTSdIKwdoapeis4VKfQ4NTTHw99XYp9AuPRINsjPOqv6lyXx+ZHlZ8DHyq8orbLKJzhh/O6H84oxedMxS1mnZfNdfftZ16jN8acg/oSYubYWZctJvSiOY0mq1upuqGJb2Azz8b7F8mAuvEyscKz5SGOqWLPRTs13gb7ts+b9Zt2qtaW61Ys0expkqxbLd8cZkcuQfl8z6cAa4c3L3AK4eBtALp2mpF4QXj3SG3lWAnBcPMo5mF3JCB3HnWkFkS4fOUD9KLpEt2y1fXKLcd0ZZdMjX34L0Kj9XNzM2Mp3MXzSzknmu8Hx7UTJh5AyjJB7uvmZzJzONGUCiM7/aQ++4rV8eoux013DcGXGcf401ddnGbFTtv+PKY9r0G9co9CqRviZE6AwPp+eDdvaq992yDejK2Ksb3arqSxr8We7qmI2m4KdjSg68sl08MIfCKBhooUxkSorLKZB/uU++6bL495DI46NhjmRL7SMjFcxfNFAPPP8UXlUQwZgws3yNvH3ZPyudeh0AQchQLKRblEh/LCMNyJAMJH+tPB6O2UcMGsltKXOpz1t+15p41bKhXpRehXEfhIv44216+W55z1tAhIWLsDr0Gl37DxWnsAtX/30FaNx0fV5OLKb5kyowe04VQHjh4fGcUSTeJlSWtxrZXTpNrhjbi8czm3EWz3cNiF4yIJQRI6W/kSraf1BtmSpsRg4iQQ+mOCB+0E2j/1CMjTvTi354xLK9UIEz7VYqhnV9UJP3ooOZyv4OO4jDEUiwu7lH/n1PW0Fl23uLilM1Dh6S209+c0KWG9jOc5kLfLiqSbqxV7r5mHtDNFUvk3EXzsNG3WhzkTeYnKM8bTvbicy1Uzl93gvCxeifdpyKr2yyrqhUI0LnhrDotX5pdIW95jPuiLC689eTYlNiz6i+ryL5pJgbROejvTunjgW/kNakYyCqSfXpIc2NuROPOXTRfeuESYBgiycpa1YjRN2VFbihDSt4niLxSUaIjNU41duPvHVAjTUhuqIYRA1nF0sZOm5MU0nQwrPvqiObf742hwQj7Ct//ZNqWbSfJ7mu3LoudEUGIN4+BGwOpIrCqSrG/Eze5Ztl8M3fR/MMlo7+GSDBLWJgjyb9knFOyWowXg2Y5qZk6cN+2Ya8S6UBCVeZpxaCx0+YRsrBAlw+v71X9bXUYagU/2kQ3WHu86h2ShS4ftHtYs5sxuxncy1Is91JPfnZEm5YXodOIAeKwrzCwrFwuvmOdXQlwNtEMOSTp+Rjo8rEGJz2gI9slxPVB1/mnjuO9+Ioq3sc3mGoYSC0EF57ib1aKCQ8FHym8ogvGZWWy1OD0iiKweJfs7BNc0D6PfI8O9Gj+Tb3yL6I4bPxFhfpfiW2iW8jFOcofAzkfDW0E26/1Xh90NffYq26aiy+bvj9r+PaMYccF47FHuBanSQZ2APfWo9olJbLFZfxRLF2UDzLyQBoGUv2ajeCJEGxjYHGZfM8tqxYXekGj9DCxp2cHzTQLnSSrsdMdEk9jtz2v1bStWbexXpVdpViyW55aigzFwSw5sKitrlE+lnuiCJyJpUwi78ZATovTjT34pjpVenBsNgbWiJUPJG7B/Rvr8rnbJMZ3zmr+Xb36X9Wo/rc9qr+uVP2ve1T/slrzf9WZ3jnrvjbMWIhIb30IOS8F9Q66W+Y50GHffkK3TqxcskuOqIqBdJEke5fsixbdmT6H1Ep5eezREI6aqbZXrvZhd/uw+86Q68xTXHzP9t154/sN6uxdsswCqYDgFwZrDGQWy+rv2ozORKepjG82ZhTNLOQcXlZhpe4Nu8W3bVsataiajt8MESjLF2iEUSoPWeC2H9eNmueu0Byb5l4aPhh1f9WszSrmawjxA0zLQwkGhoxktFeUdZDex2p8b69tR5vl8yvWb27gVV3EbcAYXIJKDJqFSit17gn+5QldVgWP4PG6FpmF0nUVctFZw+1XLhvBRFGrjA0CokQl0O2DWpy+M+zefc28pV61vFQ2CaZFYHGZrLEDt85GLuoZQjPFQhvBDGjJxg77x0e0qX69rH+/HypNCrDkAKzzQfUNi2W2txqxITvpt8DsK241Z5fzflT8Ip5VLC27bjY5E6C4JWn4QuPFzhnT81Eg1pjhCQMZhdJ1YmX+BePtV87pyWkUyw3qycMPbJ82apb4t4zRJk6E6sqdf+aY3oMmJWCMC5KOZhZyNoJ5rPDsv2/bekSbmo/8OWNBNoDdsAYGMktlx7pxYT1AjCHOva80ON3QbltVqRhzWsoDG2qVV184kX8Px9FspOwQ1xi8NHwkJ344qUdpDAJQw8Cy3fLvzxha+52611bSExR8pvZU3bJkVyrCFTXB8yUC7x9QP5J7YrP/uEY1lYuSi2aShgNa8tAD2+dN2kVlssDkTQ/Nq6sV1144/XLeVMY4F681uejGTvuaKh7QeSCjSLrzjH7ESFIsVOO0ycUIStIxRsKwsEdOfN2im4AyD+j1YmXDfduQ0RfDABnjtoJfmV1M8yPHxjoVmsfAaxOMZgyk5IPvT+lnzGXX389koRlynNlFX+l3ftOiX14uT43QT8UCtH8THfavCHy4T/1QSlDRBExBws/hk2YXc/whvqxiDNBrqhRnHuNOH9uvI1ue4KOmqTlB9GvJz5s0wVDOKJRuO6pr7Xda3Infk7lIeO2l69ND6hiAziiU1t6zzyR7TgqaKQa+MpA1tyzra5RpBXFoMYOBmw9SCpDne+BIKRxzWNverHupj7pbmsO4jdo1i5tpuG/LKkGrVlo++LpF98pAGp10+U2L6LzhmcoTZ3KBUbPv86PaCWBhYMVueXGr8YnSS1Bx3iNqJ6N94aFgJ3Cj50ZjVRhYXi5/rIpXFx7tQfGfTzyavTTskBA7ThvG9grBC1Bkm9dgZBRJl1fIN+1VbT+uwy4ay6+bxG3W2nY7Ou7aam5Zdl01FbYaTzzCjc5Z02XGT9P4r4SQ09ip0ssmBAgRqjV//qmDoODNAddaseKjw5oe6eRo/E2/m3vZPAFlEciuUNTdtkrNVLITMXpoeGfYvXmfOtzPcXyiU0Vgx1mDjZghG2GC0UwxyL/+vQb1okl9skRIM7+6WvHdKf2+e9bWfkev3APMPr2DtrgYu5uxe1h0EKzNzVhcKA4C9zCChob40TMHr2Qg90pPfnVchwRQDBRdNGpwSmmjvj+lTy8AGxvU90bdMdirg2T33behPYkfQBjIrpDvvWfT4NH8mhJJA5RwzMuefeZYhpL2Cm/usyvk1144ZsYfOpFoJhl48blj014Vsh6Nv50CDR7H6+tVNbetXcCjtFO4l/WisnyvVd0skbM0s/fyUvDGS+d6sTIlR7K2VvVQ7vHQ8FCHfXEJitfa3KBqHxEGNAXhvVH3qpoxyTtFBJbvktffsxmcM/fWQ44zOOjK65aUyKAKHgPpBdKd5wwaPAH6x0mnJWFo9rHw5FN8cYV8UiivEisPd9uVNoZMUMj+pIOc+xcYnHT1TUtmoTS1ALQ8tLt97AOpJ7sauRCm5oF36lU9UiJyFL8xgm3HdAH/isVF0uo2q9E509tkCLlBrferY1r/8hLOv0RgbZWi7ZVrBthzYtDsY+HFfkdKER8wJ8iV+Sjr7Crlvi67ZaakqMjpnwtnPDTEPaw3dKuPAm3Unm1HNCkYyEGcjNI56E8Pa8ZYQ65k0z71c02IG7GXgRW3rZkFYzqy9HxpYavJ4hZyykv+sH00vNLvXFutEFTYZeSDnPNoUMnuSALQzLDc9RfOrPKo5Q5QXcdS6Y5zhh65d6b5RrLpN8X7O7xs80P7+03aI932MNOCxc3U3bEtLpFt3qvqU3m9DCxsNaaNs4b0PPDNCb3MOlEBpVfp3VSrGtt+5Ug+PKSRJz+CPcZwVXaqqNWUWRRkuBnvfIoIvFur7AJEsv14XxfNDMs9Ung31KoEQy1S8kBaHlhbrdx/z6ayvzWa4hhzOslXQ0YfMojmStbXKVX2EF7FQq5TSry/V7V8t+xSHzILH+yypwe8NPmE5OK7VjuBuC8F4Z7b1jHoiMDSXbJuRQjnnqQfSfjaR8PrAy6EhACIAw0MLCmViduj+HMnrjOvhWYWcsBMfX/KkB5l25eKgQ/2qi71OWxhjChxA3iz7mR00uI2y5Y6VekNMx4RpWtwMkUXjWkl0oZ7NoeXvfLSmRHqcLexXnVj0OVjIMVydbeti/m0Hhn5YO8Dewy9x4yRSGWncs8b0oPt6gFA54EvjupGjMlNnv1aaDa5mKo2C9IrB3U60E4vlH50QHNzwEUkM+vFjE1Voh5kJ5hXBhL3CAi4LOTOPMazK+TYeYPBQffryMzikIU7o1C684xh2ICCsJ6pvR/Uq1IxyfYTOmMiPJZef4A0y1167lhTKSQ9Y2B1pby135FUYWP6aPZQKBH8OrFQ1/NAZqF06xHt7WH3XAvge/05S+od+lTeT/aqPm3UjBh9Oge9tJx3bgkwCwysqlS09OC4lyVpWHXDsrFBdW/EndQuTenmchv95RGtoNdoeoG06prZlUzWNk00sxwKv/n2BO+uFaD1eCO9QPrJQc2tl66kdn1KVJ5TF+sd9IDWC0y+SJ9Jk4v54YR+417VM6XH7mEj43zTCqTfntAP8hb+R3Ki5RE+Y5a2eGhIMbDqljXYgTuwVqeIJF8f1Y6akihsTBPNuJc93GFf7nfSHQdxoN9rxMpzzxyOCLkwHnK89dfILb6qG5Yvjmq/P224M+QOc23zMrD8hmVVrer+iNtFsevqxrUWASJjYEWl4gLvPez2sSbnnEum1TbsRsJGoMOBhkiysVZ5X5LElWSaaH4o87y/XyPQ4zywpFi6957Nxm+933poTnWAHgoefmBfsQvtNFILpFuPaOS2ECMZ5Lhjj/B19arrAy4vDTcJukBgADtvUIeqRKbak+Rdr8XprYeFhA0MLN0lb+lJYvaI6aDZRjDim5b0AgHzdVoe2H5Sn5AwiuSRexbvbPewovPGDL8RWASW75Y/14bXtLz5yrWhXtna7yIo+N5BIYceEVhTreyRztH4SGTWabNk+gPkAoyZ94ROK5DuvmIyJG3POmU0sxz3SOl5f59aQMGMgdVVig4wcx6As4jL6T3ay8CmLvvSMpk/GdKnx3UaPNy/7KGMeLdBde6ZA/ey79RHSBo8PtLywMlu3D0nIyQhx10ZcC6Poun6+oRuJGlFaaeMZruHPdRhzxJKJpKKgbo7FjcloHua3ty/fb+CHKfD6cYO2+fHtEWtpsdKT2SMyTOl54OD6kvPnRY3LzcHs7fx9sJcSeEl4xxRzEVO0wsdn6cq0gqBgS0HNb3KZK0qU0az1Ozb3qITkJhzJBsaVIOG8HUzcqh/4mcg5NwUq8Fpu0c4AW6fyrvlkKa132VwMouRp6WARJcikqzfp06qfuB1pkmH01uPagX8zzCwXqy8NegK2/u+zrOCfzs1NJPIeunM3iOsY27usUfLrRb8yPl2bAr0Kb3bjuluD7kGDWRmqVQYzRhYWi7vBrNQ+SV25/3f2j1s/iVjWuR7yEejND+0J0nfNTU0W11M9Q2LQOSMCGzapx5JpioxHiK+KdcwLHT4WBwV+xEIc+qVEZ8d1XYDolPmCbFsj4sZaGHkw0iPPcSTWl1g2vS0e9iCVmNapP8+BrJKZfvv2ZOk8poCmlnIjZp825v5KIlgyuahAN2aNus8Y45n+r0UCq4+9ABFiF154YqUfe+NuL9s0T1Tkief4iGJkSJovuu6GfeEbyLj6UOyr7F72PIblrTInL8Yik6vumGJHHVCujQFNFMM1yHxrIvMQisCi3bLHwABd/KEdPFtugnNwrsj7vf3q5FMyS+7dbctYTkVLvQ7dl4wDBnImjvWgCe+wEYFA9+dMczNBJO4NyqaUwqlpZdNuuSEokwBzR4KnujFw/xgEJVzJR8e1sx6ttM3AvS/UQnpm/PHfYkw8E61YkA/sXWGHHegw156zTxkIL8/rRfYSAU4NAY+O6pV4RMez0mlAMOi1OsCgpHQUx1etuyaWVBuTskHRa1GbXI896eAZpubKb9qigxmXLhzVHzHOrXsD0Ik+FM4J7NSXx3XTcgPGFi1S3Y/aFkjKHbPdXN9u/Wx0vOBn4UH4BvWwMCWA2qUyjqpbmmofgCnslG3XrouPnX0q71hK4ngrP0mFosuCMvNKfkg/2KyDJnxohlynBqnvziuCzeaoBVTcndIOMul4FD/lE/aPEz1TXNWMa+pEKFksh8e1ADLhNu+BqewC8bTj/GrA85VUXRHY1IHBtbXoSiVpIbz+BjYryXLrpizKxWZJbKvWnQvdJOnNDE6me0tOpTeN+INTCmYA7wZ8lvA9Q0Rpim+TtFcTnY/p14eFnL9Gq/orH6lWLmiQr61SXux3xmsfH2k8Hx3xnDrpWtvexRPtAA+MLCqWtENiOS5HbGQU1ip8mvmxaVjWdcyi2THe3FisqQmKjv14QF+bxDorb+BMnBLd18zJylpeby8mYVcn8qL0iaEGXhEYO1elT45Qv2cAmKiOuNj4JCBvD7ovtrveqL0hiWJPNfn+P6C8f6o+9tT+gmBJAwT48hYVaW4P+pOXrYBJ8mef+oIiV3NBZU3zLhggYsgAr3QedcG8iIEdx5DBQhr2izm5CR6jRfNDMvdGXKnRcYw5ko+a9HNSrLeIOq9YU1/6XmSTyES3HW3j61ts5bftN4YdL3rz1kYDIWwNoaqjSQPzQzL9am9H6MKEkECQ66k7IoxNpppCC/3O5CfRhjj49XkWaWyhnabNTlx+/GimWLghT7HWObwoOEtzJEUtprmptYzGChzoU1QUGal+nWkGqcFZc9hI7nznOH0I/xwp31FIH1RELVDxNAko/k3lbDoIp8HOrgDIlB90+yIyZtJBu65Y10kmH+QT797ohd3xbzDtCdrCmg+8dgRvgXMQ8mYxW2WJHVu2qOagz/UO5imLvsH+9WrKhUfHNBc6neE1e9hINc+4t5xyXjlpROl7Zo09Vky0Uz42COdNhQTHryTw1DCy6ZOe7CgH0lquwd+1axLi/QI5XnzOrHy+kCy0hZPAc3NXfbIIlEpuZKD7TZ3cl61SEq9oWdIGh5/hKNQHT6LZGquJLtSEWZvsnuYhnZb+U3rxX7ne7VKgWU6mEfyyFglVqKM34n2WUQJUgbd2VURfeB3/NcHJpHUn2rIjWKhPAR8nzfvVXcBIjQ3TsJmdWpojuTN82iOZyrUOI2dNoQkoxeBPbcsRJDpA5h8eZeMx7vx3besi/gMdCFyRRiU/choUPdrEuxPADk+GvxARHlz3kz2XoN6Up1gYw++NLKe9Hj/v/SQLu4AACAASURBVGpGWX3jIdo0rpkCmo9345FoXpgjOXDXOs+bY5NebqN3nNCHGJ4wUHDZFBBAvTS8+sL5wwXDqWeOr5qEPGHG0TABcQx8fFgDTIm0nvAJUugtR7UhAkbg0fkAu2DUxSygZiOY7ceFHIb51y81D+RfNKmTpgGbAprPPxVGc+V1c5Ic/GJD5A36Fvcw4luWRf7kGHxKvsVlsrNPcX9KF8hxegdddctSfs28v9O+WjAfRQBSgQYGvmrRvX4pkwAZWcgpbdQ3p/QC8iSPxfRS2dEuewzOxULuzrBrQ5RsdCkYWFwqa+xEOSMDD01sI1400yy88sKJGEOo2mVhjiT3nAFPjsIlsUOd3bu90Hhzz+lXV8qXl0jX7lGUXzMrx8NUKQb2yDzfnTMc6LIXXTKhag8ByMZoYAC7aLQlqJCZ39Zb3Gryu0MJdAADG+pVj+WeGOpti5upvG5GiXoFuy0Ca2qU11+5kme8jBfNDMt1Stzpoal3UKdzJB8d1SZJGT67+Evs030MHDGSF/ochzpsrc8d+qDyUHaCOXjf9u0pfdND+8cHhSPhBfFRd9eakFWR5TgtTlXdHl89BLGIvIVMMTw5aZbrBsSH+9Vh/G6i5yLJl43a5AnNHMfFi2ZkklV7l1cK2AKza5RJcolKLJ7mwt1IGpVhJoO29CzkXmrJz5u1JVfMte22SXwzAjjDQHqh9OIzRzw+QJMOXIfTdXetAobeoMdlVymuD8SKgDI4UArqpYJGE/4+afnS3a2m36LWJ+3PtC+IF82Q42QW6v0DEaHafGXFfrU32Z5c0x7h7P6QZjkbwarstMFBe4XycbtI9uAD+6a9qn0dth1nDelF8YkZIrBsj6JHRry+es7kYg7ct6HouAB2hRp5F4zq6G6cHgreeuncvFcVlTFjILtcfvYJnkQsx8+b/TuVHWf0kWqNlBzJqcfCpc9nF0mz/nSShs/UpPiuLee0oeSSqfW5w+AIETtZvujJ+wfUXx7X7e+wv7c3ipo2El65ko8aNcD8ulmwbARzohdfW6OMBWW+PM2NAWc0p180CgO543Ro1c2IPv/+sKY/InlIYucoXt7M8fVaGtqtaNihG8GUHImo1RTbPpTYTr8Rd2MhJzH7dl4wIgc0DKTnS9fXKi89dwTv6L0o9ZFtZaV8T5ul4roZlVoLo20EJvywW5gj2X3F9JrbFRfJtvY7Nu9VhXhiRDwxo0ha0mqKkVrJ7GL23rUuLYveeQxklcgqblmSKmZMQW7mOI6kYWu/Y/EuAdF5U4NKaZtw0n0j0JbsTvqzc2ftGq9gixRzku9P6RW2iVTLg3pyy371pjpVUw++rYmvGxIBJgGuiSzM0vNP8NcRmn0M1wWIzxo1qCJ3jIdiYMs+9b0Rd7CsH0w6t4+90OdYWSUcxj92ZwxsrFXeG3EH7ReC75Gw9hR4M83CxwrPu3sjXJxFIKNEevG5I2Gdeitu5KFgSw+OpnOc3S7MkWw9onk1XsCTZOC+e9bFpbLvLxibuvGsGLwtDG0isFqsfKyItzZmJDkZlnuhI789ZZhEG8hX0Txwz2ZxC2vVSBreGXK/1zCJgLSoQFpw0ahNmtEkMMApoBlynMpO5V8wCLzKGPjmlH5OpV4NjHC2GiQNr71wLtk1XkiPN5oU8Hspf+jTkJHcVK9atVve8tTx/WmhDUkYiAMfMSA6a1BNdzHkVctU6RVTRqR/b+ARfCOjUPr9acNQlGAtmoX3R4nN+9SxBZUUDKzaI7/c74gmdidwgqaAZo7jcC97pBtfslseCejsGmW3Yj4D3cTUoMANG1XYakwpAAt3jKbkSN6tV1194fRXGiBoWN9uSc+XfnFcd6Xfiaptj7PwSNqGncksljY+QKUkJh42lZaLZJsf4kviWAo21Cnbhl3RytXcGSXWo+T+MQWVPFTjdPsJ3cxUGJoamikWPpQSaGWJHIMIVN6wuIPcaKZC4bfzWobl5BaquRcvvGquvWvtBETAdXbQQGZXKxcXgMYevOq6GSVZDOWLUT+KwLpa5e1h9/SqDjMQ+eCvqo9adWnsuRjIKpLuuWsNC43hOA5yHM3Ci32ONYLRJRGjWFomO/sEn5kJnhqaOY5T21EYZmrk1kEElpXLH8q9SY4gnhmyJPIpFAMdXpagJirVMiwU37Ys3DH6boP6xiv32obJsBUEkdQ8IDpjAJZpus5Z3cx3gmrWoEeg3NIY+P1Bjdwanlvax0CVnRa3mVP9kYKhv4p8A1NFKE1CDAtiIgkdv7458FQvDVufO7IFV8YcyZen9K+pNgo86M1tsJDzUNDhYT1BCA4ezks9ubRCnpIr2XPH2tRtF8iEFg0l/LasqdMeWc8q+P7R2jTLne8TcLaJROHaPYqbL52B+7CQ89JQi9OX+51bmrQoZ02wF3/03mYVgtsjrsB9kt2YMm/mOE5i8n3bogvxb/SPBwOLi2TND+2+yWJ6kz2qWbw/zXLAQl185th323qpzwlMvjCRgKRhyVVzWq5keaX8cr/zuzMGAbEtGj7ywAf71PdHpilmqHH63UMaAftX8ON43bD4ns1DoVwwJKo8y0jNvt9y/X97xoAcryPzcQX/PLgtkuw8Z5jQRyZ/VqaDZi8FT/fiy3YJaMtTMVS186nSQ09zi5L8ESf5Cb95xolajcj5UyRZXCYrbjWNmkKkgpd6ciNfLHTHWcPVAdf6WqFNSDAmAm0MpBdIc8/qZZbpmABpljvxBJ88DgADHzVqe5ReHU4P6ck7Q+7DD2w7TuvHTN/xsGR/h0Vgba3yhS5ZjvmC0zgdNHMcSq/4w0l9WnBtxnGiZxYA0XnDqFEwjlOwD2/PSZrlLr9woMh2f3pMEVi9R3H22YSZg6DYfQ9sS4plGUXS5l78cIdNIBPaOCXDBQBezDjSaY/cmcVDQaOL+QKtqJOoIFLywO+PasW3rbuvmrcf122sU40pwuP44USH+eKtTT34DGjlgsc+TTSTNIoyXy+OCB3jjQVLd8mqbpjVeDTdTnAH3qo2ycDDnbbUwFqMgSVlsoaOCf/0IQP5+yOaNAxs2qu6Bzw/nNHHA68xlPBmuYeyadZH6gTEsrDqg1Fem8xiWVYpet/Qc/nsjxMwjfKTkAv4bLx5fJTKDM/uNNHM8RUP9twwI+u80AizK+X72q06/E9L4mAh1zbkXuq3mPA4WCdWtL5w+s3CHgqeeoyvRPs/UHzV9EhJrolMuCpETD+qMgqlxZdN08tE4aVgfbs1BZPEJaP7ETwNHPs7j4EPD2ueqZJVDiLGGzJ9NNMsfKL0fnFUmy6YOSEPrKxSNLRb/9TSIJkJpu62db1YuaxcvqFOWXfboh5P4ym3UTlnDZkF0pR8cPmF68qAM1pJagEGgSr7Ki71O4VNzDFmmP/K6GQ+RzkEJxczBB4d7QUTPC8Cq/YoWp87gwN4J+tdwr6fPpo5Dumhzj/DV0X3OMmuVOxrt+odf0I6DpYP8rs37D7/zHl32K3Fab8LMs1yd4fdm+uQ8Sy7WjFi8u1us0xBP5AHPm/SquwhCuD4UTBk9GXHZ+x4LTRjIKVQuu+u1eJKtn+R8NBfC828rZupbLMsEqod6KfL8gp56TUzMM/wfkB4tFM6C2kr7e7y2U6QlsOk5TCFXyYZazx3gBznY6CHgiQ9kfAY97L1d5Db5MKdks9P6PQO+v1jce3J/GRcUiLb+8A2bd/8B6MEcjcV5KaJOslLJjtO64E5RIcTD8USdc3rohlynJVgtp3SC6Q39ZMJQxXkPzmmax8lwjSviRpDwu/DUlqf/hvPi78iHv25u+efuR/+T+jo/Z/dj//Kq/yAJUem8cRBnfeLRk1qHli4c7TxgV1mpZZVKuLdAmJgU73ypX46ijl/Vy/2OTKwuI3n08A3D+Uvjmmfqb0h8QjToNRr/OR10ex/tNJOfdAck9PkSDLKZHX3bcbkJId8DQqE/hR6abzVM/j/uDv/kbtzgbsr4uj8M+LRv/BaDvtYYQ9YHwvdFAzjTgzkTvc5VvD7v5R80Csl7gMifk6ZkQ+Kr5sDPh6hPY7r08Eue3pkTZ1poFbwJ7zTzkcH1Q9GiNkN2kgMmjmO69f6Pj+mSxUcrf8kn7Tq4xZd63OHBmdodmIVjmtCZuAiSNL2FqJ/gTCOg5BNPPpzr67Mx9jDOqWwUUe77buvmc88xYPLLuEetuKaOaUAGYRX7FHILNTxXhw51sUgV+ArEVhZJe8Kyr8f9tBJP/pYmHvZNKE3DNw5cY2NtarWftes15ZNGJr9gP6kRY9UHJEedgHCiUB6mWx7i+7UY3zESLpJFsF60gmZkQtoZxsx+HeTQtnPsInHf+UziDk4Yety+2Buqym9QLpw52hGobT+ni2gfxg1U9+gtUuSkiv5qElrdtHFNywp8fnNpeWB3HOvVbb1t+Vi+1lDVFEwMDXTa/Dhq4e68em5jiR2YhOJZshxL/Xk9tOGjOibQsSNREgnn1Ei/eCAurbNcn+EkJp9Jift4uvnMZCbFaM4ZN0e6QdxQtkPaE//f6CdNwPzobBRG2uUflE4FQOfHtHifLQ9hNztITeKJBVJFuZIylqNuIf57JQ+TjRnlaCsSELh3oEnT9IgKPjZMaHKqtODb9CvUvPAil2yuttW/0gn6Ufyv04kmpHzK+TkNiqv1ZRdLkc5T2Mw6XEVfVaZbPN+dd4Fw7FO+60BV4+UeK71jhh9EpNPZpmhQ27xWY2tU4Kyu2sB0bPAp/49x46xZ4OT/uyQxu8rm5YPcs4ZXXyKKsIHmzrsmcVjbi1NHXa7h/3gkFDawiCgjAkhGNhyKKQwyjQgYXYx66NUn49L1InsFX8mNQ/Z7evvWueO12SC0ewHtM5BH+6wf7BPPWmsDqImhmq0IXd1Ecgslq6oVGxoUH10WLO1SfvVcd1XzTNxbG/WPehId3dE7PmCZGWBHWHXAu+rZax31I8wBnKX+51fHNO+t1e1vVnbJRsroKh30KWtJv9IM0qkV/udVoIvBz+p5wMfGFt393XrfUnMvpBqD1HQOTVkYwjKB+7b5w6UpxazHT9XgBxnJ5ibg67vzxqWITNvfCYoPyPnp3BhrmRhrgQtzXwjuf/mSP5b3qsnbZNv/sIB3bmA6P8PNH4jQBmCggNa7/1R15CepMYFplEj+XULnzYTQ1vAbkDoHPSyyjjIIgKLSmV9Km/g/tNrvNCRq4WC36YG3+B3QCRZVqlo7LDrHXOrkmzieXOA4h4KvtST++7aNterUJi7KD4ngWCqzUw7V/IPu3pMU2fM7s4FxLN/SdqOsTDERBdsB0PpkFWejw5q0BIkAuvEyj6VV2WnkH/LpC95juTTY7rXNxHfB+7skvhSKMVD8FzJ0jJZUw8+B4vdJBHNHMexkLO4mM5Rd8VV0ztiZWrBtHyy4iHxa1yzcOfowvL74Xx3MhkDXc+j2WM9TMOo7JNi4b1h9wYx78QskrzXoBrQkFKLb2nJZGjmBbDTT4W12gGWEU/j8oBzeXEi0My/kGvEypO9+PS8UuPp7etck1w0+3vGsJzBQXdI3OXXzZvqVchhfHquhq8B2Viraq7kH8oe6x5MWWj2o9lnOw65iQWXhtBBTuRN9FB84Jk/JXOu5JPDmmGDb8TsW1o8GZpzJdliZUJyUBx7hC8pjE/Yi0FhXg784ID6ygunk5wjOtVw5M8Emv3PpFloctFPFJ6mLvu3J/XZVYrUQilyu+EVdrHQFoPECflKBBYWjnTdnJ7c/J9px90AUWkIO6VETZultd/h9wJ1keypXnz5bj5BVK7k6+MoFn/U7EO5NGNLGrmSwquJ8W5p6LRnxdaZTkpG3mV5W5Pm/og7OPNYYOBzpDFzaA5g2kWycivVISEOd9q/OaVfJ1Yi1UeuBKV05zUbaJpn9liYM1p1+r3p6DSGV7GkIjCXVoL9ukWXVQA2iJUGJxKmcQ97pBNHOWL43e13J/RKG4XkZn9Gr2gwwkBqkfTqQGISd1fetiI31GjPmvQ8D+WvT+oeKzyeuZ1hYqbR7J94CFFOBreP1TnoQT15Z9h95KFd1Gra3KTNrlEu2S1HAe6FYOaOfLC+4ZL6/oIpAZroXUDptnFwXHnBcTYP+8UZw8KdoxvqVX63etzDHu7AF5eFoNngZCcJA8mVrN6rHjb6ErKil9ywZEwbzSJJRj5KrfRSR4Y5nwTe4bnTmB00h40f8mYXFqJdo4eBNoI1OBk1PqOH0Ul51DumhGbvYGYwY/YPSu9g74y4FeNptSLRLLVQFoJZXhXTgS5XUtRqnF6YSRhtOY7Lu2KeJHViNPaMgSUV8j13bNqYlXsinzhbZ+YEmmdr8GHP9foUnpF0d9c/ikO/8WdE/7+n8Kthd4j8iHvYxk7cX3V9YY7k2xad1EIRFNy0Tx1Vbkal1VGRSW+ClnXsgiFafFAM8SM1H7wjVp54hNs9E3vcyAHOqTPzaA6aDkjTrk7P6FJ39z+NCeg/I/r/o9d+nmLdQT8WbrpI9mRgFyiS/L5RM6hD0exbY/hpYGB1leLedJNmRPZjymjmUx1sOaC68dI5l/d8kSOdR3MITSDHkN4hUvYZ8fR/dz/8J+GYfriAePSXntG/9zna44GyP9istc+R7dfQicDmfep+jZeFXNktlLlLmDWKwPv7UVnLYCtMSC+n+GFqaMbAokLp9uO6XjmRsB5MscPTvnwezQKkg4yLxq97ZR96Bv6bp//viL7/SDz/T57+v/dKl/iMDaxPKfCbKKdo3nryjt96goFssbKXL1J2vMe+cGeUYBAMfHfaoLInLJhyCmjGwMpyeekV04jZ9zpee1GIkfTT82iOSmIG+mjKwBDPaWcn7epmfTI+QWbU6wW/gBzXp/F+fJj3mMNA1i75rUGXj0GZj5HzvqCPYQGovG5OVCFAjuOwS8Z0oTw+ISsD35N365QnH81Fk7UgbSNPzqM5kiYJPiO3Ujn+ZHN8hYeWHtxDwSGjb5mgWgMDmaWyQx32aadnjux98XVLRmRO12A9BgYyi2Rbj2huvnS+TvWJyEfP8Jl5NCed4HaCrW2zpvkrtIpA+VWzw8OaXMxHjRqBBBcYWF4uP/fM4U9anpDO1bTbYgTVp2BgxS553gXjY7knWnGThHRjBm4yj+akE5lmuQvPHEvLx4zbnxxDpW8JGpZcMQqEn2BgbY3y7pA7gXlWGx/iiwX9NHjz5IoKee1t64jRN4ux1omag3k0J4qSse7Tp/J8ekCNfGJFYHGlfMiAtAUX+x2pkZVHMLB5r7+cdawbTum7thFihaBHKIYs8C09uG48hc2UbjsHL55H80xMitXNVl4xj8X/iiQXn7toFr4ykJsaImwoIvDxQc1LXiedqJ4Nm3xrqviVIUhWTi+QbjmgvtrvdCKF4VvyN4/mmZhIFnJXXzj94UwLd47uuGj0UhD3svmXjOEWQQwlnJW8dpHW4FE5feznJ0PS92QWIY1y56g7UebG4MfNYnsezTNEfIWN/u6UISUfpdTIrlHKrEhMPdJlR55VwXo6DHzVkuAKTpDjTj3GkRsd74OaUSDdflL/XEO+BYJy2OTNozmMIMn66KHgmT7H6vFsXcd7cchxjxSe1dWhtdUwsD3RaOY4zuhivzpnWLhjNDVH8ukR7bDp7Sy8O4/mZME38r5KO51zzojKp/KVmqxuxkWyOy4Yw3jzDyd1065sGfnQwBmHl20b9Vx64bC4J1xYA9++HY15NM/cPNIQtr1ybhQrUzGwuEx29aXTR8Pbr9zpqEjKeKQTBpKE5pkb5+w9aR7NM0p7O5+rfDEf4rr9lF7voA0O+lOU+nbcZwMD353UqaxvpySQbFrPoznZFA6/PzD7th3VpOaiilUXnjscJHv6iSOQCSmFl5sV82gOJ1tcn+fRHBeZEntRF3BvqlOm5Ei2NmqGDeSo2fd5s25MesbAl806+bRqqCW2k2/i3ebRPAuzhnJ8DbhWVSkyC6Tl18x6B33x2YQP9O+PaBMVETgLY5vVR86jeXbI76Fg8yP8HbEyu0J+sd85ZPSJzhuRsVAE3m9QP1N6p10UYnbGMzee+haiGfcwwwbykcLTBYjA8VTpGTFTggH0NIQuH2txM1qc1uK03kHbCIagYLKLw9kJ5uQjfJVY+ftDmk6Ju/W5E9V4xcDqGuW0aw/PDVAlrBcUy2lxZtjoGzKSgUON024fHDH6hg0+v98sxXIKO/VC440XzbiXVdioAb3vqZr0H/06UmqlTC422bM+Jdr4GHh32P3dSf0H+1WbG1Sb96Ljvb2qLQfUP5zRP1N7wu5GQ/gAELW3rYUXjTvPGnaeNeSeMxS3GsVtlk5AJNAtM+y5/o9Wgjn9BF9dq8w7Z+iQEOXXzFnF0mXl8kvPnYIvnuBN3uKTRid98L5921Htl8d0Xzbrvjym29qkqb1t7dN4d5w3bj+uax9GJcfVOL3rquWTA5q40Cy3Ud+c0H9Yr9osVm6qVm6qQf++W6PcUq/65KD61qBrdqtdBE8nQcFD3fgyf26hQP1GvrGyQt7aH57WjWJh3T3b8jJZZqE0vQAdGQXSzAJpdoX84AObjUhuuDLkONzLXhtwfXJMW9xquvjc+dkRbVqxtP6uFX9zIqWD6Z/YtsFJ77pqWilWppdI0/Kl6SXSpZVyUavpzoh7pViZhoFdrUY9Tl8fcK2tlKfkSOJC87nnjjS/lX88hTjagPPHwhzJD+cM9iTPevw0cpJQ3GZdNJ76eyJYiC9SfeIJHnYrioVVbZaMsEAjvqLw3rvWmUmD6aFgFyByzhvEt60HOu3rapT5Fwx/UkUWwyYl8JFhocJGDerI95q0KTtHd543dAECWKj2ITeqYp8rWVuruj1MFF0yZRZK40Kzh4Z5raYJY1WQVyHCighkVylU9rmi7cc9bNUNS2bRWCL7CTTngWW75E29UdAclgpoZtHMcRzFwkE9WX3HWnnHktNq2npM91z9pgeCBDD5Wg0IUcGGbWcMKTtHd7dZ3XwVxusv3Et2owTYqQXgy5P6NdV8gY54ePOIybdhnyoqmvNQZvybA+45sgfHPUw0NC/fJT/2cI6i2T/hZhdzts9RdN38UYv+2qD7jUsA8FqwjfnjbWcRmkuvmZ0k66XhpWeORaWylAKAjkKQUgRQqjcMTCJpQI67MeBKi506O1dSftM8R6IjkaRxyzphWgtaSVbslkeVNGabNwem0kvBPi0pvm/f22kzzfHaioFOJ78RjGa3jz3Ri2fukq3fr15Vp0Q5mfapt57SZxZKJ0GzywerbllSgx1wg/Axto6LwOYGtcoWkl8++QMUfgJBwYNd9qXBu8BxEX9lufyS0C4Qyc1zBs3+UeEe2CEh1Hii8sMI0+oNOhuG5pZu+6JSWf4l4+6rpk371Hvv2w522JYWyyZBs8xKvYcC2sY9vCKhzIvOWaWym68mT2M1A+QjaXhr0PVls3ZjvXJ93dixsV65sV65vVn7WBmuoRvbBc4xNPsJRc2VQoozMG+TPOLrC8aMPFBx0+IioZNkmzrwJWWosttLA/lYTWpx+kq/c2W5PBaaWY5rG3ahTMOxeTP/bWWbZS5sW35L8WYlmAEt2SMjHkjc9/mjW0o8lBEvtWRkDZG5jOZJZvhP6euWJ3jueeO1AaePgQQF2wbdxVfMbUPugEHghca7+5o5Fpq9NKy8ZckM017lgZTIVCO5ks+OadX4nBA2pjTL82ieErlm62LcC3UO2l9/kYWck2SNTvQxEKDrpaHBScdCswanPzmoCROal5bJNu4dr10SEDxEYFmFrAPMCWFjShSfR/OUyDXHL46F5muDrmx/iYMAavPAhwc09fdt74hRnd0JbS5fTKD2rnXamg2Uh5yGuIfV4rTMSknMPonZByw+HU7jHtZDw8BbGI2gkNfa+hgY44g0wk8DzZDjSAa6SNbhRR3GPajhItEKSAX1cvwy6PBOHC4S/lbDPUbEP8NyBAUdJPqJnWD8v3VTrOB+kKRRfQKHF9r4K90+GChS6KcSoioFzS5GbhsjqdxGmVzIC0Xwhv5fkQy0uhmlnfbPgtxKGZ2Mw4sqokcjfuzzEHJeGiWZ1+G0fHxypVZK56BxL0ygDT8qmhnI7b5mDquXkV4ozT1v7JZ7v23RowI8QShPEaHQ+WmYURjImd3MU5X39GO8ps2y86zx6xbd9mNadLTodp4zVt2wnH6M98oJo5OJhGOAjriX6ZETN146ox23Bp1PlZ6w0mBTRTPkOKOTaX3ubH6I77tvr2qz7rlhqb5t2//A1tKDDxsn9g52gr3Y5zj0wFZ321Z101J921p313boga1tyOUJA934GBiWe6nznnyE779nE9+1Vd6wVN+17Wu3nX6C92u9YT9yeNkbL11Huuw17bY9d6w17baj3fb7I+5AAju3jx3Uk2ee4Luvmr89qd/ejEj6zQndrivmll78oZQwu5gwfNIQjpp9rf3O3dfM354a+8nXLfq8C8b9923tw24NTk3JsMCTi34s95x76qi5ZcUuGL85oUcz26zdflKff9FYdcd2+pnjidJj5MvEjFNimv9HRbMWpz87qEkNxisqES4/2o1rHYz4ugUpOoJ3hyKwZLesC4yV442zO24f+0juEbdZtx7WrK6QLy6RpfrVC361Wh5ILZBmFctWVcg/PqQpv265LyHC4Oh/EAu5lzpyx2n9hmrFhhql4LFJrCxqNcnHazj4fzhVNDMsbO62r61UZO+SLSuTZZXKskrQv8tKZevrVI8VY56cEHKDOt/aGsXyMtmSkrFrlpTKlpfKtp3QWaIokj0UbHxgW7NHvqxUtriM/1UZaq+rUtTdtxGhVVAUNnp7kzZ7l2xxmTyLP7J3ybYf1b7UorrfJid99gm+vVm3ulK+qFiG5nGcpIuKZCvL5R8fUNfdsQ6bUGp0/5+PgTcHnd+eMqzbo1hUJB3bHfFTnFYgXV4m21SnLLxkfKTwxAlokoG9vYPgYAAAFoJJREFUUqLsivmDA+o1lYolJbKxFP9+2OSDjCJpVolsVaViywF12VXTI4Uncps+1rn4/ouK5g4psb4qPDj+HbHy3oibZuH5x/jisnBdR2qupP6BPX69kt3Dnnrs+OiAemmpLC2I3CEsf/x8Wh5YXCx7t17VcNcamQ2WYuD9kfEik6Fv4NjdMJCWB75q1o2EJl6ZKppNLoaXsibA4b//whyJ6LzB4BhLusxCrk9FpvrDVwPvPF/QcvNhjSkKHyIoKL5hSS/kM+EG/WpRAai5Y3WFohlYqA/r+KKagfGKwNpK+a1Bp9HJ1LfbVlUpUKLbcRBPUJU/k5YPlpXJ8s4bJCaEfh8DW184N9Uqkeo98ifjs7CoSPrRIW2PIlzRGQk2k4vZ/8C2oVaZVRyzPOT4s7JKZFsOqI8/xF+ncLcwmr0UrL1nQ8GYAZrmgfR86VfNumGjj+O4h1LivXpViOjMK54/OaLFvXEFuNsIpuaWZVmJLC1SQxKYnohGah5YXAiwVpPSHlIUxMfA9iH3OrEyuMMT88ffJ43v/2uiuf6+LVzEQgOXZNcoe+REYOUeQ3MoAVF/ciXvN06CZlRvLnTgWQXS2rtxoBkD2WWy2nbb3ru2JaU8hkLvE3bbFD6NfsUVkxqnLg84N/DB5OHXRNwhDQMb61S2mC5+apzKOW9Y4n8tI+4Q7RGpGFhRKiu7bFKGrp+Rr0q0M8JoVtnpH04bwlJYLyqSVlw3+8GqslO5gZzEQd1dUSZ/opr8xXWTbH27FU1b0NsSbZDh50XovRK1moLX65lB84jJt2I8vctEr/jafuLbIQ53iUXzonwQF5rzQEahdE2takVF6KIaNEET3fafFKHEiuXXzR8eVIdNd/iVwTfZOSput0aD1G/MVXTZnJkfKogG/zxGGwNLSmTVN61G53R8cYXR3CElNjeowsazfJfs/LMxrx2XDzbctUU6Xmbmgdr7tmjj9J9nWBQVt9xfCiRyYBhI2TmamitJzZWk7IxSaF6EfE0OP7QHhD6ahV0SAoWO5o5Xzoy482vyZpKFVXesAmZRDHx0UPOIr/8QGHhi0Rwvb/YPeXztDpu+qB/zecedqayQKSLwTq1S7xRYhCkWNnbZlxUL8SkkaIGUHEkqf4xVOo2YphQRqkp/shflbA/QM86GAJoJHzzWZc8ul4eMHwPrxIrnmrHy6BTLXRtwvlOtCBM2UvPAF0d13hjqH45T2qkvW3QC6zUGMvLAhjpV0RXT4U7boQ5byXXL+/vViwQXLBFYW6sM9IfluFdG8odzhpVi5VqxckWlPC0iY/HroBly3FMVuUYc4UuIgcWlsoZ2W1htv8SiOX7eHDZl6RhYlA+WFIBFeWjbEPJt8MfAComB1Dz0k8UFICsfpEd7MUTIbe3WSPiOH3LcExX5QWTiU/5ZmYXSjQ2qomvmAw9s+x7YsCumNWJFenA3Au1cyWeH1P1qTyxdphDABdCsstNFl0xoVxu4O0+Lb0/r7Z6J16Vf6/3scLjSIyUPvFOp6Oe31UKP4xiWO9PnQNujAAX9T8FAVpEsr9XUr/W6KaSU9bHQTUFgoWraLEsjdpyob7mSgismavzN8TFIseqP7bvc73inNny1fR004yRbddMSWXUvLR981qR9ogp/fxOL5qnxZp6e6QVgdbUCazU1P8avv3Qe68W/aNYt9m/IgqY1eIpRkv0S6RfHdA0d9ssDznPPHfmXTdmV8tQobPvwQ/sEGvjJxr2s+JZ1iVCoxLJSWell87CB9NCQZNDkemn40uDbec6Q5a86ENwrDGSVyg7et001CiQczSzknio9nx7WhIwzD2RgkkOhzsF6B1Ps9/kP7kceWFosPfowqveXycW826hZmBOqq+bfFuyCUS1UM9TkpKuu88mPQx+UgoGMUtkrA9qSh/31yIh3G8J3hNNGMwu5h3KvwBYTAysrFSd68EilYaLRHK/c7J+1tHzpJ4e1d0bcwYu1jYCFrca0SD8FP1UxkF0hP/MUn1CYc5zDy556jK8KU235rxeBosum4JcYQq5PQ37aGI6cFAxkFcuKW01aIceH37xeReeNYWDzf/ziqHZIT06JPYej2e1jzzzBV4cNAANLiqR9WqTNCPy5ffBoFx4ukOSBzEJpwUWj2S0sxT+UEymRkgMGsvco7g0T0YwjjxWezULrV2qO5FC3PdClQCOxaLZ52JJrZhSrE/o6peVLvzuhHzWFkMXfh8SieWqSBgZW71Gcf+qItMv2Kjwr9ghXRM4olNa3WwNOPP5RQI4bNSEtvoDeSQR+OGsI1l95aHi+z4HCQEJX3VQMvFuv6pYS44toYJbGGt1Sj0CdZgysrlbeGHBHjiL890Gfw9Gsd9AV18yLwiSBXLCuXuUkQxYWmuXuDbs3hak885Dg9eFB9VP1mIQd9CzUrO+wCVR9FEm+PamXRU/wY3TQFVfMSBEbiqeUXMlXp/SR70Bi0Xx3hFgbqfvDwKoK+enHuCC5E4zmgqnwZgx83YzqH4dRHplU3Kywf68IbNg7VpYz7FdmF1PbZsmKVDWKwNcn9FZiYiNodjHiNivSDIaiOaNAil0wxjD12Tzs16f0Yb9KwUBmiezQAzvumXhEWN8iP4agmYVcv8a77Yg2/NY7JbmtpsgfDxl8Xx7TRi5eq/bIzz3DBQOBvohSkbfhTqwoZYKCLb34WCGcYECLwMZ6lT1iwAlEM+5h8y4aw935kfYd7DipD1SHDyNOgtEct4YuJQ9kFMuq26yCUfQkA7ef0guqZfIuGgVLwzu87PGH/AocitEUEdh+Qm9yTUBNbqVyzxoQGEKvzCqWHe60CYLBTzQawvp7VhQTFfxD3vOnuNU4pWjfEDSTNLzc71oVthihZ0iuvnSFTRjHcRY3U37NvDh0v+iXk3ZdNUeqDL0UXInclUI31xjIKpNdeOaIMWCKgdcHXUhyDXZ14g1U2eXy4Yi1PoFovvnKvS4sYTj/3HdqFNcHnNEccRKL5insAjGwXChgzD93DMthkQHLPG4a2oW5idsHzz9xIEgEQ423lAWjmeX8fFBAaF66S3Y5IuQnDEutL5yZpUFpf/0MCwPbj+skJl/A9h72q8iPIWi2uJmam9bwnbsIZNerDELabJrlzj1zrKwI1eXlgdR88MUx7aA+fH9mdDIoYi8CzdlVirYhVzS5iuM4BnJdUuLDhgjrYx6yHvUow6WaRKH5hZ5ECbUiDAFZxbJdV00mIZr4SZxYNE9Bbubln0v9zsiZRmRkuaKrEeH3GEgpkjZ14y5ygtEGfk5Q8MJT56RoplmuGxAf7VNHgn55ufz+ZN47PXLPkl0oBjtEkhRJPjqI5J843UI4jgtB8ysD+VmTNpz/5Uo+atH168lRMxV5nHkasWXkWdd6sfLaCxQpEKALx3HA4kO+/xFv+Rqx8u6oO/Ta4N8hND9TeT47pAn/bR5YViy9ORS+biQKzZcHnO/vDfWF4NnGsl3yxofCErO/34lFc1b8cjMGVlfKW19MDc2pxdKjPbjbN300+xh4Z9i9uT6CViLwm+6/NyKALWR2Oe6Z2ousaRFo/mC/+qnSG7kvCvt54OMEmlmIdnXIchuBtiVViq1Nus+OChzv7VNnRtaiw8DSUlltmyUsu8qo2ZcRJirwa9baWoTmGJ1mINen9mw7LIDmpUXSKy/DJy9RaO4AxGdHIlbPPJBRIN15xhAj1iaxaJ4Sb54dNNPw5qBrY224QgOlW9kjfzZudAvALqwxqCcFlC0iyQf71U+UZAxghN1nAs1Okj1yz54aiTae16blSQWPMJfRsZWCNyl924KEnuDnITSj+qFhCwqy6sWF5saZRrPBSe/vsEfu01N47WzLk6hq9cSieUpy86ygmWK5B6PElsh1jEdzX3Rrmh8efWqvP9tLmKQxfTRLLb7Pj2oXhvngBysQptTm64S2vQqRhg1ONjO4xof/hiKwokpx81Us3kyzXI+M+HR/hFiWB5aXyDpkyZKb+RAM6jOhtygVA180aoeiFHeKgeY1DWqDQziA0u8ROn0fOp7vzAqaaRa5VX5yIGKCeEmjSx4+QcE8juO4Lqmw3Lz1iLZfO3W5mWZhxyif2ytMzJgSgoMvxsCiEtnBe/Zgr1yChlkRW8YUvk76lX5nwEYdNlSO42iWa3vl3hCp0xCB7F3yQUPICsBxCPoJtAWef+6INBKlYGBxifTAPVuwvS3Qcwi5EYNPwLMKA6vFymgROm8umsdEwSZtZAT00t2ySFEwQCh/49qgK5WvBRPCm1EJGP2Iceo6DSfJHuq0C5R9DgboVNsYyD1tCNPIbjmsCZc0MJBSKG3qsAvuqf2jJWl46sl44fXgbojA2jqVJUiH778+sWjW4NSO0/pIlXMKBn5/SPNMJeAcAzlOZqGWh+k6+Z5nlckGtcIG22honvtyM8dxUpPvhzMGFDoUyhCzSmSN3fYYWjbIcQe7bOg1CP1hSj4oaTXpxgMgwl4AwY9jcrMOp3ac0Ue+WOgBcR7BIPO3RWB9rapDEuJpVX7bglwBwy4WSfLOGtTRfbTNLqb6hhlV2gsdcKoIfHVCFxntklg00xDeeuVaWRWhQuId6PbesVqEzPhGB73+gDrcVZAn5oVnworqaGie+3IzKrDpZPbcELAaZuSDwlaTIIn8iHRTbGGrKRwSGEgrlNbfseJxp5/98ccfx9DcK/dsilSvYCgQcLNY+d5kx7s1isxI13sMZBbLTvXgwXapDgkRnl6W94ZbVa3olBCCmkUIuX61d2skU88DqTmSfV1J99PgOE7voEUXDMhdIfh14qH54X71g1GBDIg2gvnurCFyH7IwR/LVCZ3g7BIUrL1liZSb3wjejIrVPsZX71GE4TI1D2w5oHmqEi5O7ze7bNor4Gq7skrR+twZFg0pyJL9J3/66acxNB99iKP9WfBU5YH0ImlVm/WxiuzTTnI8lBMfH9EiX+wwppsrKThv0AQ5T1kJVljYwMCuK2aVPTiGH3USQs7sYvbftQm+LcvLZL9VDIkcYWJ5s//+vXJiHQoeCx0j/8buumqJ9P4jfOyRTrvgcpdaJG15jJvdDMWEZFbwULCujU8JGUrGRXNe3+wnUZ/Ks7VRE+lBuqREVnPLoneEW05ZyOmddNlVs4CYwdfmGtQF4jEiJzn8zC+//DKG5oJLRjRPwWgWgexqxROFJ4ZRI3C/MVN7pHZPJNmCFOCegNhEQ3i0BxfI4YmB5XsU++/ZhvWk1c14KJRmAfewErOv+SG+rkbApp2CSfIuGb1CEQrJQLPbh6K/0OsaTCX+47pa1Y1BV5j7EcXAB/6NddgLwP9kRY2y7q7twSjxSk8qLJTc4hs1ko8U3p1nDCjxexia4/fTmCXriR8JVoKtvmUJCyf1j2V1teLwA9uI0Yd7WIJCuUdwDztsJBvu2ZZG5Gzxuxw1tFunVNvg119/HUPzwXZ7ONfJlWxr1gr6pAZAHNxoHyUiubtfL3vuqSPYziQxU9uOaQVgkYdcbL87pd/bbr3wzHHhGd7UaRedM6zxu0mEYUgE1omVjxTCqp9koBnZMq2+1XydvzC0peSDnAtGFR7yYkHIKa3UzjN6wZEilcgu+fsN6m+O63LPGnae0X97Qre1UbsiUufDB4PEGReIigDNhi3QjwTeEdzz3t7wGLwU3rNy1R5F7llD4wP7uSeO808dhx/YdpzSo5oekW+7CHx6mI+BELBOBoNuov3zzz/7ofzHP/5xgdn9U5gr3MIcSV2bJZBqZOJ3UVpSC72xXhW+6clDsvzua+Zgh0Av8m3iHVkih4GBlALpkl2yNdWKNVWK7HJ5eDi+n2mJQGaR9GCH3R0alB/oWpLQzECu8SGOxhjxai3bLb/2whm8Q+A4zu1jLzx1rNwjNGH+gfjvkx+U2i/szvxlb8Qu0E98F8nuu29bGulByq9IGYXSFbvlq/co1lQrlu+Wh+9DxmmSXS5v6RH2GwlMcVgjwJgRmv/4xz/eeuEJZjkZhdJ7Qyh1RtjPon10+mBRKy+u+PsU9O/WJu2AdiJMAXKcxcUcum9D8VGCgA7TogTdys/nMouku65adEHieFivkoRm/8798yZtZOxMigg5WimtIfoVFnIKK7X7inlxxJ4kmNTo3RACceCaN2IXGJgCHU6XXTaFu8gHJnGyyV1SJqu8YYlfKOA47v9v71p/2rai+H+WjGkaoDasrVapm1pp6tf100QgINotBQJZQnmspVuXdayiQrSBhMC68hgIUFWSUpBi5+G8gNhxjAMxxMl1QuhSXTtxgu0k3YdpqkQUydeP63sePx/fe8+5x6enp6JhLqK5UCj8sUwXJdiGXBnAtpUWKYlESwoZwD1ZpxQX/Gn6/FZnorKDmwFcmGLNc7Hyx6NEbmsUeK94o97bbSP85BncSIj579CcAZzVRTfJ1ynq4Ovi8eqZCRze7wPehI+047twFCt/dGswW3Hqsw60b4ao9EPxIVyy7DC8/fsfexqiFjxEqnsqqtAhrmBKfFbLBR0MUTLOxjyEdDJAvLO8IA7+REBD2yz8HK5kQ6dHpUU6+cw98so1jrwKJFvgKm7pqL+hyzMgC8YXAD22St0cDUHHhGQMKmG7FN1x1Yw9XKRCVJ13xr9Gs6y5Jr232jepdmi2a3JPwaDq0Bv3g64II3mdpdJga+eodxrXGHxqHSKVj6RpcVew1m2Iug35/I7n3jyZLOZRKmqgmOtIJu36aJYEL+jQ+jF0SrFolfHNElQIyrUsU5eH+Bl3ed9MZJMPO1O3ow065MZPQcsKVO6HTDwILUqssoDhMpoLhUKUzukn8SdrVLXkfxLSxV08kb41tqNuQ1WtblUrAr0kWoQvu7+1RFBc6qIEgKOZzEaQuTdPXhsOftoJKxaV3V5KiwHvhqg70RYz1m3HV71JiqmZZJOnRkCzim9dJOOTdqRq5q4OgWZ36WKk6YeqaE6lwUv3gcYUEC4Wq6ha3Q0d6PAiWe5UlUSTznC7+2nHZuK7ib1GHhmQU20J2SKzfAF2Y7SQ5ca73q8ehgy2qNVFewjpEAGieSgoiLd4N75iHTRboyWlFBUEE1zc9oyt7SvO7Bbjm3t9QkOlum5Vq7sGmoWp1WQKvA4y/TPEF4MBNVQufDKhfoU/72eAlHegVwcD5jliI8TQFSmZS8JT3p6cnFT2lUvWGG7PoFk4kX/3z0k+n8vlstms8v1kR2Fwwt7x1CZ9/2+y34Hr7bjBgY8skOMb9BqWpKpMHQIAE8iGKda+SX9vx79+FNaYsOYeX3OPr8WEXf81ctuGP3fRvhj8rvAHduMpJrPsPfxtnTL9Sehn8Lsz+MgSOfF63xU+lg8csXhq6u3B0CL54yykuXeWeLAct7polEhVCx1hUsAZZiad+yMLpIHn1PQyNroSn3AmNsKMop8AcFwGcInjjC+Wsm0f9jiIm79HvnwQ0hixi/3+5m7fBYP/khm7Nhq69XTX+CI2vZXY3j0ik5kDFubcli9dTrJgPcCMv6KGl0ieR2J4ibSsU38hyWqf/wEc54mxE86EqCDji9gvK/Hptwksziq6rtKAi9DsPHr4aI0yzBF6O26cxQcXyGdvDjZ3jqqotIwMAGCGOyzOPnPRXdbo9Z9Dl8zYBYP/Yp//ykDgG0vkjg23byUC8fQhW99IZbPZXC6Xz+er4VjBNlfC/Lx8LoGPTgIKtvmj4+Gc4HMJCBJ4D18Dicl+7+/QAAAAAElFTkSuQmCC;" vertex="1" parent="1">
          <mxGeometry x="330" y="2619.54" width="59" height="44.93" as="geometry" />
        </mxCell>
        <mxCell id="C_dpL106deid5A0ibrWK-3" value="Aoikumo B2C data" style="html=1;verticalLabelPosition=bottom;align=center;labelBackgroundColor=#ffffff;verticalAlign=top;strokeWidth=2;strokeColor=#0080F0;shadow=0;dashed=0;shape=mxgraph.ios7.icons.data;" vertex="1" parent="1">
          <mxGeometry x="339.5" y="2732" width="40" height="50" as="geometry" />
        </mxCell>
        <mxCell id="C_dpL106deid5A0ibrWK-4" value="export data" style="rounded=0;orthogonalLoop=1;jettySize=auto;html=1;entryX=0.504;entryY=-0.057;entryDx=0;entryDy=0;entryPerimeter=0;" edge="1" parent="1" source="C_dpL106deid5A0ibrWK-2" target="C_dpL106deid5A0ibrWK-3">
          <mxGeometry relative="1" as="geometry" />
        </mxCell>
        <mxCell id="C_dpL106deid5A0ibrWK-9" style="edgeStyle=orthogonalEdgeStyle;rounded=0;orthogonalLoop=1;jettySize=auto;html=1;" edge="1" parent="1" source="C_dpL106deid5A0ibrWK-5" target="C_dpL106deid5A0ibrWK-8">
          <mxGeometry relative="1" as="geometry" />
        </mxCell>
        <mxCell id="C_dpL106deid5A0ibrWK-5" value="MedicalAI DB" style="shape=cylinder3;whiteSpace=wrap;html=1;boundedLbl=1;backgroundOutline=1;size=15;" vertex="1" parent="1">
          <mxGeometry x="230.5" y="2842" width="60" height="80" as="geometry" />
        </mxCell>
        <mxCell id="C_dpL106deid5A0ibrWK-6" value="submit data to" style="rounded=0;orthogonalLoop=1;jettySize=auto;html=1;entryX=1;entryY=0.5;entryDx=0;entryDy=0;entryPerimeter=0;edgeStyle=orthogonalEdgeStyle;" edge="1" parent="1" source="C_dpL106deid5A0ibrWK-3" target="C_dpL106deid5A0ibrWK-5">
          <mxGeometry relative="1" as="geometry">
            <Array as="points">
              <mxPoint x="360" y="2882" />
            </Array>
          </mxGeometry>
        </mxCell>
        <mxCell id="C_dpL106deid5A0ibrWK-7" value="clone B2B data to" style="edgeStyle=orthogonalEdgeStyle;rounded=0;orthogonalLoop=1;jettySize=auto;html=1;entryX=0;entryY=0.5;entryDx=0;entryDy=0;entryPerimeter=0;" edge="1" parent="1" source="C_dpL106deid5A0ibrWK-1" target="C_dpL106deid5A0ibrWK-5">
          <mxGeometry relative="1" as="geometry">
            <Array as="points">
              <mxPoint x="160" y="2882" />
            </Array>
          </mxGeometry>
        </mxCell>
        <mxCell id="C_dpL106deid5A0ibrWK-8" value="Reportings" style="shadow=0;dashed=0;html=1;strokeColor=none;fillColor=#4495D1;labelPosition=center;verticalLabelPosition=bottom;verticalAlign=top;align=center;outlineConnect=0;shape=mxgraph.veeam.2d.report;" vertex="1" parent="1">
          <mxGeometry x="242.1" y="2992" width="36.8" height="50.8" as="geometry" />
        </mxCell>
        <mxCell id="C_dpL106deid5A0ibrWK-11" value="get data from" style="edgeStyle=orthogonalEdgeStyle;rounded=0;orthogonalLoop=1;jettySize=auto;html=1;" edge="1" parent="1" source="C_dpL106deid5A0ibrWK-10" target="C_dpL106deid5A0ibrWK-8">
          <mxGeometry x="-0.001" y="15" relative="1" as="geometry">
            <mxPoint as="offset" />
          </mxGeometry>
        </mxCell>
        <mxCell id="C_dpL106deid5A0ibrWK-10" value="AI LLM Model" style="shape=mxgraph.signs.healthcare.brain;html=1;pointerEvents=1;fillColor=#000000;strokeColor=none;verticalLabelPosition=bottom;verticalAlign=top;align=center;" vertex="1" parent="1">
          <mxGeometry x="211" y="3144.5" width="98" height="85" as="geometry" />
        </mxCell>
        <mxCell id="C_dpL106deid5A0ibrWK-12" value="AI Insight" style="html=1;verticalLabelPosition=bottom;align=center;labelBackgroundColor=#ffffff;verticalAlign=top;strokeWidth=2;strokeColor=#0080F0;shadow=0;dashed=0;shape=mxgraph.ios7.icons.lightbulb;" vertex="1" parent="1">
          <mxGeometry x="242.1" y="3340" width="37" height="50" as="geometry" />
        </mxCell>
        <mxCell id="C_dpL106deid5A0ibrWK-13" value="generate" style="edgeStyle=orthogonalEdgeStyle;rounded=0;orthogonalLoop=1;jettySize=auto;html=1;entryX=0.477;entryY=0.005;entryDx=0;entryDy=0;entryPerimeter=0;" edge="1" parent="1" source="C_dpL106deid5A0ibrWK-10" target="C_dpL106deid5A0ibrWK-12">
          <mxGeometry relative="1" as="geometry" />
        </mxCell>
        <mxCell id="C_dpL106deid5A0ibrWK-15" value="Reporting Flow" style="text;html=1;align=center;verticalAlign=middle;resizable=0;points=[];autosize=1;strokeColor=none;fillColor=none;" vertex="1" parent="1">
          <mxGeometry x="212" y="2528" width="100" height="30" as="geometry" />
        </mxCell>
      </root>
    </mxGraphModel>
  </diagram>
  <diagram id="Alr1G6AmEB6OLaT4Wv0o" name="UI">
    <mxGraphModel dx="1434" dy="-264" grid="1" gridSize="10" guides="1" tooltips="1" connect="1" arrows="1" fold="1" page="1" pageScale="1" pageWidth="850" pageHeight="1100" math="0" shadow="0">
      <root>
        <mxCell id="0" />
        <mxCell id="1" parent="0" />
        <mxCell id="6tCCwzCevyXfsBco_8ao-1" value="&lt;h2&gt;&lt;br&gt;&lt;/h2&gt;" style="strokeWidth=1;shadow=0;dashed=0;align=center;html=1;shape=mxgraph.mockup.containers.browserWindow;rSize=0;strokeColor=#666666;strokeColor2=#008cff;strokeColor3=#c4c4c4;mainText=,;recursiveResize=0;" parent="1" vertex="1">
          <mxGeometry x="40" y="1220" width="800" height="560" as="geometry" />
        </mxCell>
        <mxCell id="6tCCwzCevyXfsBco_8ao-2" value="MedicalAI" style="strokeWidth=1;shadow=0;dashed=0;align=center;html=1;shape=mxgraph.mockup.containers.anchor;fontSize=17;fontColor=#666666;align=left;whiteSpace=wrap;" parent="6tCCwzCevyXfsBco_8ao-1" vertex="1">
          <mxGeometry x="60" y="12" width="110" height="26" as="geometry" />
        </mxCell>
        <mxCell id="6tCCwzCevyXfsBco_8ao-3" value="https://localhost:xxxx" style="strokeWidth=1;shadow=0;dashed=0;align=center;html=1;shape=mxgraph.mockup.containers.anchor;rSize=0;fontSize=17;fontColor=#666666;align=left;" parent="6tCCwzCevyXfsBco_8ao-1" vertex="1">
          <mxGeometry x="130" y="60" width="250" height="26" as="geometry" />
        </mxCell>
        <mxCell id="6tCCwzCevyXfsBco_8ao-5" value="Welcome, &amp;lt;Username&amp;gt;" style="text;html=1;align=center;verticalAlign=middle;whiteSpace=wrap;rounded=0;" parent="6tCCwzCevyXfsBco_8ao-1" vertex="1">
          <mxGeometry x="10" y="120" width="130" height="30" as="geometry" />
        </mxCell>
        <mxCell id="6tCCwzCevyXfsBco_8ao-4" value="" style="endArrow=none;html=1;rounded=0;exitX=0.171;exitY=0.999;exitDx=0;exitDy=0;exitPerimeter=0;entryX=0.188;entryY=0.199;entryDx=0;entryDy=0;entryPerimeter=0;" parent="6tCCwzCevyXfsBco_8ao-1" target="6tCCwzCevyXfsBco_8ao-1" edge="1">
          <mxGeometry width="50" height="50" relative="1" as="geometry">
            <mxPoint x="150.40000000000006" y="560" as="sourcePoint" />
            <mxPoint x="147.99999999999997" y="114.79999999999995" as="targetPoint" />
          </mxGeometry>
        </mxCell>
        <mxCell id="6tCCwzCevyXfsBco_8ao-6" value="Chat AI" style="rounded=0;whiteSpace=wrap;html=1;" parent="6tCCwzCevyXfsBco_8ao-1" vertex="1">
          <mxGeometry y="190" width="150" height="30" as="geometry" />
        </mxCell>
        <mxCell id="6tCCwzCevyXfsBco_8ao-7" value="Reporting" style="rounded=0;whiteSpace=wrap;html=1;" parent="6tCCwzCevyXfsBco_8ao-1" vertex="1">
          <mxGeometry y="220" width="150" height="30" as="geometry" />
        </mxCell>
        <mxCell id="6tCCwzCevyXfsBco_8ao-9" value="" style="rounded=0;whiteSpace=wrap;html=1;" parent="6tCCwzCevyXfsBco_8ao-1" vertex="1">
          <mxGeometry x="160" y="160" width="630" height="390" as="geometry" />
        </mxCell>
        <mxCell id="6tCCwzCevyXfsBco_8ao-10" value="&amp;lt;Chat TextArea&amp;gt; Enter your question" style="rounded=1;whiteSpace=wrap;html=1;" parent="6tCCwzCevyXfsBco_8ao-1" vertex="1">
          <mxGeometry x="170" y="460" width="610" height="40" as="geometry" />
        </mxCell>
        <mxCell id="6tCCwzCevyXfsBco_8ao-11" value="&amp;lt;Btn&amp;gt;&amp;nbsp; &amp;nbsp; &amp;nbsp; &amp;nbsp;Research" style="rounded=1;whiteSpace=wrap;html=1;" parent="6tCCwzCevyXfsBco_8ao-1" vertex="1">
          <mxGeometry x="170" y="510" width="120" height="30" as="geometry" />
        </mxCell>
        <mxCell id="6tCCwzCevyXfsBco_8ao-13" value="" style="sketch=0;pointerEvents=1;shadow=0;dashed=0;html=1;strokeColor=none;fillColor=#505050;labelPosition=center;verticalLabelPosition=bottom;verticalAlign=top;outlineConnect=0;align=center;shape=mxgraph.office.concepts.book_journal;" parent="6tCCwzCevyXfsBco_8ao-1" vertex="1">
          <mxGeometry x="210" y="515.5" width="20" height="19" as="geometry" />
        </mxCell>
        <mxCell id="6tCCwzCevyXfsBco_8ao-14" value="&amp;lt;Btn&amp;gt;&amp;nbsp; &amp;nbsp; &amp;nbsp; &amp;nbsp;Search" style="rounded=1;whiteSpace=wrap;html=1;" parent="6tCCwzCevyXfsBco_8ao-1" vertex="1">
          <mxGeometry x="300" y="510" width="120" height="30" as="geometry" />
        </mxCell>
        <mxCell id="6tCCwzCevyXfsBco_8ao-15" value="&amp;lt;Btn&amp;gt;&amp;nbsp; &amp;nbsp; &amp;nbsp; &amp;nbsp;Nutrition Plan" style="rounded=1;whiteSpace=wrap;html=1;" parent="6tCCwzCevyXfsBco_8ao-1" vertex="1">
          <mxGeometry x="430" y="510" width="140" height="30" as="geometry" />
        </mxCell>
        <mxCell id="6tCCwzCevyXfsBco_8ao-17" value="" style="shape=mxgraph.signs.healthcare.nutrition;html=1;pointerEvents=1;fillColor=#000000;strokeColor=none;verticalLabelPosition=bottom;verticalAlign=top;align=center;" parent="6tCCwzCevyXfsBco_8ao-1" vertex="1">
          <mxGeometry x="470" y="515.5" width="19" height="19" as="geometry" />
        </mxCell>
        <mxCell id="6tCCwzCevyXfsBco_8ao-18" value="" style="sketch=0;pointerEvents=1;shadow=0;dashed=0;html=1;strokeColor=none;fillColor=#505050;labelPosition=center;verticalLabelPosition=bottom;verticalAlign=top;outlineConnect=0;align=center;shape=mxgraph.office.concepts.globe_internet;" parent="6tCCwzCevyXfsBco_8ao-1" vertex="1">
          <mxGeometry x="347" y="515.5" width="19" height="19" as="geometry" />
        </mxCell>
        <mxCell id="6tCCwzCevyXfsBco_8ao-20" value="Logout" style="rounded=0;whiteSpace=wrap;html=1;" parent="6tCCwzCevyXfsBco_8ao-1" vertex="1">
          <mxGeometry y="520" width="150" height="30" as="geometry" />
        </mxCell>
        <mxCell id="6tCCwzCevyXfsBco_8ao-27" value="AI Model: Deepseek-r1:1.5b" style="rounded=1;whiteSpace=wrap;html=1;align=left;" parent="6tCCwzCevyXfsBco_8ao-1" vertex="1">
          <mxGeometry x="160" y="120" width="180" height="30" as="geometry" />
        </mxCell>
        <mxCell id="6tCCwzCevyXfsBco_8ao-29" value="" style="triangle;whiteSpace=wrap;html=1;rotation=90;" parent="6tCCwzCevyXfsBco_8ao-1" vertex="1">
          <mxGeometry x="320" y="125" width="10" height="20" as="geometry" />
        </mxCell>
        <mxCell id="IlofJZiBbfZt6NZ7S_Nx-1" value="You: Effect of consuming hydrogen rich substance" style="text;html=1;align=left;verticalAlign=middle;whiteSpace=wrap;rounded=0;" vertex="1" parent="6tCCwzCevyXfsBco_8ao-1">
          <mxGeometry x="170" y="170" width="280" height="30" as="geometry" />
        </mxCell>
        <mxCell id="IlofJZiBbfZt6NZ7S_Nx-2" value="AI:&amp;nbsp;&lt;span style=&quot;background-color: transparent;&quot;&gt;Consuming hydrogen-rich substances, particularly found in tea, can have several beneficial effects. These include:&amp;nbsp; 1. **Scale Inhibition**: Tea compounds such as proteins, catechins, and organic acids release hydrogen ions (H?) that lower water pH and prevent the formation of mineral scale by chelating calcium and magnesium ions.&amp;nbsp; 2. **Antioxidant Properties**: The presence of reducing compounds like polyphenols in tea can enhance antioxidant activity, mitigating oxidative stress processes such as lipid peroxidation, which are harmful under certain conditions (e.g., stomach or radiation exposure).&amp;nbsp; 3. **Radioprotection**: Tea extracts demonstrated radioprotective effects by reducing levels of reactive oxygen species (ROS) and lipid damage, suggesting their potential protective role against radiation-induced cellular stress.&amp;nbsp; In summary, hydrogen-rich substances in tea contribute to beneficial health effects by aiding scale prevention, acting as antioxidants, and protecting cells from oxidative damage.&amp;nbsp;&amp;nbsp;&lt;/span&gt;&lt;div&gt;References:&amp;nbsp;&lt;/div&gt;&lt;div&gt;[1] New insight into scale inhibition during tea brewing: Ca2+/Mg2+ complexing and alkalinity consumption. - https://pubmed.ncbi.nlm.nih.gov//36182193/&amp;nbsp;&lt;/div&gt;&lt;div&gt;[2] The dual function of nitrite under stomach conditions is modulated by reducing compounds. - https://pubmed.ncbi.nlm.nih.gov//19375499/&amp;nbsp;&lt;/div&gt;&lt;div&gt;[3] Black tea extract protects against -radiation-induced membrane damage of human erythrocytes. - https://pubmed.ncbi.nlm.nih.gov//30179402/&lt;/div&gt;" style="text;html=1;align=left;verticalAlign=middle;whiteSpace=wrap;rounded=0;" vertex="1" parent="6tCCwzCevyXfsBco_8ao-1">
          <mxGeometry x="170" y="200" width="610" height="250" as="geometry" />
        </mxCell>
        <mxCell id="6tCCwzCevyXfsBco_8ao-23" style="rounded=0;orthogonalLoop=1;jettySize=auto;html=1;entryX=0.5;entryY=1;entryDx=0;entryDy=0;dashed=1;" parent="1" source="6tCCwzCevyXfsBco_8ao-19" target="6tCCwzCevyXfsBco_8ao-11" edge="1">
          <mxGeometry relative="1" as="geometry" />
        </mxCell>
        <mxCell id="6tCCwzCevyXfsBco_8ao-19" value="Toogle button (active/inactive)&lt;div&gt;- active by default&lt;/div&gt;&lt;div&gt;- can be active together with&lt;/div&gt;&lt;div&gt;web search toggle button&lt;/div&gt;" style="text;html=1;align=left;verticalAlign=middle;resizable=0;points=[];autosize=1;strokeColor=#6c8ebf;fillColor=#dae8fc;" parent="1" vertex="1">
          <mxGeometry x="100" y="1820" width="180" height="70" as="geometry" />
        </mxCell>
        <mxCell id="6tCCwzCevyXfsBco_8ao-25" style="rounded=0;orthogonalLoop=1;jettySize=auto;html=1;entryX=0.5;entryY=1;entryDx=0;entryDy=0;dashed=1;" parent="1" source="6tCCwzCevyXfsBco_8ao-21" target="6tCCwzCevyXfsBco_8ao-14" edge="1">
          <mxGeometry relative="1" as="geometry" />
        </mxCell>
        <mxCell id="6tCCwzCevyXfsBco_8ao-21" value="Toogle button (active/inactive)&lt;div&gt;- inactive by default&lt;/div&gt;&lt;div&gt;&lt;div&gt;- can be active together with&lt;/div&gt;&lt;div&gt;research toggle button&lt;/div&gt;&lt;/div&gt;" style="text;html=1;align=left;verticalAlign=middle;resizable=0;points=[];autosize=1;strokeColor=#6c8ebf;fillColor=#dae8fc;" parent="1" vertex="1">
          <mxGeometry x="320" y="1820" width="180" height="70" as="geometry" />
        </mxCell>
        <mxCell id="6tCCwzCevyXfsBco_8ao-26" style="rounded=0;orthogonalLoop=1;jettySize=auto;html=1;entryX=0.5;entryY=1;entryDx=0;entryDy=0;dashed=1;" parent="1" source="6tCCwzCevyXfsBco_8ao-22" target="6tCCwzCevyXfsBco_8ao-15" edge="1">
          <mxGeometry relative="1" as="geometry" />
        </mxCell>
        <mxCell id="6tCCwzCevyXfsBco_8ao-22" value="Toogle button (active/inactive)&lt;div&gt;- inactive by default&lt;/div&gt;&lt;div&gt;- when it is active, both research&lt;/div&gt;&lt;div&gt;and web search toggle button&lt;/div&gt;&lt;div&gt;will be deactivated&lt;/div&gt;" style="text;html=1;align=left;verticalAlign=middle;resizable=0;points=[];autosize=1;strokeColor=#6c8ebf;fillColor=#dae8fc;" parent="1" vertex="1">
          <mxGeometry x="540" y="1820" width="200" height="90" as="geometry" />
        </mxCell>
        <mxCell id="6tCCwzCevyXfsBco_8ao-30" style="rounded=0;orthogonalLoop=1;jettySize=auto;html=1;entryX=0.5;entryY=0;entryDx=0;entryDy=0;dashed=1;" parent="1" source="6tCCwzCevyXfsBco_8ao-28" target="6tCCwzCevyXfsBco_8ao-27" edge="1">
          <mxGeometry relative="1" as="geometry" />
        </mxCell>
        <mxCell id="6tCCwzCevyXfsBco_8ao-28" value="Dropdown button&lt;div&gt;- Select deepseek-r1:1.5b as default&lt;/div&gt;&lt;div&gt;- Can be changed to other model&amp;nbsp;&lt;/div&gt;&lt;div&gt;and generate result accordingly&lt;/div&gt;" style="text;html=1;align=left;verticalAlign=middle;resizable=0;points=[];autosize=1;strokeColor=#6c8ebf;fillColor=#dae8fc;" parent="1" vertex="1">
          <mxGeometry x="320" y="1130" width="220" height="70" as="geometry" />
        </mxCell>
      </root>
    </mxGraphModel>
  </diagram>
</mxfile>
